<svg xmlns="http://www.w3.org/2000/svg" xmlns:xlink="http://www.w3.org/1999/xlink" version="1.1" width="256" height="256" viewBox="0 0 256 256" xml:space="preserve">

<defs>
</defs>
<g style="stroke: none; stroke-width: 0; stroke-dasharray: none; stroke-linecap: butt; stroke-linejoin: miter; stroke-miterlimit: 10; fill: none; fill-rule: nonzero; opacity: 1;" transform="translate(1.4065934065934016 1.4065934065934016) scale(2.81 2.81)" >
	<polygon points="63.33,59.76 71.41,7.18 78.74,59.76 " style="stroke: none; stroke-width: 1; stroke-dasharray: none; stroke-linecap: butt; stroke-linejoin: miter; stroke-miterlimit: 10; fill: rgb(217,148,57); fill-rule: nonzero; opacity: 1;" transform="  matrix(1 0 0 1 0 0) "/>
	<path d="M 34.489 59.755 L 39.466 7.18 c 9.84 3.593 20.451 3.564 31.815 0 l -4.851 52.575 H 34.489 z" style="stroke: none; stroke-width: 1; stroke-dasharray: none; stroke-linecap: butt; stroke-linejoin: miter; stroke-miterlimit: 10; fill: rgb(255,180,80); fill-rule: nonzero; opacity: 1;" transform=" matrix(1 0 0 1 0 0) " stroke-linecap="round" />
	<polygon points="34.48,17.64 66.42,17.64 71.28,7.18 39.47,7.18 " style="stroke: none; stroke-width: 1; stroke-dasharray: none; stroke-linecap: butt; stroke-linejoin: miter; stroke-miterlimit: 10; fill: rgb(217,148,57); fill-rule: nonzero; opacity: 1;" transform="  matrix(1 0 0 1 0 0) "/>
	<polygon points="44.96,33.41 23.6,33.41 26.04,59.76 42.53,59.76 " style="stroke: none; stroke-width: 1; stroke-dasharray: none; stroke-linecap: butt; stroke-linejoin: miter; stroke-miterlimit: 10; fill: rgb(255,109,111); fill-rule: nonzero; opacity: 1;" transform="  matrix(1 0 0 1 0 0) "/>
	<polygon points="48.61,34.44 19.95,34.44 23.22,25.52 45.34,25.52 " style="stroke: none; stroke-width: 1; stroke-dasharray: none; stroke-linecap: butt; stroke-linejoin: miter; stroke-miterlimit: 10; fill: rgb(234,84,84); fill-rule: nonzero; opacity: 1;" transform="  matrix(1 0 0 1 0 0) "/>
	<rect x="11.38" y="58.76" rx="0" ry="0" width="78.62" height="12.51" style="stroke: none; stroke-width: 1; stroke-dasharray: none; stroke-linecap: butt; stroke-linejoin: miter; stroke-miterlimit: 10; fill: rgb(204,137,100); fill-rule: nonzero; opacity: 1;" transform=" matrix(1 0 0 1 0 0) "/>
	<path d="M 29.479 81.163 l -4.423 0.064 c -0.739 0.011 -1.477 -0.065 -2.199 -0.226 l -7.993 -1.782 c -0.914 -0.204 -1.847 -0.307 -2.783 -0.307 H 6.473 v -9.778 l 3.649 0.058 c 0.495 0.003 0.974 -0.181 1.347 -0.506 c 2.947 -2.575 5.607 -4.346 10.061 -5.397 c 3.525 -0.789 6.98 0.885 11.314 -1.166 c 0.912 -0.432 1.898 -0.659 2.681 -0.024 l 0 0 c 0.911 0.739 1.232 2.283 0.293 2.986 c -4.011 3.007 -7.087 1.907 -10.171 3.451 c 4.117 3.776 13.745 2.17 21.766 0.742 c 1.175 -0.209 2.318 0.492 2.668 1.634 h 0 c 0.353 1.152 -0.219 2.386 -1.326 2.862 l -15.673 6.619 C 31.943 80.883 30.719 81.145 29.479 81.163 z" style="stroke: none; stroke-width: 1; stroke-dasharray: none; stroke-linecap: butt; stroke-linejoin: miter; stroke-miterlimit: 10; fill: rgb(252,191,169); fill-rule: nonzero; opacity: 1;" transform=" matrix(1 0 0 1 0 0) " stroke-linecap="round" />
	<rect x="0" y="67.27" rx="0" ry="0" width="7.51" height="15.55" style="stroke: none; stroke-width: 1; stroke-dasharray: none; stroke-linecap: butt; stroke-linejoin: miter; stroke-miterlimit: 10; fill: rgb(255,180,80); fill-rule: nonzero; opacity: 1;" transform=" matrix(1 0 0 1 0 0) "/>
</g>
</svg>