<svg xmlns="http://www.w3.org/2000/svg" xmlns:xlink="http://www.w3.org/1999/xlink" version="1.1" width="256" height="256" viewBox="0 0 256 256" xml:space="preserve">

<defs>
</defs>
<g style="stroke: none; stroke-width: 0; stroke-dasharray: none; stroke-linecap: butt; stroke-linejoin: miter; stroke-miterlimit: 10; fill: none; fill-rule: nonzero; opacity: 1;" transform="translate(1.4065934065934016 1.4065934065934016) scale(2.81 2.81)" >
	<path d="M 65.134 0 c 7.404 9.047 17.064 30.381 17.064 49.961 c 0 9.424 -7.64 17.064 -17.064 17.064 S 48.07 59.385 48.07 49.961 C 48.07 30.381 57.729 9.047 65.134 0 z" style="stroke: none; stroke-width: 1; stroke-dasharray: none; stroke-linecap: butt; stroke-linejoin: miter; stroke-miterlimit: 10; fill: rgb(153,213,59); fill-rule: nonzero; opacity: 1;" transform=" matrix(1 0 0 1 0 0) " stroke-linecap="round" />
	<path d="M 65.134 90 c -0.559 0 -1.011 -0.452 -1.011 -1.011 V 35.936 c 0 -0.558 0.452 -1.011 1.011 -1.011 s 1.011 0.453 1.011 1.011 v 53.052 C 66.145 89.548 65.693 90 65.134 90 z" style="stroke: none; stroke-width: 1; stroke-dasharray: none; stroke-linecap: butt; stroke-linejoin: miter; stroke-miterlimit: 10; fill: rgb(136,186,49); fill-rule: nonzero; opacity: 1;" transform=" matrix(1 0 0 1 0 0) " stroke-linecap="round" />
	<path d="M 65.134 59.505 c -0.259 0 -0.517 -0.099 -0.715 -0.296 c -0.395 -0.395 -0.395 -1.035 0 -1.43 l 6.416 -6.417 c 0.395 -0.395 1.035 -0.395 1.43 0 c 0.395 0.395 0.395 1.035 0 1.43 l -6.416 6.417 C 65.651 59.406 65.392 59.505 65.134 59.505 z" style="stroke: none; stroke-width: 1; stroke-dasharray: none; stroke-linecap: butt; stroke-linejoin: miter; stroke-miterlimit: 10; fill: rgb(136,186,49); fill-rule: nonzero; opacity: 1;" transform=" matrix(1 0 0 1 0 0) " stroke-linecap="round" />
	<path d="M 65.134 52.152 c -0.259 0 -0.517 -0.099 -0.715 -0.296 l -6.416 -6.416 c -0.395 -0.395 -0.395 -1.035 0 -1.43 c 0.395 -0.395 1.035 -0.395 1.43 0 l 6.416 6.416 c 0.395 0.395 0.395 1.035 0 1.43 C 65.651 52.053 65.392 52.152 65.134 52.152 z" style="stroke: none; stroke-width: 1; stroke-dasharray: none; stroke-linecap: butt; stroke-linejoin: miter; stroke-miterlimit: 10; fill: rgb(136,186,49); fill-rule: nonzero; opacity: 1;" transform=" matrix(1 0 0 1 0 0) " stroke-linecap="round" />
	<path d="M 82.807 88.989 c -0.461 -3.145 -3.162 -5.562 -6.435 -5.562 c -0.12 0 -0.237 0.012 -0.356 0.018 c -0.669 -2.885 -3.249 -5.038 -6.338 -5.038 c -1.003 0 -1.95 0.234 -2.799 0.639 c -1.141 -1.885 -3.204 -3.149 -5.568 -3.149 c -3.379 0 -6.156 2.574 -6.479 5.868 c -0.072 -0.002 -0.142 -0.011 -0.214 -0.011 c -3.596 0 -6.512 2.915 -6.512 6.512 c 0 0.245 0.016 0.486 0.042 0.724 H 82.807 z" style="stroke: none; stroke-width: 1; stroke-dasharray: none; stroke-linecap: butt; stroke-linejoin: miter; stroke-miterlimit: 10; fill: rgb(28,165,111); fill-rule: nonzero; opacity: 1;" transform=" matrix(1 0 0 1 0 0) " stroke-linecap="round" />
	<path d="M 13.914 78.842 c -0.558 0 -1.011 -0.452 -1.011 -1.011 v -4.092 c 0 -0.559 0.453 -1.011 1.011 -1.011 c 0.558 0 1.011 0.452 1.011 1.011 v 4.092 C 14.925 78.39 14.473 78.842 13.914 78.842 z" style="stroke: none; stroke-width: 1; stroke-dasharray: none; stroke-linecap: butt; stroke-linejoin: miter; stroke-miterlimit: 10; fill: rgb(134,91,71); fill-rule: nonzero; opacity: 1;" transform=" matrix(1 0 0 1 0 0) " stroke-linecap="round" />
	<path d="M 33.95 78.842 c -0.558 0 -1.011 -0.452 -1.011 -1.011 v -4.092 c 0 -0.559 0.453 -1.011 1.011 -1.011 c 0.558 0 1.011 0.452 1.011 1.011 v 4.092 C 34.961 78.39 34.509 78.842 33.95 78.842 z" style="stroke: none; stroke-width: 1; stroke-dasharray: none; stroke-linecap: butt; stroke-linejoin: miter; stroke-miterlimit: 10; fill: rgb(134,91,71); fill-rule: nonzero; opacity: 1;" transform=" matrix(1 0 0 1 0 0) " stroke-linecap="round" />
	<path d="M 13.914 90 c -0.558 0 -1.011 -0.452 -1.011 -1.011 v -6.138 c 0 -0.559 0.453 -1.011 1.011 -1.011 c 0.558 0 1.011 0.452 1.011 1.011 v 6.138 C 14.925 89.548 14.473 90 13.914 90 z" style="stroke: none; stroke-width: 1; stroke-dasharray: none; stroke-linecap: butt; stroke-linejoin: miter; stroke-miterlimit: 10; fill: rgb(134,91,71); fill-rule: nonzero; opacity: 1;" transform=" matrix(1 0 0 1 0 0) " stroke-linecap="round" />
	<path d="M 33.95 90 c -0.558 0 -1.011 -0.452 -1.011 -1.011 v -6.138 c 0 -0.559 0.453 -1.011 1.011 -1.011 c 0.558 0 1.011 0.452 1.011 1.011 v 6.138 C 34.961 89.548 34.509 90 33.95 90 z" style="stroke: none; stroke-width: 1; stroke-dasharray: none; stroke-linecap: butt; stroke-linejoin: miter; stroke-miterlimit: 10; fill: rgb(134,91,71); fill-rule: nonzero; opacity: 1;" transform=" matrix(1 0 0 1 0 0) " stroke-linecap="round" />
	<path d="M 15.472 31.843 c -0.325 0 -0.645 -0.157 -0.84 -0.447 c -0.312 -0.463 -0.188 -1.092 0.276 -1.403 c 0.569 -0.382 0.895 -0.954 0.895 -1.57 c 0 -1.099 -1.041 -1.993 -2.321 -1.993 c -0.813 0 -1.554 0.358 -1.982 0.957 c -0.325 0.453 -0.956 0.559 -1.411 0.236 c -0.454 -0.324 -0.56 -0.956 -0.236 -1.411 c 0.806 -1.13 2.163 -1.805 3.628 -1.805 c 2.395 0 4.344 1.801 4.344 4.015 c 0 1.281 -0.669 2.496 -1.79 3.249 C 15.863 31.787 15.667 31.843 15.472 31.843 z" style="stroke: none; stroke-width: 1; stroke-dasharray: none; stroke-linecap: butt; stroke-linejoin: miter; stroke-miterlimit: 10; fill: rgb(255,193,79); fill-rule: nonzero; opacity: 1;" transform=" matrix(1 0 0 1 0 0) " stroke-linecap="round" />
	<path d="M 18.156 31.843 c -0.194 0 -0.39 -0.056 -0.563 -0.172 c -1.121 -0.753 -1.79 -1.968 -1.79 -3.249 c 0 -2.214 1.948 -4.015 4.344 -4.015 c 1.465 0 2.821 0.675 3.628 1.805 c 0.324 0.455 0.219 1.086 -0.236 1.411 c -0.456 0.324 -1.086 0.218 -1.411 -0.236 c -0.428 -0.599 -1.168 -0.957 -1.981 -0.957 c -1.28 0 -2.321 0.894 -2.321 1.993 c 0 0.616 0.326 1.188 0.895 1.57 c 0.464 0.312 0.587 0.94 0.276 1.403 C 18.8 31.686 18.481 31.843 18.156 31.843 z" style="stroke: none; stroke-width: 1; stroke-dasharray: none; stroke-linecap: butt; stroke-linejoin: miter; stroke-miterlimit: 10; fill: rgb(255,193,79); fill-rule: nonzero; opacity: 1;" transform=" matrix(1 0 0 1 0 0) " stroke-linecap="round" />
	<path d="M 28.77 42.071 c -0.325 0 -0.645 -0.157 -0.84 -0.447 c -0.312 -0.463 -0.188 -1.092 0.276 -1.403 c 0.569 -0.382 0.895 -0.954 0.895 -1.57 c 0 -1.099 -1.041 -1.992 -2.321 -1.992 c -0.813 0 -1.554 0.357 -1.981 0.956 c -0.323 0.455 -0.956 0.56 -1.41 0.236 c -0.455 -0.324 -0.56 -0.956 -0.236 -1.41 c 0.806 -1.13 2.162 -1.805 3.628 -1.805 c 2.395 0 4.344 1.801 4.344 4.015 c 0 1.281 -0.669 2.495 -1.79 3.249 C 29.16 42.015 28.964 42.071 28.77 42.071 z" style="stroke: none; stroke-width: 1; stroke-dasharray: none; stroke-linecap: butt; stroke-linejoin: miter; stroke-miterlimit: 10; fill: rgb(255,193,79); fill-rule: nonzero; opacity: 1;" transform=" matrix(1 0 0 1 0 0) " stroke-linecap="round" />
	<path d="M 31.453 42.071 c -0.194 0 -0.39 -0.056 -0.563 -0.172 c -1.121 -0.753 -1.79 -1.968 -1.79 -3.249 c 0 -2.214 1.948 -4.015 4.344 -4.015 c 1.465 0 2.821 0.674 3.628 1.804 c 0.324 0.454 0.219 1.086 -0.236 1.411 c -0.455 0.323 -1.086 0.219 -1.411 -0.236 c -0.428 -0.599 -1.169 -0.957 -1.981 -0.957 c -1.28 0 -2.321 0.894 -2.321 1.992 c 0 0.616 0.326 1.188 0.895 1.57 c 0.464 0.312 0.587 0.94 0.276 1.403 C 32.098 41.914 31.778 42.071 31.453 42.071 z" style="stroke: none; stroke-width: 1; stroke-dasharray: none; stroke-linecap: butt; stroke-linejoin: miter; stroke-miterlimit: 10; fill: rgb(255,193,79); fill-rule: nonzero; opacity: 1;" transform=" matrix(1 0 0 1 0 0) " stroke-linecap="round" />
	<path d="M 38.224 75.761 H 9.64 v -7.169 c 0 -1.851 1.5 -3.351 3.351 -3.351 h 21.882 c 1.851 0 3.351 1.5 3.351 3.351 V 75.761 z" style="stroke: none; stroke-width: 1; stroke-dasharray: none; stroke-linecap: butt; stroke-linejoin: miter; stroke-miterlimit: 10; fill: rgb(255,193,79); fill-rule: nonzero; opacity: 1;" transform=" matrix(1 0 0 1 0 0) " stroke-linecap="round" />
	<path d="M 38.831 77.83 H 9.033 c -1.387 0 -2.511 1.124 -2.511 2.511 v 0 c 0 1.387 1.124 2.511 2.511 2.511 h 29.798 c 1.387 0 2.511 -1.124 2.511 -2.511 v 0 C 41.342 78.954 40.218 77.83 38.831 77.83 z" style="stroke: none; stroke-width: 1; stroke-dasharray: none; stroke-linecap: butt; stroke-linejoin: miter; stroke-miterlimit: 10; fill: rgb(255,193,79); fill-rule: nonzero; opacity: 1;" transform=" matrix(1 0 0 1 0 0) " stroke-linecap="round" />
	<path d="M 89.435 90 H 0.565 c -0.558 0 -1.011 -0.452 -1.011 -1.011 s 0.453 -1.011 1.011 -1.011 h 88.87 c 0.559 0 1.011 0.452 1.011 1.011 S 89.994 90 89.435 90 z" style="stroke: none; stroke-width: 1; stroke-dasharray: none; stroke-linecap: butt; stroke-linejoin: miter; stroke-miterlimit: 10; fill: rgb(28,165,111); fill-rule: nonzero; opacity: 1;" transform=" matrix(1 0 0 1 0 0) " stroke-linecap="round" />
</g>
</svg>