<?xml version="1.0" encoding="iso-8859-1"?>
<!-- Uploaded to: SVG Repo, www.svgrepo.com, Generator: SVG Repo Mixer Tools -->
<svg height="800px" width="800px" version="1.1" id="Layer_1" xmlns="http://www.w3.org/2000/svg" xmlns:xlink="http://www.w3.org/1999/xlink" 
	 viewBox="0 0 512 512" xml:space="preserve">
<path style="fill:#DEDEE0;" d="M395.636,46.545H209.455H23.273C10.42,46.545,0,56.965,0,69.818v372.364
	c0,12.853,10.42,23.273,23.273,23.273h186.182h186.182c12.853,0,23.273-10.42,23.273-23.273v-93.091v-46.545v-93.091v-46.545V69.818
	C418.909,56.965,408.489,46.545,395.636,46.545z"/>
<path style="fill:#77757F;" d="M465.428,209.455v93.091h-46.519v46.545h46.538l0.008,139.638
	C465.456,501.582,475.876,512,488.729,512s23.273-10.42,23.271-23.274l-0.026-465.455C511.974,10.418,501.554,0,488.699,0
	s-23.271,10.42-23.271,23.274l0.008,139.635h-46.527v46.545H465.428z"/>
<polygon style="fill:#D8143A;" points="240.486,224.971 240.486,162.909 209.455,162.909 178.424,162.909 178.424,224.971 
	116.364,224.971 116.364,287.032 178.424,287.032 178.424,349.091 209.455,349.091 240.486,349.091 240.486,287.032 
	302.545,287.032 302.545,224.971 "/>
<path style="fill:#D6D5D8;" d="M23.273,465.455h186.182V349.091h-31.03v-62.059h-62.061v-62.061h62.061v-62.062h31.03V46.545H23.273
	C10.42,46.545,0,56.965,0,69.818v372.364C0,455.035,10.42,465.455,23.273,465.455z"/>
</svg>