<svg xmlns="http://www.w3.org/2000/svg" xmlns:xlink="http://www.w3.org/1999/xlink" version="1.1" width="256" height="256" viewBox="0 0 256 256" xml:space="preserve">

<defs>
</defs>
<g style="stroke: none; stroke-width: 0; stroke-dasharray: none; stroke-linecap: butt; stroke-linejoin: miter; stroke-miterlimit: 10; fill: none; fill-rule: nonzero; opacity: 1;" transform="translate(1.4065934065934016 1.4065934065934016) scale(2.81 2.81)" >
	<circle cx="28.356" cy="77.246" r="6.216" style="stroke: none; stroke-width: 1; stroke-dasharray: none; stroke-linecap: butt; stroke-linejoin: miter; stroke-miterlimit: 10; fill: rgb(116,139,150); fill-rule: nonzero; opacity: 1;" transform="  matrix(1 0 0 1 0 0) "/>
	<circle cx="72.966" cy="77.246" r="6.216" style="stroke: none; stroke-width: 1; stroke-dasharray: none; stroke-linecap: butt; stroke-linejoin: miter; stroke-miterlimit: 10; fill: rgb(116,139,150); fill-rule: nonzero; opacity: 1;" transform="  matrix(1 0 0 1 0 0) "/>
	<path d="M 77.65 26.252 c 0 -6.344 -5.143 -11.488 -11.488 -11.488 v 11.488 H 77.65 z" style="stroke: none; stroke-width: 1; stroke-dasharray: none; stroke-linecap: butt; stroke-linejoin: miter; stroke-miterlimit: 10; fill: rgb(0,221,194); fill-rule: nonzero; opacity: 1;" transform=" matrix(1 0 0 1 0 0) " stroke-linecap="round" />
	<polygon points="67.16,26.25 67.16,6.54 37.57,6.54 37.57,15.19 45.21,15.19 45.21,26.25 " style="stroke: none; stroke-width: 1; stroke-dasharray: none; stroke-linecap: butt; stroke-linejoin: miter; stroke-miterlimit: 10; fill: rgb(255,102,139); fill-rule: nonzero; opacity: 1;" transform="  matrix(1 0 0 1 0 0) "/>
	<rect x="24.33" y="14.56" rx="0" ry="0" width="22" height="12.32" style="stroke: none; stroke-width: 1; stroke-dasharray: none; stroke-linecap: butt; stroke-linejoin: miter; stroke-miterlimit: 10; fill: rgb(253,216,53); fill-rule: nonzero; opacity: 1;" transform=" matrix(1 0 0 1 0 0) "/>
	<path d="M 89.563 25.019 c -0.372 -0.458 -0.93 -0.723 -1.519 -0.723 H 15.422 l -0.965 -4.472 c -0.856 -3.962 -4.419 -6.838 -8.473 -6.838 H 1.956 C 0.876 12.986 0 13.862 0 14.942 s 0.876 1.957 1.957 1.957 h 4.028 c 2.224 0 4.178 1.578 4.648 3.751 l 1.299 6.015 L 18.6 57.55 c 1.013 4.688 5.228 8.09 10.023 8.09 h 44.83 c 4.824 0 9.045 -3.427 10.036 -8.148 l 6.47 -30.838 C 90.079 26.078 89.934 25.477 89.563 25.019 z" style="stroke: none; stroke-width: 1; stroke-dasharray: none; stroke-linecap: butt; stroke-linejoin: miter; stroke-miterlimit: 10; fill: rgb(158,190,204); fill-rule: nonzero; opacity: 1;" transform=" matrix(1 0 0 1 0 0) " stroke-linecap="round" />
	<path d="M 50.943 54.966 c -0.828 0 -1.5 -0.672 -1.5 -1.5 V 34.821 c 0 -0.829 0.672 -1.5 1.5 -1.5 s 1.5 0.671 1.5 1.5 v 18.645 C 52.443 54.294 51.771 54.966 50.943 54.966 z" style="stroke: none; stroke-width: 1; stroke-dasharray: none; stroke-linecap: butt; stroke-linejoin: miter; stroke-miterlimit: 10; fill: rgb(255,255,255); fill-rule: nonzero; opacity: 1;" transform=" matrix(1 0 0 1 0 0) " stroke-linecap="round" />
	<path d="M 66.198 54.966 c -0.059 0 -0.117 -0.003 -0.176 -0.01 c -0.823 -0.097 -1.412 -0.842 -1.316 -1.664 l 2.179 -18.646 c 0.097 -0.824 0.857 -1.412 1.664 -1.315 c 0.823 0.096 1.412 0.841 1.316 1.664 L 67.687 53.64 C 67.597 54.403 66.948 54.966 66.198 54.966 z" style="stroke: none; stroke-width: 1; stroke-dasharray: none; stroke-linecap: butt; stroke-linejoin: miter; stroke-miterlimit: 10; fill: rgb(255,255,255); fill-rule: nonzero; opacity: 1;" transform=" matrix(1 0 0 1 0 0) " stroke-linecap="round" />
	<path d="M 35.688 54.966 c -0.715 0 -1.348 -0.513 -1.476 -1.241 L 30.944 35.08 c -0.143 -0.816 0.402 -1.593 1.219 -1.736 c 0.817 -0.14 1.593 0.403 1.736 1.219 l 3.268 18.645 c 0.143 0.815 -0.402 1.593 -1.219 1.736 C 35.861 54.959 35.774 54.966 35.688 54.966 z" style="stroke: none; stroke-width: 1; stroke-dasharray: none; stroke-linecap: butt; stroke-linejoin: miter; stroke-miterlimit: 10; fill: rgb(255,255,255); fill-rule: nonzero; opacity: 1;" transform=" matrix(1 0 0 1 0 0) " stroke-linecap="round" />
</g>
</svg>