<svg width="168" height="184" viewBox="0 0 168 184" fill="none" xmlns="http://www.w3.org/2000/svg">
<g filter="url(#filter0_bd_3_1614)">
<mask id="path-1-inside-1_3_1614" fill="white">
<path fill-rule="evenodd" clip-rule="evenodd" d="M95.6321 97.8349C95.6968 97.8357 95.7616 97.836 95.8265 97.836C105.061 97.836 112.547 90.3499 112.547 81.1153C112.547 71.8807 105.061 64.3946 95.8265 64.3946C95.7616 64.3946 95.6968 64.3949 95.6321 64.3957V64.3946H91.3126C91.4686 63.2503 91.5492 62.082 91.5492 60.8949C91.5492 46.7208 80.0588 35.2305 65.8848 35.2305C51.7107 35.2305 40.2204 46.7208 40.2204 60.8949C40.2204 62.2323 40.3227 63.5458 40.5199 64.828C39.2994 64.5445 38.0276 64.3946 36.7207 64.3946C27.4861 64.3946 20 71.8807 20 81.1153C20 90.3499 27.4861 97.836 36.7207 97.836C36.7859 97.836 36.851 97.8357 36.916 97.8349L36.9151 97.836H95.6321V97.8349Z"/>
</mask>
<path fill-rule="evenodd" clip-rule="evenodd" d="M95.6321 97.8349C95.6968 97.8357 95.7616 97.836 95.8265 97.836C105.061 97.836 112.547 90.3499 112.547 81.1153C112.547 71.8807 105.061 64.3946 95.8265 64.3946C95.7616 64.3946 95.6968 64.3949 95.6321 64.3957V64.3946H91.3126C91.4686 63.2503 91.5492 62.082 91.5492 60.8949C91.5492 46.7208 80.0588 35.2305 65.8848 35.2305C51.7107 35.2305 40.2204 46.7208 40.2204 60.8949C40.2204 62.2323 40.3227 63.5458 40.5199 64.828C39.2994 64.5445 38.0276 64.3946 36.7207 64.3946C27.4861 64.3946 20 71.8807 20 81.1153C20 90.3499 27.4861 97.836 36.7207 97.836C36.7859 97.836 36.851 97.8357 36.916 97.8349L36.9151 97.836H95.6321V97.8349Z" fill="url(#paint0_linear_3_1614)" shape-rendering="crispEdges"/>
<path d="M95.6321 97.8349L95.6549 95.8351C95.1206 95.829 94.606 96.037 94.226 96.4127C93.846 96.7884 93.6321 97.3006 93.6321 97.8349H95.6321ZM95.6321 64.3957H93.6321C93.6321 64.93 93.846 65.4422 94.226 65.8179C94.606 66.1936 95.1206 66.4016 95.6549 66.3955L95.6321 64.3957ZM95.6321 64.3946H97.6321C97.6321 63.29 96.7367 62.3946 95.6321 62.3946V64.3946ZM91.3126 64.3946L89.3309 64.1244C89.2529 64.6966 89.426 65.2747 89.8058 65.7098C90.1856 66.1449 90.735 66.3946 91.3126 66.3946V64.3946ZM40.5199 64.828L40.0673 66.7762C40.7138 66.9264 41.3928 66.746 41.8796 66.2947C42.3664 65.8435 42.5975 65.1801 42.4966 64.524L40.5199 64.828ZM36.916 97.8349L38.4866 99.0732C38.9636 98.4682 39.0506 97.6431 38.7105 96.9519C38.3704 96.2606 37.6634 95.8262 36.8931 95.8351L36.916 97.8349ZM36.9151 97.836L35.3445 96.5978C34.8701 97.1995 34.7812 98.0194 35.1156 98.7088C35.45 99.3983 36.1489 99.836 36.9151 99.836V97.836ZM95.6321 97.836V99.836C96.7367 99.836 97.6321 98.9406 97.6321 97.836H95.6321ZM95.6094 99.8348C95.6817 99.8356 95.754 99.836 95.8265 99.836V95.836C95.7692 95.836 95.712 95.8357 95.6549 95.8351L95.6094 99.8348ZM95.8265 99.836C106.166 99.836 114.547 91.4545 114.547 81.1153H110.547C110.547 89.2453 103.957 95.836 95.8265 95.836V99.836ZM114.547 81.1153C114.547 70.7761 106.166 62.3946 95.8265 62.3946V66.3946C103.957 66.3946 110.547 72.9853 110.547 81.1153H114.547ZM95.8265 62.3946C95.754 62.3946 95.6817 62.395 95.6094 62.3958L95.6549 66.3955C95.712 66.3949 95.7692 66.3946 95.8265 66.3946V62.3946ZM93.6321 64.3946V64.3957H97.6321V64.3946H93.6321ZM91.3126 66.3946H95.6321V62.3946H91.3126V66.3946ZM93.2942 64.6647C93.4624 63.4312 93.5492 62.1726 93.5492 60.8949H89.5492C89.5492 61.9913 89.4747 63.0694 89.3309 64.1244L93.2942 64.6647ZM93.5492 60.8949C93.5492 45.6162 81.1634 33.2305 65.8848 33.2305V37.2305C78.9543 37.2305 89.5492 47.8254 89.5492 60.8949H93.5492ZM65.8848 33.2305C50.6062 33.2305 38.2204 45.6162 38.2204 60.8949H42.2204C42.2204 47.8254 52.8153 37.2305 65.8848 37.2305V33.2305ZM38.2204 60.8949C38.2204 62.3344 38.3305 63.7496 38.5431 65.1321L42.4966 64.524C42.3149 63.342 42.2204 62.1301 42.2204 60.8949H38.2204ZM40.9725 62.8799C39.6046 62.5621 38.181 62.3946 36.7207 62.3946V66.3946C37.8741 66.3946 38.9941 66.5268 40.0673 66.7762L40.9725 62.8799ZM36.7207 62.3946C26.3816 62.3946 18 70.7761 18 81.1153H22C22 72.9853 28.5907 66.3946 36.7207 66.3946V62.3946ZM18 81.1153C18 91.4545 26.3816 99.836 36.7207 99.836V95.836C28.5907 95.836 22 89.2453 22 81.1153H18ZM36.7207 99.836C36.7936 99.836 36.8663 99.8356 36.9389 99.8348L36.8931 95.8351C36.8357 95.8357 36.7783 95.836 36.7207 95.836V99.836ZM38.4857 99.0743L38.4866 99.0732L35.3454 96.5967L35.3445 96.5978L38.4857 99.0743ZM95.6321 95.836H36.9151V99.836H95.6321V95.836ZM93.6321 97.8349V97.836H97.6321V97.8349H93.6321Z" fill="url(#paint1_linear_3_1614)" mask="url(#path-1-inside-1_3_1614)"/>
</g>
<g filter="url(#filter1_bd_3_1614)">
<mask id="path-3-inside-2_3_1614" fill="white">
<path fill-rule="evenodd" clip-rule="evenodd" d="M125.987 80.474C126.034 80.4745 126.081 80.4748 126.128 80.4748C132.801 80.4748 138.212 75.0647 138.212 68.3909C138.212 61.7172 132.801 56.307 126.128 56.307C126.081 56.307 126.034 56.3073 125.987 56.3078V56.307H122.865C122.978 55.4801 123.036 54.6358 123.036 53.7778C123.036 43.5344 114.733 35.2305 104.489 35.2305C94.2457 35.2305 85.9417 43.5344 85.9417 53.7778C85.9417 54.7444 86.0157 55.6937 86.1582 56.6203C85.2761 56.4154 84.357 56.307 83.4125 56.307C76.7388 56.307 71.3286 61.7172 71.3286 68.3909C71.3286 75.0647 76.7388 80.4748 83.4125 80.4748C83.4596 80.4748 83.5066 80.4745 83.5536 80.474L83.553 80.4748H125.987V80.474Z"/>
</mask>
<path fill-rule="evenodd" clip-rule="evenodd" d="M125.987 80.474C126.034 80.4745 126.081 80.4748 126.128 80.4748C132.801 80.4748 138.212 75.0647 138.212 68.3909C138.212 61.7172 132.801 56.307 126.128 56.307C126.081 56.307 126.034 56.3073 125.987 56.3078V56.307H122.865C122.978 55.4801 123.036 54.6358 123.036 53.7778C123.036 43.5344 114.733 35.2305 104.489 35.2305C94.2457 35.2305 85.9417 43.5344 85.9417 53.7778C85.9417 54.7444 86.0157 55.6937 86.1582 56.6203C85.2761 56.4154 84.357 56.307 83.4125 56.307C76.7388 56.307 71.3286 61.7172 71.3286 68.3909C71.3286 75.0647 76.7388 80.4748 83.4125 80.4748C83.4596 80.4748 83.5066 80.4745 83.5536 80.474L83.553 80.4748H125.987V80.474Z" fill="url(#paint2_linear_3_1614)" shape-rendering="crispEdges"/>
<path d="M125.987 80.474L126.01 78.4741C125.476 78.468 124.961 78.676 124.581 79.0517C124.201 79.4275 123.987 79.9396 123.987 80.474H125.987ZM125.987 56.3078H123.987C123.987 56.8422 124.201 57.3544 124.581 57.7301C124.961 58.1058 125.476 58.3138 126.01 58.3077L125.987 56.3078ZM125.987 56.307H127.987C127.987 55.2024 127.092 54.307 125.987 54.307V56.307ZM122.865 56.307L120.884 56.0368C120.806 56.6091 120.979 57.1871 121.359 57.6222C121.739 58.0573 122.288 58.307 122.865 58.307V56.307ZM86.1582 56.6203L85.7056 58.5684C86.3521 58.7186 87.0311 58.5383 87.5179 58.087C88.0047 57.6357 88.2359 56.9724 88.135 56.3163L86.1582 56.6203ZM83.5536 80.474L85.1256 81.7105C85.6016 81.1053 85.688 80.2806 85.3476 79.5899C85.0072 78.8993 84.3006 78.4653 83.5307 78.4741L83.5536 80.474ZM83.553 80.4748L81.981 79.2383C81.5075 79.8403 81.4194 80.6597 81.754 81.3486C82.0886 82.0375 82.7872 82.4748 83.553 82.4748V80.4748ZM125.987 80.4748V82.4748C127.092 82.4748 127.987 81.5794 127.987 80.4748H125.987ZM125.964 82.4739C126.019 82.4745 126.073 82.4748 126.128 82.4748V78.4748C126.088 78.4748 126.049 78.4746 126.01 78.4741L125.964 82.4739ZM126.128 82.4748C133.906 82.4748 140.212 76.1692 140.212 68.3909H136.212C136.212 73.9601 131.697 78.4748 126.128 78.4748V82.4748ZM140.212 68.3909C140.212 60.6126 133.906 54.307 126.128 54.307V58.307C131.697 58.307 136.212 62.8217 136.212 68.3909H140.212ZM126.128 54.307C126.073 54.307 126.019 54.3073 125.964 54.3079L126.01 58.3077C126.049 58.3072 126.088 58.307 126.128 58.307V54.307ZM123.987 56.307V56.3078H127.987V56.307H123.987ZM122.865 58.307H125.987V54.307H122.865V58.307ZM124.847 56.5772C124.972 55.661 125.036 54.7264 125.036 53.7778H121.036C121.036 54.5451 120.984 55.2991 120.884 56.0368L124.847 56.5772ZM125.036 53.7778C125.036 42.4298 115.837 33.2305 104.489 33.2305V37.2305C113.628 37.2305 121.036 44.639 121.036 53.7778H125.036ZM104.489 33.2305C93.1411 33.2305 83.9417 42.4298 83.9417 53.7778H87.9417C87.9417 44.639 95.3503 37.2305 104.489 37.2305V33.2305ZM83.9417 53.7778C83.9417 54.8465 84.0235 55.8974 84.1814 56.9243L88.135 56.3163C88.0079 55.4899 87.9417 54.6422 87.9417 53.7778H83.9417ZM86.6108 54.6722C85.5814 54.433 84.5104 54.307 83.4125 54.307V58.307C84.2035 58.307 84.9708 58.3977 85.7056 58.5684L86.6108 54.6722ZM83.4125 54.307C75.6342 54.307 69.3286 60.6126 69.3286 68.3909H73.3286C73.3286 62.8217 77.8433 58.307 83.4125 58.307V54.307ZM69.3286 68.3909C69.3286 76.1692 75.6342 82.4748 83.4125 82.4748V78.4748C77.8433 78.4748 73.3286 73.9601 73.3286 68.3909H69.3286ZM83.4125 82.4748C83.4673 82.4748 83.5219 82.4745 83.5765 82.4739L83.5307 78.4741C83.4913 78.4746 83.4519 78.4748 83.4125 78.4748V82.4748ZM85.125 81.7113L85.1256 81.7105L81.9816 79.2375L81.981 79.2383L85.125 81.7113ZM125.987 78.4748H83.553V82.4748H125.987V78.4748ZM123.987 80.474V80.4748H127.987V80.474H123.987Z" fill="url(#paint3_linear_3_1614)" mask="url(#path-3-inside-2_3_1614)"/>
</g>
<g filter="url(#filter2_bdd_3_1614)">
<path d="M57.3098 87.8295C58.2495 86.6233 60.1817 87.211 60.2906 88.7362L60.7469 95.1262C60.9531 98.015 58.1984 100.213 55.4277 99.3698C52.657 98.527 51.5927 95.1677 53.3725 92.8831L57.3098 87.8295Z" fill="url(#paint4_linear_3_1614)" stroke="url(#paint5_linear_3_1614)" stroke-width="2"/>
<path d="M79.6716 87.8295C80.6113 86.6233 82.5435 87.211 82.6524 88.7362L83.1087 95.1262C83.315 98.015 80.5602 100.213 77.7895 99.3698C75.0188 98.527 73.9545 95.1677 75.7344 92.8831L79.6716 87.8295Z" fill="url(#paint6_linear_3_1614)" stroke="url(#paint7_linear_3_1614)" stroke-width="2"/>
<path d="M102.034 87.8295C102.974 86.6233 104.906 87.211 105.015 88.7362L105.471 95.1262C105.677 98.015 102.923 100.213 100.152 99.3698C97.3811 98.527 96.3168 95.1677 98.0967 92.8831L102.034 87.8295Z" fill="url(#paint8_linear_3_1614)" stroke="url(#paint9_linear_3_1614)" stroke-width="2"/>
</g>
<g filter="url(#filter3_bdd_3_1614)">
<path d="M63.2102 105.53C64.1499 104.324 66.082 104.912 66.1909 106.437L66.6472 112.827C66.8535 115.716 64.0988 117.913 61.3281 117.071C58.5574 116.228 57.493 112.868 59.2729 110.584L63.2102 105.53Z" fill="url(#paint10_linear_3_1614)" stroke="url(#paint11_linear_3_1614)" stroke-width="2"/>
<path d="M82.1033 105.53C83.043 104.324 84.9751 104.912 85.084 106.437L85.5403 112.827C85.7466 115.716 82.9919 117.913 80.2212 117.071C77.4505 116.228 76.3861 112.868 78.166 110.584L82.1033 105.53Z" fill="url(#paint12_linear_3_1614)" stroke="url(#paint13_linear_3_1614)" stroke-width="2"/>
</g>
<defs>
<filter id="filter0_bd_3_1614" x="-51" y="0.230469" width="192.547" height="162.605" filterUnits="userSpaceOnUse" color-interpolation-filters="sRGB">
<feFlood flood-opacity="0" result="BackgroundImageFix"/>
<feGaussianBlur in="BackgroundImageFix" stdDeviation="7"/>
<feComposite in2="SourceAlpha" operator="in" result="effect1_backgroundBlur_3_1614"/>
<feColorMatrix in="SourceAlpha" type="matrix" values="0 0 0 0 0 0 0 0 0 0 0 0 0 0 0 0 0 0 127 0" result="hardAlpha"/>
<feOffset dx="-21" dy="15"/>
<feGaussianBlur stdDeviation="25"/>
<feComposite in2="hardAlpha" operator="out"/>
<feColorMatrix type="matrix" values="0 0 0 0 0.113725 0 0 0 0 0.14902 0 0 0 0 0.27451 0 0 0 0.25 0"/>
<feBlend mode="normal" in2="effect1_backgroundBlur_3_1614" result="effect2_dropShadow_3_1614"/>
<feBlend mode="normal" in="SourceGraphic" in2="effect2_dropShadow_3_1614" result="shape"/>
</filter>
<filter id="filter1_bd_3_1614" x="0.328613" y="0.230469" width="166.883" height="145.244" filterUnits="userSpaceOnUse" color-interpolation-filters="sRGB">
<feFlood flood-opacity="0" result="BackgroundImageFix"/>
<feGaussianBlur in="BackgroundImageFix" stdDeviation="7"/>
<feComposite in2="SourceAlpha" operator="in" result="effect1_backgroundBlur_3_1614"/>
<feColorMatrix in="SourceAlpha" type="matrix" values="0 0 0 0 0 0 0 0 0 0 0 0 0 0 0 0 0 0 127 0" result="hardAlpha"/>
<feOffset dx="-21" dy="15"/>
<feGaussianBlur stdDeviation="25"/>
<feComposite in2="hardAlpha" operator="out"/>
<feColorMatrix type="matrix" values="0 0 0 0 0.113438 0 0 0 0 0.148981 0 0 0 0 0.275 0 0 0 0.25 0"/>
<feBlend mode="normal" in2="effect1_backgroundBlur_3_1614" result="effect2_dropShadow_3_1614"/>
<feBlend mode="normal" in="SourceGraphic" in2="effect2_dropShadow_3_1614" result="shape"/>
</filter>
<filter id="filter2_bdd_3_1614" x="-19.502" y="38.1826" width="166.984" height="127.37" filterUnits="userSpaceOnUse" color-interpolation-filters="sRGB">
<feFlood flood-opacity="0" result="BackgroundImageFix"/>
<feGaussianBlur in="BackgroundImageFix" stdDeviation="7"/>
<feComposite in2="SourceAlpha" operator="in" result="effect1_backgroundBlur_3_1614"/>
<feColorMatrix in="SourceAlpha" type="matrix" values="0 0 0 0 0 0 0 0 0 0 0 0 0 0 0 0 0 0 127 0" result="hardAlpha"/>
<feOffset dx="-21" dy="15"/>
<feGaussianBlur stdDeviation="25"/>
<feComposite in2="hardAlpha" operator="out"/>
<feColorMatrix type="matrix" values="0 0 0 0 0.113438 0 0 0 0 0.148981 0 0 0 0 0.275 0 0 0 0.25 0"/>
<feBlend mode="normal" in2="effect1_backgroundBlur_3_1614" result="effect2_dropShadow_3_1614"/>
<feColorMatrix in="SourceAlpha" type="matrix" values="0 0 0 0 0 0 0 0 0 0 0 0 0 0 0 0 0 0 127 0" result="hardAlpha"/>
<feOffset dy="-7"/>
<feGaussianBlur stdDeviation="20.5"/>
<feComposite in2="hardAlpha" operator="out"/>
<feColorMatrix type="matrix" values="0 0 0 0 0.1375 0 0 0 0 0.74125 0 0 0 0 1 0 0 0 0.3 0"/>
<feBlend mode="normal" in2="effect2_dropShadow_3_1614" result="effect3_dropShadow_3_1614"/>
<feBlend mode="normal" in="SourceGraphic" in2="effect3_dropShadow_3_1614" result="shape"/>
</filter>
<filter id="filter3_bdd_3_1614" x="-13.6016" y="55.8833" width="141.153" height="127.37" filterUnits="userSpaceOnUse" color-interpolation-filters="sRGB">
<feFlood flood-opacity="0" result="BackgroundImageFix"/>
<feGaussianBlur in="BackgroundImageFix" stdDeviation="7"/>
<feComposite in2="SourceAlpha" operator="in" result="effect1_backgroundBlur_3_1614"/>
<feColorMatrix in="SourceAlpha" type="matrix" values="0 0 0 0 0 0 0 0 0 0 0 0 0 0 0 0 0 0 127 0" result="hardAlpha"/>
<feOffset dx="-21" dy="15"/>
<feGaussianBlur stdDeviation="25"/>
<feComposite in2="hardAlpha" operator="out"/>
<feColorMatrix type="matrix" values="0 0 0 0 0.113438 0 0 0 0 0.148981 0 0 0 0 0.275 0 0 0 0.25 0"/>
<feBlend mode="normal" in2="effect1_backgroundBlur_3_1614" result="effect2_dropShadow_3_1614"/>
<feColorMatrix in="SourceAlpha" type="matrix" values="0 0 0 0 0 0 0 0 0 0 0 0 0 0 0 0 0 0 127 0" result="hardAlpha"/>
<feOffset dy="-7"/>
<feGaussianBlur stdDeviation="20.5"/>
<feComposite in2="hardAlpha" operator="out"/>
<feColorMatrix type="matrix" values="0 0 0 0 0.1375 0 0 0 0 0.74125 0 0 0 0 1 0 0 0 0.3 0"/>
<feBlend mode="normal" in2="effect2_dropShadow_3_1614" result="effect3_dropShadow_3_1614"/>
<feBlend mode="normal" in="SourceGraphic" in2="effect3_dropShadow_3_1614" result="shape"/>
</filter>
<linearGradient id="paint0_linear_3_1614" x1="66.2737" y1="15.2045" x2="66.2737" y2="106.585" gradientUnits="userSpaceOnUse">
<stop stop-color="white"/>
<stop offset="1" stop-color="white" stop-opacity="0"/>
</linearGradient>
<linearGradient id="paint1_linear_3_1614" x1="66.2737" y1="35.2305" x2="66.2737" y2="97.836" gradientUnits="userSpaceOnUse">
<stop stop-color="white"/>
<stop offset="1" stop-color="white" stop-opacity="0"/>
</linearGradient>
<linearGradient id="paint2_linear_3_1614" x1="107.881" y1="36.5915" x2="107.881" y2="85.5871" gradientUnits="userSpaceOnUse">
<stop stop-color="white"/>
<stop offset="1" stop-color="white" stop-opacity="0"/>
</linearGradient>
<linearGradient id="paint3_linear_3_1614" x1="104.77" y1="35.2305" x2="104.77" y2="80.4748" gradientUnits="userSpaceOnUse">
<stop stop-color="white"/>
<stop offset="1" stop-color="white" stop-opacity="0"/>
</linearGradient>
<linearGradient id="paint4_linear_3_1614" x1="60.7929" y1="81.7316" x2="55.1367" y2="100.327" gradientUnits="userSpaceOnUse">
<stop stop-color="#138EFF"/>
<stop offset="1" stop-color="#00E0FF"/>
</linearGradient>
<linearGradient id="paint5_linear_3_1614" x1="60.7929" y1="81.7316" x2="55.1367" y2="100.327" gradientUnits="userSpaceOnUse">
<stop stop-color="white"/>
<stop offset="1" stop-color="white" stop-opacity="0"/>
</linearGradient>
<linearGradient id="paint6_linear_3_1614" x1="83.1547" y1="81.7316" x2="77.4985" y2="100.327" gradientUnits="userSpaceOnUse">
<stop stop-color="#138EFF"/>
<stop offset="1" stop-color="#00E0FF"/>
</linearGradient>
<linearGradient id="paint7_linear_3_1614" x1="83.1547" y1="81.7316" x2="77.4985" y2="100.327" gradientUnits="userSpaceOnUse">
<stop stop-color="white"/>
<stop offset="1" stop-color="white" stop-opacity="0"/>
</linearGradient>
<linearGradient id="paint8_linear_3_1614" x1="105.517" y1="81.7316" x2="99.8608" y2="100.327" gradientUnits="userSpaceOnUse">
<stop stop-color="#138EFF"/>
<stop offset="1" stop-color="#00E0FF"/>
</linearGradient>
<linearGradient id="paint9_linear_3_1614" x1="105.517" y1="81.7316" x2="99.8608" y2="100.327" gradientUnits="userSpaceOnUse">
<stop stop-color="white"/>
<stop offset="1" stop-color="white" stop-opacity="0"/>
</linearGradient>
<linearGradient id="paint10_linear_3_1614" x1="66.6933" y1="99.4323" x2="61.0371" y2="118.027" gradientUnits="userSpaceOnUse">
<stop stop-color="#138EFF"/>
<stop offset="1" stop-color="#00E0FF"/>
</linearGradient>
<linearGradient id="paint11_linear_3_1614" x1="66.6933" y1="99.4323" x2="61.0371" y2="118.027" gradientUnits="userSpaceOnUse">
<stop stop-color="white"/>
<stop offset="1" stop-color="white" stop-opacity="0"/>
</linearGradient>
<linearGradient id="paint12_linear_3_1614" x1="85.5864" y1="99.4323" x2="79.9302" y2="118.027" gradientUnits="userSpaceOnUse">
<stop stop-color="#138EFF"/>
<stop offset="1" stop-color="#00E0FF"/>
</linearGradient>
<linearGradient id="paint13_linear_3_1614" x1="85.5864" y1="99.4323" x2="79.9302" y2="118.027" gradientUnits="userSpaceOnUse">
<stop stop-color="white"/>
<stop offset="1" stop-color="white" stop-opacity="0"/>
</linearGradient>
</defs>
</svg>
