<svg width="185" height="171" viewBox="0 0 185 171" fill="none" xmlns="http://www.w3.org/2000/svg">
<g filter="url(#filter0_f_3_1616)">
<circle cx="91.1926" cy="49.7942" r="29.7942" fill="#FFC701" fill-opacity="0.5"/>
</g>
<circle cx="91.1928" cy="50.771" r="27.8173" fill="url(#paint0_linear_3_1616)" stroke="url(#paint1_linear_3_1616)" stroke-width="2"/>
<mask id="mask0_3_1616" style="mask-type:alpha" maskUnits="userSpaceOnUse" x="62" y="38" width="59" height="42">
<path d="M120.01 50.7711C120.01 66.6864 107.108 79.5884 91.1928 79.5884C75.2775 79.5884 62.3755 66.6864 62.3755 50.7711C62.3755 34.8557 73.0795 38.5603 88.9949 38.5603C104.91 38.5603 120.01 34.8557 120.01 50.7711Z" fill="url(#paint2_linear_3_1616)"/>
</mask>
<g mask="url(#mask0_3_1616)">
<g filter="url(#filter1_f_3_1616)">
<path fill-rule="evenodd" clip-rule="evenodd" d="M135.152 103.521C135.152 115.121 125.748 124.524 114.149 124.524C114.068 124.524 113.986 124.523 113.905 124.523V124.524H40.1521L40.1528 124.523C40.0712 124.524 39.9895 124.524 39.9077 124.524C28.3084 124.524 18.9053 115.121 18.9053 103.522C18.9053 91.9226 28.3084 82.5195 39.9077 82.5195C49.9059 82.5195 58.2724 89.5059 60.3916 98.8631L67.5042 89.8455L89.7277 82.519H113.905V82.5204C113.986 82.5195 114.068 82.519 114.149 82.519C125.748 82.519 135.152 91.9222 135.152 103.521Z" fill="#E18700"/>
</g>
</g>
<g filter="url(#filter2_bd_3_1616)">
<mask id="path-5-inside-1_3_1616" fill="white">
<path fill-rule="evenodd" clip-rule="evenodd" d="M139.822 105.158C139.881 105.159 139.94 105.159 139.999 105.159C148.381 105.159 155.177 98.3635 155.177 89.9808C155.177 81.598 148.381 74.8025 139.999 74.8025C139.94 74.8025 139.881 74.8028 139.822 74.8035V74.8025H135.901C136.043 73.7637 136.116 72.7031 136.116 71.6255C136.116 58.759 125.685 48.3286 112.819 48.3286C99.9524 48.3286 89.522 58.759 89.522 71.6255C89.522 72.8396 89.6149 74.032 89.7939 75.196C88.686 74.9386 87.5315 74.8025 86.3453 74.8025C77.9625 74.8025 71.167 81.598 71.167 89.9808C71.167 98.3635 77.9625 105.159 86.3453 105.159C86.4043 105.159 86.4633 105.159 86.5222 105.158L86.5214 105.159H139.822V105.158Z"/>
</mask>
<path fill-rule="evenodd" clip-rule="evenodd" d="M139.822 105.158C139.881 105.159 139.94 105.159 139.999 105.159C148.381 105.159 155.177 98.3635 155.177 89.9808C155.177 81.598 148.381 74.8025 139.999 74.8025C139.94 74.8025 139.881 74.8028 139.822 74.8035V74.8025H135.901C136.043 73.7637 136.116 72.7031 136.116 71.6255C136.116 58.759 125.685 48.3286 112.819 48.3286C99.9524 48.3286 89.522 58.759 89.522 71.6255C89.522 72.8396 89.6149 74.032 89.7939 75.196C88.686 74.9386 87.5315 74.8025 86.3453 74.8025C77.9625 74.8025 71.167 81.598 71.167 89.9808C71.167 98.3635 77.9625 105.159 86.3453 105.159C86.4043 105.159 86.4633 105.159 86.5222 105.158L86.5214 105.159H139.822V105.158Z" fill="url(#paint3_linear_3_1616)" shape-rendering="crispEdges"/>
<path d="M139.822 105.158L139.845 103.158C139.31 103.152 138.796 103.36 138.416 103.736C138.036 104.111 137.822 104.624 137.822 105.158H139.822ZM139.822 74.8035H137.822C137.822 75.3379 138.036 75.8501 138.416 76.2258C138.796 76.6015 139.31 76.8095 139.845 76.8034L139.822 74.8035ZM139.822 74.8025H141.822C141.822 73.6979 140.926 72.8025 139.822 72.8025V74.8025ZM135.901 74.8025L133.919 74.5323C133.841 75.1045 134.014 75.6826 134.394 76.1177C134.774 76.5528 135.323 76.8025 135.901 76.8025V74.8025ZM89.7939 75.196L89.3413 77.1441C89.9879 77.2943 90.6668 77.114 91.1536 76.6627C91.6404 76.2114 91.8716 75.548 91.7707 74.892L89.7939 75.196ZM86.5222 105.158L88.0926 106.397C88.5697 105.792 88.6569 104.966 88.3168 104.275C87.9767 103.584 87.2698 103.149 86.4994 103.158L86.5222 105.158ZM86.5214 105.159L84.9511 103.92C84.4765 104.522 84.3875 105.342 84.7218 106.032C85.0562 106.721 85.7551 107.159 86.5214 107.159V105.159ZM139.822 105.159V107.159C140.926 107.159 141.822 106.264 141.822 105.159H139.822ZM139.799 107.158C139.865 107.159 139.932 107.159 139.999 107.159V103.159C139.947 103.159 139.896 103.159 139.845 103.158L139.799 107.158ZM139.999 107.159C149.486 107.159 157.177 99.4681 157.177 89.9808H153.177C153.177 97.2589 147.277 103.159 139.999 103.159V107.159ZM157.177 89.9808C157.177 80.4935 149.486 72.8025 139.999 72.8025V76.8025C147.277 76.8025 153.177 82.7026 153.177 89.9808H157.177ZM139.999 72.8025C139.932 72.8025 139.865 72.8029 139.799 72.8036L139.845 76.8034C139.896 76.8028 139.947 76.8025 139.999 76.8025V72.8025ZM137.822 74.8025V74.8035H141.822V74.8025H137.822ZM135.901 76.8025H139.822V72.8025H135.901V76.8025ZM137.883 75.0727C138.036 73.9446 138.116 72.7938 138.116 71.6255H134.116C134.116 72.6125 134.049 73.5828 133.919 74.5323L137.883 75.0727ZM138.116 71.6255C138.116 57.6544 126.79 46.3286 112.819 46.3286V50.3286C124.581 50.3286 134.116 59.8635 134.116 71.6255H138.116ZM112.819 46.3286C98.8478 46.3286 87.522 57.6544 87.522 71.6255H91.522C91.522 59.8635 101.057 50.3286 112.819 50.3286V46.3286ZM87.522 71.6255C87.522 72.9417 87.6227 74.2358 87.8172 75.5L91.7707 74.892C91.6071 73.8282 91.522 72.7374 91.522 71.6255H87.522ZM90.2465 73.2479C88.9912 72.9562 87.6849 72.8025 86.3453 72.8025V76.8025C87.3781 76.8025 88.3807 76.9209 89.3413 77.1441L90.2465 73.2479ZM86.3453 72.8025C76.858 72.8025 69.167 80.4935 69.167 89.9808H73.167C73.167 82.7026 79.0671 76.8025 86.3453 76.8025V72.8025ZM69.167 89.9808C69.167 99.4681 76.858 107.159 86.3453 107.159V103.159C79.0671 103.159 73.167 97.2589 73.167 89.9808H69.167ZM86.3453 107.159C86.412 107.159 86.4786 107.159 86.545 107.158L86.4994 103.158C86.4481 103.159 86.3967 103.159 86.3453 103.159V107.159ZM88.0918 106.398L88.0926 106.397L84.9519 103.919L84.9511 103.92L88.0918 106.398ZM139.822 103.159H86.5214V107.159H139.822V103.159ZM137.822 105.158V105.159H141.822V105.158H137.822Z" fill="url(#paint4_linear_3_1616)" mask="url(#path-5-inside-1_3_1616)"/>
</g>
<defs>
<filter id="filter0_f_3_1616" x="17.3984" y="-24" width="147.588" height="147.588" filterUnits="userSpaceOnUse" color-interpolation-filters="sRGB">
<feFlood flood-opacity="0" result="BackgroundImageFix"/>
<feBlend mode="normal" in="SourceGraphic" in2="BackgroundImageFix" result="shape"/>
<feGaussianBlur stdDeviation="22" result="effect1_foregroundBlur_3_1616"/>
</filter>
<filter id="filter1_f_3_1616" x="4.90527" y="68.519" width="144.246" height="70.0054" filterUnits="userSpaceOnUse" color-interpolation-filters="sRGB">
<feFlood flood-opacity="0" result="BackgroundImageFix"/>
<feBlend mode="normal" in="SourceGraphic" in2="BackgroundImageFix" result="shape"/>
<feGaussianBlur stdDeviation="7" result="effect1_foregroundBlur_3_1616"/>
</filter>
<filter id="filter2_bd_3_1616" x="0.166992" y="13.3286" width="184.01" height="156.831" filterUnits="userSpaceOnUse" color-interpolation-filters="sRGB">
<feFlood flood-opacity="0" result="BackgroundImageFix"/>
<feGaussianBlur in="BackgroundImageFix" stdDeviation="7"/>
<feComposite in2="SourceAlpha" operator="in" result="effect1_backgroundBlur_3_1616"/>
<feColorMatrix in="SourceAlpha" type="matrix" values="0 0 0 0 0 0 0 0 0 0 0 0 0 0 0 0 0 0 127 0" result="hardAlpha"/>
<feOffset dx="-21" dy="15"/>
<feGaussianBlur stdDeviation="25"/>
<feComposite in2="hardAlpha" operator="out"/>
<feColorMatrix type="matrix" values="0 0 0 0 0.113438 0 0 0 0 0.148981 0 0 0 0 0.275 0 0 0 0.25 0"/>
<feBlend mode="normal" in2="effect1_backgroundBlur_3_1616" result="effect2_dropShadow_3_1616"/>
<feBlend mode="normal" in="SourceGraphic" in2="effect2_dropShadow_3_1616" result="shape"/>
</filter>
<linearGradient id="paint0_linear_3_1616" x1="91.1928" y1="21.9536" x2="91.1928" y2="79.5883" gradientUnits="userSpaceOnUse">
<stop stop-color="#FFE600"/>
<stop offset="1" stop-color="#FF7A00"/>
</linearGradient>
<linearGradient id="paint1_linear_3_1616" x1="91.1928" y1="21.9536" x2="91.1928" y2="79.5883" gradientUnits="userSpaceOnUse">
<stop stop-color="white"/>
<stop offset="1" stop-color="white" stop-opacity="0"/>
</linearGradient>
<linearGradient id="paint2_linear_3_1616" x1="91.1928" y1="21.9538" x2="91.1928" y2="79.5884" gradientUnits="userSpaceOnUse">
<stop stop-color="#FFD600"/>
<stop offset="1" stop-color="#FF7A00"/>
</linearGradient>
<linearGradient id="paint3_linear_3_1616" x1="117.079" y1="50.0381" x2="117.079" y2="111.58" gradientUnits="userSpaceOnUse">
<stop stop-color="white"/>
<stop offset="1" stop-color="white" stop-opacity="0"/>
</linearGradient>
<linearGradient id="paint4_linear_3_1616" x1="113.172" y1="48.3286" x2="113.172" y2="105.159" gradientUnits="userSpaceOnUse">
<stop stop-color="white"/>
<stop offset="1" stop-color="white" stop-opacity="0"/>
</linearGradient>
</defs>
</svg>
