<svg width="168" height="206" viewBox="0 0 168 206" fill="none" xmlns="http://www.w3.org/2000/svg">
<g filter="url(#filter0_bdd_3_1609)">
<mask id="path-1-inside-1_3_1609" fill="white">
<path fill-rule="evenodd" clip-rule="evenodd" d="M76.0934 38.102C76.9595 37.9935 77.4694 39.0129 76.9727 39.7306C72.6758 45.9399 71.8557 54.2557 75.5509 61.4396C80.3946 70.8564 91.3324 75.0928 101.07 71.8099C101.898 71.5308 102.737 72.3042 102.392 73.1066C100.16 78.2944 96.1812 82.7676 90.7671 85.5525C78.3828 91.9225 63.1795 87.0471 56.8094 74.6629C50.4394 62.2787 55.3148 47.0753 67.699 40.7052C70.4032 39.3143 73.2418 38.4595 76.0934 38.102Z"/>
</mask>
<path fill-rule="evenodd" clip-rule="evenodd" d="M76.0934 38.102C76.9595 37.9935 77.4694 39.0129 76.9727 39.7306C72.6758 45.9399 71.8557 54.2557 75.5509 61.4396C80.3946 70.8564 91.3324 75.0928 101.07 71.8099C101.898 71.5308 102.737 72.3042 102.392 73.1066C100.16 78.2944 96.1812 82.7676 90.7671 85.5525C78.3828 91.9225 63.1795 87.0471 56.8094 74.6629C50.4394 62.2787 55.3148 47.0753 67.699 40.7052C70.4032 39.3143 73.2418 38.4595 76.0934 38.102Z" fill="url(#paint0_linear_3_1609)"/>
<path d="M101.07 71.8099L100.432 69.9147L101.07 71.8099ZM102.392 73.1066L104.229 73.8969L102.392 73.1066ZM76.0934 38.102L76.3422 40.0865L76.0934 38.102ZM77.3294 60.5248C73.9852 54.0233 74.7238 46.4951 78.6173 40.8686L75.3281 38.5925C70.6279 45.3847 69.7263 54.4882 73.7724 62.3544L77.3294 60.5248ZM100.432 69.9147C91.6168 72.8863 81.7139 69.0488 77.3294 60.5248L73.7724 62.3544C79.0753 72.664 91.048 77.2993 101.709 73.7051L100.432 69.9147ZM100.555 72.3163C98.4997 77.0934 94.8386 81.2091 89.8523 83.774L91.6819 87.331C97.5239 84.326 101.821 79.4955 104.229 73.8969L100.555 72.3163ZM89.8523 83.774C78.4503 89.6388 64.4528 85.15 58.5879 73.7481L55.0309 75.5777C61.9062 88.9442 78.3154 94.2063 91.6819 87.331L89.8523 83.774ZM58.5879 73.7481C52.7231 62.3461 57.2119 48.3486 68.6138 42.4837L66.7842 38.9267C53.4177 45.802 48.1556 62.2112 55.0309 75.5777L58.5879 73.7481ZM68.6138 42.4837C71.1067 41.2015 73.7195 40.4153 76.3422 40.0865L75.8447 36.1176C72.764 36.5038 69.6996 37.4271 66.7842 38.9267L68.6138 42.4837ZM101.709 73.7051C101.367 73.8206 101.015 73.7149 100.787 73.4968C100.535 73.2547 100.356 72.7783 100.555 72.3163L104.229 73.8969C104.773 72.6325 104.347 71.3683 103.555 70.6086C102.787 69.873 101.602 69.5201 100.432 69.9147L101.709 73.7051ZM78.6173 40.8686C79.3196 39.8538 79.3088 38.6184 78.8151 37.6773C78.3053 36.7056 77.2095 35.9465 75.8447 36.1176L76.3422 40.0865C75.8434 40.149 75.4355 39.8454 75.273 39.5356C75.1266 39.2565 75.1225 38.8896 75.3281 38.5925L78.6173 40.8686Z" fill="url(#paint1_linear_3_1609)" mask="url(#path-1-inside-1_3_1609)"/>
</g>
<mask id="mask0_3_1609" style="mask-type:alpha" maskUnits="userSpaceOnUse" x="64" y="70" width="47" height="34">
<path d="M110.214 80.2353C110.214 92.906 99.9423 103.178 87.2715 103.178C74.6008 103.178 64.3291 92.906 64.3291 80.2353C64.3291 67.5645 72.8509 70.5139 85.5217 70.5139C98.1924 70.5139 110.214 67.5645 110.214 80.2353Z" fill="url(#paint2_linear_3_1609)"/>
</mask>
<g mask="url(#mask0_3_1609)">
<g filter="url(#filter1_f_3_1609)">
<path fill-rule="evenodd" clip-rule="evenodd" d="M122.269 122.231C122.269 131.466 114.782 138.952 105.548 138.952C105.483 138.952 105.418 138.952 105.353 138.951V138.952H46.6363L46.6372 138.951C46.5722 138.952 46.5071 138.952 46.4419 138.952C37.2073 138.952 29.7212 131.466 29.7212 122.231C29.7212 112.997 37.2073 105.511 46.4419 105.511C54.4019 105.511 61.0627 111.073 62.7499 118.523L68.4121 111.344L86.105 105.511H105.353V105.512C105.418 105.511 105.483 105.511 105.548 105.511C114.782 105.511 122.269 112.997 122.269 122.231Z" fill="#E18700"/>
</g>
</g>
<g filter="url(#filter2_bd_3_1609)">
<mask id="path-5-inside-2_3_1609" fill="white">
<path fill-rule="evenodd" clip-rule="evenodd" d="M95.6321 140.896C95.6968 140.896 95.7616 140.897 95.8265 140.897C105.061 140.897 112.547 133.41 112.547 124.176C112.547 114.941 105.061 107.455 95.8265 107.455C95.7616 107.455 95.6968 107.455 95.6321 107.456V107.455H91.3125C91.4686 106.311 91.5492 105.143 91.5492 103.955C91.5492 89.7814 80.0588 78.291 65.8848 78.291C51.7107 78.291 40.2204 89.7814 40.2204 103.955C40.2204 105.293 40.3227 106.606 40.5199 107.889C39.2994 107.605 38.0276 107.455 36.7207 107.455C27.4861 107.455 20 114.941 20 124.176C20 133.41 27.4861 140.897 36.7207 140.897C36.7859 140.897 36.851 140.896 36.916 140.895L36.9151 140.897H95.6321V140.896Z"/>
</mask>
<path fill-rule="evenodd" clip-rule="evenodd" d="M95.6321 140.896C95.6968 140.896 95.7616 140.897 95.8265 140.897C105.061 140.897 112.547 133.41 112.547 124.176C112.547 114.941 105.061 107.455 95.8265 107.455C95.7616 107.455 95.6968 107.455 95.6321 107.456V107.455H91.3125C91.4686 106.311 91.5492 105.143 91.5492 103.955C91.5492 89.7814 80.0588 78.291 65.8848 78.291C51.7107 78.291 40.2204 89.7814 40.2204 103.955C40.2204 105.293 40.3227 106.606 40.5199 107.889C39.2994 107.605 38.0276 107.455 36.7207 107.455C27.4861 107.455 20 114.941 20 124.176C20 133.41 27.4861 140.897 36.7207 140.897C36.7859 140.897 36.851 140.896 36.916 140.895L36.9151 140.897H95.6321V140.896Z" fill="url(#paint3_linear_3_1609)" shape-rendering="crispEdges"/>
<path d="M95.6321 140.896L95.6549 138.896C95.1206 138.89 94.606 139.098 94.226 139.473C93.846 139.849 93.6321 140.361 93.6321 140.896H95.6321ZM95.6321 107.456H93.6321C93.6321 107.991 93.846 108.503 94.226 108.878C94.606 109.254 95.1206 109.462 95.6549 109.456L95.6321 107.456ZM95.6321 107.455H97.6321C97.6321 106.351 96.7367 105.455 95.6321 105.455V107.455ZM91.3125 107.455L89.3309 107.185C89.2529 107.757 89.426 108.335 89.8058 108.77C90.1856 109.205 90.735 109.455 91.3125 109.455V107.455ZM40.5199 107.889L40.0673 109.837C40.7138 109.987 41.3928 109.807 41.8796 109.355C42.3664 108.904 42.5976 108.241 42.4966 107.585L40.5199 107.889ZM36.916 140.895L38.4866 142.134C38.9636 141.529 39.0506 140.704 38.7105 140.012C38.3704 139.321 37.6634 138.887 36.8931 138.896L36.916 140.895ZM36.9151 140.897L35.3445 139.658C34.8701 140.26 34.7812 141.08 35.1156 141.769C35.45 142.459 36.1489 142.897 36.9151 142.897V140.897ZM95.6321 140.897V142.897C96.7367 142.897 97.6321 142.001 97.6321 140.897H95.6321ZM95.6094 142.895C95.6817 142.896 95.754 142.897 95.8265 142.897V138.897C95.7692 138.897 95.712 138.896 95.6549 138.896L95.6094 142.895ZM95.8265 142.897C106.166 142.897 114.547 134.515 114.547 124.176H110.547C110.547 132.306 103.957 138.897 95.8265 138.897V142.897ZM114.547 124.176C114.547 113.837 106.166 105.455 95.8265 105.455V109.455C103.957 109.455 110.547 116.046 110.547 124.176H114.547ZM95.8265 105.455C95.754 105.455 95.6817 105.456 95.6094 105.456L95.6549 109.456C95.712 109.455 95.7692 109.455 95.8265 109.455V105.455ZM93.6321 107.455V107.456H97.6321V107.455H93.6321ZM91.3125 109.455H95.6321V105.455H91.3125V109.455ZM93.2942 107.725C93.4624 106.492 93.5492 105.233 93.5492 103.955H89.5492C89.5492 105.052 89.4747 106.13 89.3309 107.185L93.2942 107.725ZM93.5492 103.955C93.5492 88.6768 81.1634 76.291 65.8848 76.291V80.291C78.9543 80.291 89.5492 90.8859 89.5492 103.955H93.5492ZM65.8848 76.291C50.6062 76.291 38.2204 88.6768 38.2204 103.955H42.2204C42.2204 90.8859 52.8153 80.291 65.8848 80.291V76.291ZM38.2204 103.955C38.2204 105.395 38.3305 106.81 38.5431 108.193L42.4966 107.585C42.3149 106.403 42.2204 105.191 42.2204 103.955H38.2204ZM40.9725 105.941C39.6046 105.623 38.181 105.455 36.7207 105.455V109.455C37.8741 109.455 38.9941 109.587 40.0673 109.837L40.9725 105.941ZM36.7207 105.455C26.3816 105.455 18 113.837 18 124.176H22C22 116.046 28.5907 109.455 36.7207 109.455V105.455ZM18 124.176C18 134.515 26.3816 142.897 36.7207 142.897V138.897C28.5907 138.897 22 132.306 22 124.176H18ZM36.7207 142.897C36.7936 142.897 36.8663 142.896 36.9389 142.895L36.8931 138.896C36.8357 138.896 36.7783 138.897 36.7207 138.897V142.897ZM38.4857 142.135L38.4866 142.134L35.3454 139.657L35.3445 139.658L38.4857 142.135ZM95.6321 138.897H36.9151V142.897H95.6321V138.897ZM93.6321 140.896V140.897H97.6321V140.896H93.6321Z" fill="url(#paint4_linear_3_1609)" mask="url(#path-5-inside-2_3_1609)"/>
</g>
<g filter="url(#filter3_bd_3_1609)">
<mask id="path-7-inside-3_3_1609" fill="white">
<path fill-rule="evenodd" clip-rule="evenodd" d="M125.987 123.535C126.034 123.535 126.081 123.535 126.128 123.535C132.801 123.535 138.212 118.125 138.212 111.452C138.212 104.778 132.801 99.3676 126.128 99.3676C126.081 99.3676 126.034 99.3679 125.987 99.3684V99.3676H122.865C122.978 98.5406 123.036 97.6963 123.036 96.8384C123.036 86.595 114.733 78.291 104.489 78.291C94.2457 78.291 85.9417 86.595 85.9417 96.8384C85.9417 97.8049 86.0157 98.7542 86.1582 99.6809C85.2761 99.476 84.357 99.3676 83.4125 99.3676C76.7388 99.3676 71.3286 104.778 71.3286 111.452C71.3286 118.125 76.7388 123.535 83.4125 123.535C83.4596 123.535 83.5067 123.535 83.5536 123.535L83.553 123.535H125.987V123.535Z"/>
</mask>
<path fill-rule="evenodd" clip-rule="evenodd" d="M125.987 123.535C126.034 123.535 126.081 123.535 126.128 123.535C132.801 123.535 138.212 118.125 138.212 111.452C138.212 104.778 132.801 99.3676 126.128 99.3676C126.081 99.3676 126.034 99.3679 125.987 99.3684V99.3676H122.865C122.978 98.5406 123.036 97.6963 123.036 96.8384C123.036 86.595 114.733 78.291 104.489 78.291C94.2457 78.291 85.9417 86.595 85.9417 96.8384C85.9417 97.8049 86.0157 98.7542 86.1582 99.6809C85.2761 99.476 84.357 99.3676 83.4125 99.3676C76.7388 99.3676 71.3286 104.778 71.3286 111.452C71.3286 118.125 76.7388 123.535 83.4125 123.535C83.4596 123.535 83.5067 123.535 83.5536 123.535L83.553 123.535H125.987V123.535Z" fill="url(#paint5_linear_3_1609)" shape-rendering="crispEdges"/>
<path d="M125.987 123.535L126.01 121.535C125.476 121.529 124.961 121.737 124.581 122.112C124.201 122.488 123.987 123 123.987 123.535H125.987ZM125.987 99.3684H123.987C123.987 99.9028 124.201 100.415 124.581 100.791C124.961 101.166 125.476 101.374 126.01 101.368L125.987 99.3684ZM125.987 99.3676H127.987C127.987 98.263 127.092 97.3676 125.987 97.3676V99.3676ZM122.865 99.3676L120.884 99.0974C120.806 99.6697 120.979 100.248 121.359 100.683C121.739 101.118 122.288 101.368 122.865 101.368V99.3676ZM86.1582 99.6809L85.7056 101.629C86.3521 101.779 87.0311 101.599 87.5179 101.148C88.0047 100.696 88.2359 100.033 88.135 99.3769L86.1582 99.6809ZM83.5536 123.535L85.1249 124.772C85.6014 124.167 85.6881 123.342 85.3479 122.651C85.0076 121.96 84.3009 121.526 83.5307 121.535L83.5536 123.535ZM83.553 123.535L81.9818 122.298C81.5078 122.9 81.4192 123.719 81.7537 124.409C82.0882 125.098 82.7869 125.535 83.553 125.535V123.535ZM125.987 123.535V125.535C127.092 125.535 127.987 124.64 127.987 123.535H125.987ZM125.964 125.534C126.019 125.535 126.073 125.535 126.128 125.535V121.535C126.088 121.535 126.049 121.535 126.01 121.535L125.964 125.534ZM126.128 125.535C133.906 125.535 140.212 119.23 140.212 111.452H136.212C136.212 117.021 131.697 121.535 126.128 121.535V125.535ZM140.212 111.452C140.212 103.673 133.906 97.3676 126.128 97.3676V101.368C131.697 101.368 136.212 105.882 136.212 111.452H140.212ZM126.128 97.3676C126.073 97.3676 126.019 97.3679 125.964 97.3685L126.01 101.368C126.049 101.368 126.088 101.368 126.128 101.368V97.3676ZM123.987 99.3676V99.3684H127.987V99.3676H123.987ZM122.865 101.368H125.987V97.3676H122.865V101.368ZM124.847 99.6378C124.972 98.7215 125.036 97.7869 125.036 96.8384H121.036C121.036 97.6057 120.984 98.3597 120.884 99.0974L124.847 99.6378ZM125.036 96.8384C125.036 85.4904 115.837 76.291 104.489 76.291V80.291C113.628 80.291 121.036 87.6995 121.036 96.8384H125.036ZM104.489 76.291C93.1411 76.291 83.9417 85.4904 83.9417 96.8384H87.9417C87.9417 87.6995 95.3503 80.291 104.489 80.291V76.291ZM83.9417 96.8384C83.9417 97.9071 84.0235 98.958 84.1814 99.9849L88.135 99.3769C88.0079 98.5505 87.9417 97.7028 87.9417 96.8384H83.9417ZM86.6108 97.7328C85.5814 97.4936 84.5104 97.3676 83.4125 97.3676V101.368C84.2035 101.368 84.9708 101.458 85.7056 101.629L86.6108 97.7328ZM83.4125 97.3676C75.6342 97.3676 69.3286 103.673 69.3286 111.452H73.3286C73.3286 105.882 77.8433 101.368 83.4125 101.368V97.3676ZM69.3286 111.452C69.3286 119.23 75.6342 125.535 83.4125 125.535V121.535C77.8433 121.535 73.3286 117.021 73.3286 111.452H69.3286ZM83.4125 125.535C83.4673 125.535 83.522 125.535 83.5765 125.534L83.5307 121.535C83.4914 121.535 83.4519 121.535 83.4125 121.535V125.535ZM85.1242 124.773L85.1249 124.772L81.9824 122.297L81.9818 122.298L85.1242 124.773ZM125.987 121.535H83.553V125.535H125.987V121.535ZM123.987 123.535V123.535H127.987V123.535H123.987Z" fill="url(#paint6_linear_3_1609)" mask="url(#path-7-inside-3_3_1609)"/>
</g>
<defs>
<filter id="filter0_bdd_3_1609" x="-16.9883" y="0.0942383" width="157.46" height="153.256" filterUnits="userSpaceOnUse" color-interpolation-filters="sRGB">
<feFlood flood-opacity="0" result="BackgroundImageFix"/>
<feGaussianBlur in="BackgroundImageFix" stdDeviation="7"/>
<feComposite in2="SourceAlpha" operator="in" result="effect1_backgroundBlur_3_1609"/>
<feColorMatrix in="SourceAlpha" type="matrix" values="0 0 0 0 0 0 0 0 0 0 0 0 0 0 0 0 0 0 127 0" result="hardAlpha"/>
<feOffset dx="-21" dy="15"/>
<feGaussianBlur stdDeviation="25"/>
<feComposite in2="hardAlpha" operator="out"/>
<feColorMatrix type="matrix" values="0 0 0 0 0.113438 0 0 0 0 0.148981 0 0 0 0 0.275 0 0 0 0.25 0"/>
<feBlend mode="normal" in2="effect1_backgroundBlur_3_1609" result="effect2_dropShadow_3_1609"/>
<feColorMatrix in="SourceAlpha" type="matrix" values="0 0 0 0 0 0 0 0 0 0 0 0 0 0 0 0 0 0 127 0" result="hardAlpha"/>
<feOffset/>
<feGaussianBlur stdDeviation="19"/>
<feComposite in2="hardAlpha" operator="out"/>
<feColorMatrix type="matrix" values="0 0 0 0 0.619608 0 0 0 0 0.423529 0 0 0 0 1 0 0 0 0.4 0"/>
<feBlend mode="normal" in2="effect2_dropShadow_3_1609" result="effect3_dropShadow_3_1609"/>
<feBlend mode="normal" in="SourceGraphic" in2="effect3_dropShadow_3_1609" result="shape"/>
</filter>
<filter id="filter1_f_3_1609" x="15.7212" y="91.5107" width="120.547" height="61.4414" filterUnits="userSpaceOnUse" color-interpolation-filters="sRGB">
<feFlood flood-opacity="0" result="BackgroundImageFix"/>
<feBlend mode="normal" in="SourceGraphic" in2="BackgroundImageFix" result="shape"/>
<feGaussianBlur stdDeviation="7" result="effect1_foregroundBlur_3_1609"/>
</filter>
<filter id="filter2_bd_3_1609" x="-51" y="43.291" width="192.547" height="162.605" filterUnits="userSpaceOnUse" color-interpolation-filters="sRGB">
<feFlood flood-opacity="0" result="BackgroundImageFix"/>
<feGaussianBlur in="BackgroundImageFix" stdDeviation="7"/>
<feComposite in2="SourceAlpha" operator="in" result="effect1_backgroundBlur_3_1609"/>
<feColorMatrix in="SourceAlpha" type="matrix" values="0 0 0 0 0 0 0 0 0 0 0 0 0 0 0 0 0 0 127 0" result="hardAlpha"/>
<feOffset dx="-21" dy="15"/>
<feGaussianBlur stdDeviation="25"/>
<feComposite in2="hardAlpha" operator="out"/>
<feColorMatrix type="matrix" values="0 0 0 0 0.113725 0 0 0 0 0.14902 0 0 0 0 0.27451 0 0 0 0.25 0"/>
<feBlend mode="normal" in2="effect1_backgroundBlur_3_1609" result="effect2_dropShadow_3_1609"/>
<feBlend mode="normal" in="SourceGraphic" in2="effect2_dropShadow_3_1609" result="shape"/>
</filter>
<filter id="filter3_bd_3_1609" x="0.328613" y="43.291" width="166.883" height="145.245" filterUnits="userSpaceOnUse" color-interpolation-filters="sRGB">
<feFlood flood-opacity="0" result="BackgroundImageFix"/>
<feGaussianBlur in="BackgroundImageFix" stdDeviation="7"/>
<feComposite in2="SourceAlpha" operator="in" result="effect1_backgroundBlur_3_1609"/>
<feColorMatrix in="SourceAlpha" type="matrix" values="0 0 0 0 0 0 0 0 0 0 0 0 0 0 0 0 0 0 127 0" result="hardAlpha"/>
<feOffset dx="-21" dy="15"/>
<feGaussianBlur stdDeviation="25"/>
<feComposite in2="hardAlpha" operator="out"/>
<feColorMatrix type="matrix" values="0 0 0 0 0.113438 0 0 0 0 0.148981 0 0 0 0 0.275 0 0 0 0.25 0"/>
<feBlend mode="normal" in2="effect1_backgroundBlur_3_1609" result="effect2_dropShadow_3_1609"/>
<feBlend mode="normal" in="SourceGraphic" in2="effect2_dropShadow_3_1609" result="shape"/>
</filter>
<linearGradient id="paint0_linear_3_1609" x1="63.13" y1="43.555" x2="86.1981" y2="88.4022" gradientUnits="userSpaceOnUse">
<stop offset="0.0001" stop-color="#D4C0FF"/>
<stop offset="1" stop-color="#7E2FFF"/>
</linearGradient>
<linearGradient id="paint1_linear_3_1609" x1="65.7404" y1="18.8441" x2="80.2036" y2="77.7023" gradientUnits="userSpaceOnUse">
<stop stop-color="white"/>
<stop offset="1" stop-color="white" stop-opacity="0"/>
</linearGradient>
<linearGradient id="paint2_linear_3_1609" x1="87.2715" y1="57.2929" x2="87.2715" y2="103.178" gradientUnits="userSpaceOnUse">
<stop stop-color="#FFD600"/>
<stop offset="1" stop-color="#FF7A00"/>
</linearGradient>
<linearGradient id="paint3_linear_3_1609" x1="66.2737" y1="58.265" x2="66.2737" y2="149.646" gradientUnits="userSpaceOnUse">
<stop stop-color="white"/>
<stop offset="1" stop-color="white" stop-opacity="0"/>
</linearGradient>
<linearGradient id="paint4_linear_3_1609" x1="66.2737" y1="78.291" x2="66.2737" y2="140.897" gradientUnits="userSpaceOnUse">
<stop stop-color="white"/>
<stop offset="1" stop-color="white" stop-opacity="0"/>
</linearGradient>
<linearGradient id="paint5_linear_3_1609" x1="107.881" y1="79.652" x2="107.881" y2="128.648" gradientUnits="userSpaceOnUse">
<stop stop-color="white"/>
<stop offset="1" stop-color="white" stop-opacity="0"/>
</linearGradient>
<linearGradient id="paint6_linear_3_1609" x1="104.77" y1="78.291" x2="104.77" y2="123.535" gradientUnits="userSpaceOnUse">
<stop stop-color="white"/>
<stop offset="1" stop-color="white" stop-opacity="0"/>
</linearGradient>
</defs>
</svg>
