<svg width="213" height="191" viewBox="0 0 213 191" fill="none" xmlns="http://www.w3.org/2000/svg">
<g filter="url(#filter0_bdd_3_1612)">
<mask id="path-1-inside-1_3_1612" fill="white">
<path fill-rule="evenodd" clip-rule="evenodd" d="M141.398 38.8104C142.266 38.7177 142.771 39.7382 142.259 40.4449C136.598 48.2572 135.434 58.8971 140.149 68.0635C146.297 80.0158 160.295 85.295 172.608 80.8433C173.429 80.5463 174.271 81.3156 173.94 82.1242C171.196 88.8374 166.134 94.6425 159.179 98.2199C143.691 106.187 124.677 100.089 116.711 84.601C108.744 69.1128 114.841 50.0989 130.329 42.1322C133.892 40.3 137.64 39.2116 141.398 38.8104Z"/>
</mask>
<path fill-rule="evenodd" clip-rule="evenodd" d="M141.398 38.8104C142.266 38.7177 142.771 39.7382 142.259 40.4449C136.598 48.2572 135.434 58.8971 140.149 68.0635C146.297 80.0158 160.295 85.295 172.608 80.8433C173.429 80.5463 174.271 81.3156 173.94 82.1242C171.196 88.8374 166.134 94.6425 159.179 98.2199C143.691 106.187 124.677 100.089 116.711 84.601C108.744 69.1128 114.841 50.0989 130.329 42.1322C133.892 40.3 137.64 39.2116 141.398 38.8104Z" fill="url(#paint0_linear_3_1612)"/>
<path d="M172.608 80.8433L171.928 78.9624L172.608 80.8433ZM173.94 82.1242L172.089 81.3673L173.94 82.1242ZM142.259 40.4449L140.64 39.2713L142.259 40.4449ZM141.398 38.8104L141.611 40.7991L141.398 38.8104ZM141.928 67.1487C137.571 58.6785 138.642 48.8441 143.879 41.6185L140.64 39.2713C134.553 47.6703 133.298 59.1157 138.371 68.9783L141.928 67.1487ZM171.928 78.9624C160.549 83.0766 147.61 78.1951 141.928 67.1487L138.371 68.9783C144.985 81.8365 160.042 87.5134 173.288 82.7241L171.928 78.9624ZM172.089 81.3673C169.518 87.6559 164.78 93.0901 158.264 96.4414L160.094 99.9984C167.489 96.1948 172.873 90.0188 175.792 82.881L172.089 81.3673ZM158.264 96.4414C143.759 103.903 125.95 98.1921 118.489 83.6862L114.932 85.5158C123.404 101.986 143.624 108.47 160.094 99.9984L158.264 96.4414ZM118.489 83.6862C111.028 69.1802 116.738 51.3722 131.244 43.9107L129.415 40.3537C112.944 48.8256 106.46 69.0454 114.932 85.5158L118.489 83.6862ZM131.244 43.9107C134.584 42.193 138.094 41.1746 141.611 40.7991L141.186 36.8217C137.187 37.2487 133.2 38.4069 129.415 40.3537L131.244 43.9107ZM173.288 82.7241C172.935 82.8519 172.568 82.7446 172.334 82.5241C172.08 82.2842 171.904 81.8202 172.089 81.3673L175.792 82.881C176.307 81.6196 175.876 80.3667 175.078 79.6142C174.301 78.8811 173.103 78.5376 171.928 78.9624L173.288 82.7241ZM143.879 41.6185C144.611 40.6078 144.613 39.3622 144.125 38.4126C143.623 37.4381 142.54 36.6771 141.186 36.8217L141.611 40.7991C141.125 40.851 140.728 40.5539 140.568 40.2431C140.421 39.9573 140.419 39.5753 140.64 39.2713L143.879 41.6185Z" fill="url(#paint1_linear_3_1612)" mask="url(#path-1-inside-1_3_1612)"/>
</g>
<g filter="url(#filter1_bd_3_1612)">
<mask id="path-3-inside-2_3_1612" fill="white">
<path fill-rule="evenodd" clip-rule="evenodd" d="M140.221 125.36C140.28 125.36 140.339 125.361 140.398 125.361C148.78 125.361 155.576 118.565 155.576 110.182C155.576 101.8 148.78 95.0042 140.398 95.0042C140.339 95.0042 140.28 95.0045 140.221 95.0052V95.0042H136.3C136.441 93.9654 136.515 92.9048 136.515 91.8271C136.515 78.9606 126.084 68.5303 113.218 68.5303C100.351 68.5303 89.9209 78.9606 89.9209 91.8271C89.9209 93.0412 90.0138 94.2337 90.1928 95.3977C89.0849 95.1402 87.9304 95.0042 86.7442 95.0042C78.3615 95.0042 71.5659 101.8 71.5659 110.182C71.5659 118.565 78.3615 125.361 86.7442 125.361C86.8033 125.361 86.8623 125.36 86.9212 125.36L86.9204 125.361H140.221V125.36Z"/>
</mask>
<path fill-rule="evenodd" clip-rule="evenodd" d="M140.221 125.36C140.28 125.36 140.339 125.361 140.398 125.361C148.78 125.361 155.576 118.565 155.576 110.182C155.576 101.8 148.78 95.0042 140.398 95.0042C140.339 95.0042 140.28 95.0045 140.221 95.0052V95.0042H136.3C136.441 93.9654 136.515 92.9048 136.515 91.8271C136.515 78.9606 126.084 68.5303 113.218 68.5303C100.351 68.5303 89.9209 78.9606 89.9209 91.8271C89.9209 93.0412 90.0138 94.2337 90.1928 95.3977C89.0849 95.1402 87.9304 95.0042 86.7442 95.0042C78.3615 95.0042 71.5659 101.8 71.5659 110.182C71.5659 118.565 78.3615 125.361 86.7442 125.361C86.8033 125.361 86.8623 125.36 86.9212 125.36L86.9204 125.361H140.221V125.36Z" fill="url(#paint2_linear_3_1612)" shape-rendering="crispEdges"/>
<path d="M140.221 125.36L140.244 123.36C139.709 123.354 139.195 123.562 138.815 123.937C138.435 124.313 138.221 124.825 138.221 125.36H140.221ZM140.221 95.0052H138.221C138.221 95.5396 138.435 96.0517 138.815 96.4274C139.195 96.8031 139.709 97.0111 140.244 97.005L140.221 95.0052ZM140.221 95.0042H142.221C142.221 93.8996 141.325 93.0042 140.221 93.0042V95.0042ZM136.3 95.0042L134.318 94.7339C134.24 95.3062 134.413 95.8843 134.793 96.3194C135.173 96.7545 135.722 97.0042 136.3 97.0042V95.0042ZM90.1928 95.3977L89.7402 97.3458C90.3868 97.496 91.0658 97.3156 91.5525 96.8644C92.0393 96.4131 92.2705 95.7497 92.1696 95.0936L90.1928 95.3977ZM86.9212 125.36L88.4909 126.599C88.9685 125.994 89.0561 125.169 88.7161 124.477C88.3761 123.786 87.6689 123.351 86.8983 123.36L86.9212 125.36ZM86.9204 125.361L85.3508 124.121C84.8758 124.723 84.7864 125.543 85.1206 126.233C85.4548 126.923 86.1539 127.361 86.9204 127.361V125.361ZM140.221 125.361V127.361C141.325 127.361 142.221 126.465 142.221 125.361H140.221ZM140.198 127.36C140.264 127.36 140.331 127.361 140.398 127.361V123.361C140.346 123.361 140.295 123.36 140.244 123.36L140.198 127.36ZM140.398 127.361C149.885 127.361 157.576 119.67 157.576 110.182H153.576C153.576 117.461 147.676 123.361 140.398 123.361V127.361ZM157.576 110.182C157.576 100.695 149.885 93.0042 140.398 93.0042V97.0042C147.676 97.0042 153.576 102.904 153.576 110.182H157.576ZM140.398 93.0042C140.331 93.0042 140.264 93.0045 140.198 93.0053L140.244 97.005C140.295 97.0045 140.346 97.0042 140.398 97.0042V93.0042ZM138.221 95.0042V95.0052H142.221V95.0042H138.221ZM136.3 97.0042H140.221V93.0042H136.3V97.0042ZM138.281 95.2744C138.435 94.1463 138.515 92.9954 138.515 91.8271H134.515C134.515 92.8142 134.448 93.7845 134.318 94.7339L138.281 95.2744ZM138.515 91.8271C138.515 77.8561 127.189 66.5303 113.218 66.5303V70.5303C124.98 70.5303 134.515 80.0652 134.515 91.8271H138.515ZM113.218 66.5303C99.2467 66.5303 87.9209 77.8561 87.9209 91.8271H91.9209C91.9209 80.0652 101.456 70.5303 113.218 70.5303V66.5303ZM87.9209 91.8271C87.9209 93.1434 88.0216 94.4374 88.2161 95.7017L92.1696 95.0936C92.006 94.0299 91.9209 92.9391 91.9209 91.8271H87.9209ZM90.6454 93.4495C89.3902 93.1579 88.0839 93.0042 86.7442 93.0042V97.0042C87.777 97.0042 88.7796 97.1226 89.7402 97.3458L90.6454 93.4495ZM86.7442 93.0042C77.2569 93.0042 69.5659 100.695 69.5659 110.182H73.5659C73.5659 102.904 79.466 97.0042 86.7442 97.0042V93.0042ZM69.5659 110.182C69.5659 119.67 77.2569 127.361 86.7442 127.361V123.361C79.466 123.361 73.5659 117.461 73.5659 110.182H69.5659ZM86.7442 127.361C86.8109 127.361 86.8775 127.36 86.9442 127.36L86.8983 123.36C86.8471 123.36 86.7957 123.361 86.7442 123.361V127.361ZM88.4901 126.6L88.4909 126.599L85.3516 124.12L85.3508 124.121L88.4901 126.6ZM140.221 123.361H86.9204V127.361H140.221V123.361ZM138.221 125.36V125.361H142.221V125.36H138.221Z" fill="url(#paint3_linear_3_1612)" mask="url(#path-3-inside-2_3_1612)"/>
</g>
<defs>
<filter id="filter0_bdd_3_1612" x="42.2114" y="0.804688" width="169.803" height="165.914" filterUnits="userSpaceOnUse" color-interpolation-filters="sRGB">
<feFlood flood-opacity="0" result="BackgroundImageFix"/>
<feGaussianBlur in="BackgroundImageFix" stdDeviation="7"/>
<feComposite in2="SourceAlpha" operator="in" result="effect1_backgroundBlur_3_1612"/>
<feColorMatrix in="SourceAlpha" type="matrix" values="0 0 0 0 0 0 0 0 0 0 0 0 0 0 0 0 0 0 127 0" result="hardAlpha"/>
<feOffset dx="-21" dy="15"/>
<feGaussianBlur stdDeviation="25"/>
<feComposite in2="hardAlpha" operator="out"/>
<feColorMatrix type="matrix" values="0 0 0 0 0.113438 0 0 0 0 0.148981 0 0 0 0 0.275 0 0 0 0.25 0"/>
<feBlend mode="normal" in2="effect1_backgroundBlur_3_1612" result="effect2_dropShadow_3_1612"/>
<feColorMatrix in="SourceAlpha" type="matrix" values="0 0 0 0 0 0 0 0 0 0 0 0 0 0 0 0 0 0 127 0" result="hardAlpha"/>
<feOffset/>
<feGaussianBlur stdDeviation="19"/>
<feComposite in2="hardAlpha" operator="out"/>
<feColorMatrix type="matrix" values="0 0 0 0 0.619608 0 0 0 0 0.423529 0 0 0 0 1 0 0 0 0.4 0"/>
<feBlend mode="normal" in2="effect2_dropShadow_3_1612" result="effect3_dropShadow_3_1612"/>
<feBlend mode="normal" in="SourceGraphic" in2="effect3_dropShadow_3_1612" result="shape"/>
</filter>
<filter id="filter1_bd_3_1612" x="0.565918" y="33.5303" width="184.01" height="156.831" filterUnits="userSpaceOnUse" color-interpolation-filters="sRGB">
<feFlood flood-opacity="0" result="BackgroundImageFix"/>
<feGaussianBlur in="BackgroundImageFix" stdDeviation="7"/>
<feComposite in2="SourceAlpha" operator="in" result="effect1_backgroundBlur_3_1612"/>
<feColorMatrix in="SourceAlpha" type="matrix" values="0 0 0 0 0 0 0 0 0 0 0 0 0 0 0 0 0 0 127 0" result="hardAlpha"/>
<feOffset dx="-21" dy="15"/>
<feGaussianBlur stdDeviation="25"/>
<feComposite in2="hardAlpha" operator="out"/>
<feColorMatrix type="matrix" values="0 0 0 0 0.113438 0 0 0 0 0.148981 0 0 0 0 0.275 0 0 0 0.25 0"/>
<feBlend mode="normal" in2="effect1_backgroundBlur_3_1612" result="effect2_dropShadow_3_1612"/>
<feBlend mode="normal" in="SourceGraphic" in2="effect2_dropShadow_3_1612" result="shape"/>
</filter>
<linearGradient id="paint0_linear_3_1612" x1="124.762" y1="45.6206" x2="153.612" y2="101.708" gradientUnits="userSpaceOnUse">
<stop offset="0.0001" stop-color="#D4C0FF"/>
<stop offset="1" stop-color="#7E2FFF"/>
</linearGradient>
<linearGradient id="paint1_linear_3_1612" x1="128.128" y1="14.6644" x2="146.332" y2="88.2737" gradientUnits="userSpaceOnUse">
<stop stop-color="white"/>
<stop offset="1" stop-color="white" stop-opacity="0"/>
</linearGradient>
<linearGradient id="paint2_linear_3_1612" x1="117.478" y1="70.2398" x2="117.478" y2="131.782" gradientUnits="userSpaceOnUse">
<stop stop-color="white"/>
<stop offset="1" stop-color="white" stop-opacity="0"/>
</linearGradient>
<linearGradient id="paint3_linear_3_1612" x1="113.571" y1="68.5303" x2="113.571" y2="125.361" gradientUnits="userSpaceOnUse">
<stop stop-color="white"/>
<stop offset="1" stop-color="white" stop-opacity="0"/>
</linearGradient>
</defs>
</svg>
