<svg width="171" height="166" viewBox="0 0 171 166" fill="none" xmlns="http://www.w3.org/2000/svg">
<g filter="url(#filter0_bdd_3_1611)">
<mask id="path-1-inside-1_3_1611" fill="white">
<path fill-rule="evenodd" clip-rule="evenodd" d="M99.7464 38.0321C100.614 37.9394 101.12 38.9599 100.607 39.6666C94.9457 47.4789 93.7827 58.1188 98.4976 67.2852C104.645 79.2375 118.643 84.5167 130.956 80.065C131.778 79.768 132.619 80.5374 132.288 81.3459C129.544 88.0591 124.482 93.8642 117.527 97.4416C102.039 105.408 83.0253 99.3108 75.0587 83.8227C67.092 68.3345 73.1894 49.3206 88.6776 41.3539C92.2398 39.5216 95.9885 38.4333 99.7464 38.0321Z"/>
</mask>
<path fill-rule="evenodd" clip-rule="evenodd" d="M99.7464 38.0321C100.614 37.9394 101.12 38.9599 100.607 39.6666C94.9457 47.4789 93.7827 58.1188 98.4976 67.2852C104.645 79.2375 118.643 84.5167 130.956 80.065C131.778 79.768 132.619 80.5374 132.288 81.3459C129.544 88.0591 124.482 93.8642 117.527 97.4416C102.039 105.408 83.0253 99.3108 75.0587 83.8227C67.092 68.3345 73.1894 49.3206 88.6776 41.3539C92.2398 39.5216 95.9885 38.4333 99.7464 38.0321Z" fill="url(#paint0_linear_3_1611)"/>
<path d="M130.956 80.065L131.636 81.9458L130.956 80.065ZM132.288 81.3459L134.14 82.1027L132.288 81.3459ZM99.7464 38.0321L99.5341 36.0434L99.7464 38.0321ZM100.276 66.3704C95.9193 57.9002 96.9904 48.0658 102.227 40.8402L98.988 38.4929C92.9011 46.892 91.646 58.3374 96.719 68.2L100.276 66.3704ZM130.276 78.1842C118.897 82.2983 105.958 77.4168 100.276 66.3704L96.719 68.2C103.333 81.0581 118.39 86.7351 131.636 81.9458L130.276 78.1842ZM130.437 80.589C127.866 86.8776 123.128 92.3118 116.613 95.6631L118.442 99.2201C125.837 95.4165 131.222 89.2405 134.14 82.1027L130.437 80.589ZM116.613 95.6631C102.107 103.125 84.2986 97.4138 76.8372 82.9078L73.2802 84.7375C81.7521 101.208 101.972 107.692 118.442 99.2201L116.613 95.6631ZM76.8372 82.9078C69.3758 68.4019 75.0865 50.5938 89.5925 43.1324L87.7628 39.5754C71.2924 48.0473 64.8083 68.267 73.2802 84.7375L76.8372 82.9078ZM89.5925 43.1324C92.932 41.4147 96.4421 40.3962 99.9587 40.0208L99.5341 36.0434C95.535 36.4704 91.5477 37.6286 87.7628 39.5754L89.5925 43.1324ZM131.636 81.9458C131.283 82.0736 130.916 81.9663 130.682 81.7458C130.428 81.5059 130.252 81.0419 130.437 80.589L134.14 82.1027C134.655 80.8413 134.224 79.5884 133.427 78.836C132.649 78.1029 131.451 77.7594 130.276 78.1842L131.636 81.9458ZM102.227 40.8402C102.959 39.8295 102.961 38.5839 102.473 37.6343C101.971 36.6598 100.888 35.8988 99.5341 36.0434L99.9587 40.0208C99.4728 40.0726 99.0761 39.7756 98.9161 39.4648C98.769 39.179 98.7677 38.7969 98.988 38.4929L102.227 40.8402Z" fill="url(#paint1_linear_3_1611)" mask="url(#path-1-inside-1_3_1611)"/>
</g>
<g filter="url(#filter1_bdd_3_1611)">
<path d="M110.902 41.6417C111.328 40.1966 113.375 40.1966 113.801 41.6417C113.946 42.1338 114.331 42.5188 114.823 42.6639C116.268 43.0899 116.268 45.1368 114.823 45.5628C114.331 45.7079 113.946 46.0928 113.801 46.585C113.375 48.0301 111.328 48.0301 110.902 46.585C110.757 46.0928 110.372 45.7079 109.88 45.5628C108.435 45.1368 108.435 43.0899 109.88 42.6639C110.372 42.5188 110.757 42.1338 110.902 41.6417Z" fill="url(#paint2_linear_3_1611)"/>
<path d="M111.861 41.9245C112.005 41.4357 112.698 41.4357 112.842 41.9245C113.083 42.7423 113.723 43.3819 114.54 43.623C115.029 43.7671 115.029 44.4595 114.54 44.6036C113.723 44.8447 113.083 45.4844 112.842 46.3022C112.698 46.791 112.005 46.791 111.861 46.3022C111.62 45.4844 110.981 44.8447 110.163 44.6036C109.674 44.4595 109.674 43.7671 110.163 43.623C110.981 43.3819 111.62 42.7423 111.861 41.9245Z" stroke="url(#paint3_linear_3_1611)" stroke-width="2"/>
</g>
<g filter="url(#filter2_bdd_3_1611)">
<path d="M116.666 62.6367C117.226 60.7352 119.92 60.7352 120.48 62.6367C120.671 63.2843 121.178 63.7907 121.825 63.9816C123.727 64.5422 123.727 67.2355 121.825 67.7961C121.178 67.987 120.671 68.4934 120.48 69.141C119.92 71.0425 117.226 71.0425 116.666 69.141C116.475 68.4934 115.968 67.987 115.321 67.7961C113.419 67.2355 113.419 64.5422 115.321 63.9816C115.968 63.7907 116.475 63.2843 116.666 62.6367Z" fill="url(#paint4_linear_3_1611)"/>
<path d="M117.625 62.9195C117.904 61.9743 119.242 61.9743 119.521 62.9195C119.808 63.8927 120.569 64.6539 121.542 64.9408C122.487 65.2195 122.487 66.5582 121.542 66.8369C120.569 67.1238 119.808 67.885 119.521 68.8582C119.242 69.8034 117.904 69.8034 117.625 68.8582C117.338 67.885 116.577 67.1238 115.604 66.8369C114.658 66.5582 114.658 65.2195 115.604 64.9408C116.577 64.6539 117.338 63.8927 117.625 62.9195Z" stroke="url(#paint5_linear_3_1611)" stroke-width="2"/>
</g>
<g filter="url(#filter3_bdd_3_1611)">
<path d="M137.573 56.0304C137.932 54.8135 139.655 54.8135 140.014 56.0304C140.136 56.4449 140.46 56.769 140.875 56.8912C142.092 57.25 142.092 58.9737 140.875 59.3324C140.46 59.4546 140.136 59.7787 140.014 60.1932C139.655 61.4101 137.932 61.4101 137.573 60.1932C137.451 59.7787 137.127 59.4546 136.712 59.3324C135.495 58.9737 135.495 57.25 136.712 56.8912C137.127 56.769 137.451 56.4449 137.573 56.0304Z" fill="url(#paint6_linear_3_1611)"/>
<path d="M138.532 56.3132C138.557 56.2271 138.596 56.1881 138.628 56.1656C138.667 56.1381 138.725 56.1177 138.793 56.1177C138.862 56.1177 138.92 56.1381 138.959 56.1656C138.991 56.1881 139.03 56.2271 139.055 56.3132C139.273 57.0533 139.852 57.6322 140.592 57.8504C140.678 57.8758 140.717 57.9142 140.74 57.9464C140.767 57.9856 140.788 58.0433 140.788 58.1118C140.788 58.1803 140.767 58.238 140.74 58.2772C140.717 58.3094 140.678 58.3479 140.592 58.3732C139.852 58.5914 139.273 59.1703 139.055 59.9104C139.03 59.9965 138.991 60.0356 138.959 60.0581C138.92 60.0855 138.862 60.1059 138.793 60.1059C138.725 60.1059 138.667 60.0855 138.628 60.0581C138.596 60.0356 138.557 59.9965 138.532 59.9104C138.314 59.1703 137.735 58.5914 136.995 58.3732C136.909 58.3479 136.87 58.3094 136.847 58.2772C136.82 58.238 136.799 58.1803 136.799 58.1118C136.799 58.0433 136.82 57.9856 136.847 57.9464C136.87 57.9142 136.909 57.8758 136.995 57.8504C137.735 57.6322 138.314 57.0533 138.532 56.3132Z" stroke="url(#paint7_linear_3_1611)" stroke-width="2"/>
</g>
<g filter="url(#filter4_bdd_3_1611)">
<path d="M130.573 37.7546C130.932 36.5376 132.656 36.5376 133.015 37.7546C133.137 38.169 133.461 38.4931 133.875 38.6153C135.092 38.9741 135.092 40.6978 133.875 41.0565C133.461 41.1787 133.137 41.5029 133.015 41.9173C132.656 43.1342 130.932 43.1342 130.573 41.9173C130.451 41.5029 130.127 41.1787 129.713 41.0565C128.496 40.6978 128.496 38.9741 129.713 38.6153C130.127 38.4931 130.451 38.169 130.573 37.7546Z" fill="url(#paint8_linear_3_1611)"/>
<path d="M131.533 38.0373C131.558 37.9513 131.596 37.9122 131.629 37.8897C131.668 37.8623 131.725 37.8418 131.794 37.8418C131.862 37.8418 131.92 37.8623 131.959 37.8897C131.992 37.9122 132.03 37.9513 132.055 38.0373C132.274 38.7775 132.852 39.3563 133.593 39.5745C133.679 39.5999 133.718 39.6383 133.74 39.6705C133.768 39.7098 133.788 39.7674 133.788 39.8359C133.788 39.9044 133.768 39.9621 133.74 40.0013C133.718 40.0335 133.679 40.072 133.593 40.0974C132.852 40.3156 132.274 40.8944 132.055 41.6345C132.03 41.7206 131.992 41.7597 131.959 41.7822C131.92 41.8096 131.862 41.83 131.794 41.83C131.725 41.83 131.668 41.8096 131.629 41.7822C131.596 41.7597 131.558 41.7206 131.533 41.6345C131.314 40.8944 130.735 40.3156 129.995 40.0974C129.909 40.072 129.87 40.0335 129.848 40.0013C129.82 39.9621 129.8 39.9044 129.8 39.8359C129.8 39.7674 129.82 39.7098 129.848 39.6705C129.87 39.6383 129.909 39.5999 129.995 39.5745C130.735 39.3563 131.314 38.7775 131.533 38.0373Z" stroke="url(#paint9_linear_3_1611)" stroke-width="2"/>
</g>
<defs>
<filter id="filter0_bdd_3_1611" x="0.55957" y="0.0263672" width="169.803" height="165.914" filterUnits="userSpaceOnUse" color-interpolation-filters="sRGB">
<feFlood flood-opacity="0" result="BackgroundImageFix"/>
<feGaussianBlur in="BackgroundImageFix" stdDeviation="7"/>
<feComposite in2="SourceAlpha" operator="in" result="effect1_backgroundBlur_3_1611"/>
<feColorMatrix in="SourceAlpha" type="matrix" values="0 0 0 0 0 0 0 0 0 0 0 0 0 0 0 0 0 0 127 0" result="hardAlpha"/>
<feOffset dx="-21" dy="15"/>
<feGaussianBlur stdDeviation="25"/>
<feComposite in2="hardAlpha" operator="out"/>
<feColorMatrix type="matrix" values="0 0 0 0 0.113438 0 0 0 0 0.148981 0 0 0 0 0.275 0 0 0 0.25 0"/>
<feBlend mode="normal" in2="effect1_backgroundBlur_3_1611" result="effect2_dropShadow_3_1611"/>
<feColorMatrix in="SourceAlpha" type="matrix" values="0 0 0 0 0 0 0 0 0 0 0 0 0 0 0 0 0 0 127 0" result="hardAlpha"/>
<feOffset/>
<feGaussianBlur stdDeviation="19"/>
<feComposite in2="hardAlpha" operator="out"/>
<feColorMatrix type="matrix" values="0 0 0 0 0.619608 0 0 0 0 0.423529 0 0 0 0 1 0 0 0 0.4 0"/>
<feBlend mode="normal" in2="effect2_dropShadow_3_1611" result="effect3_dropShadow_3_1611"/>
<feBlend mode="normal" in="SourceGraphic" in2="effect3_dropShadow_3_1611" result="shape"/>
</filter>
<filter id="filter1_bdd_3_1611" x="37.7964" y="5.55811" width="107.111" height="107.111" filterUnits="userSpaceOnUse" color-interpolation-filters="sRGB">
<feFlood flood-opacity="0" result="BackgroundImageFix"/>
<feGaussianBlur in="BackgroundImageFix" stdDeviation="7"/>
<feComposite in2="SourceAlpha" operator="in" result="effect1_backgroundBlur_3_1611"/>
<feColorMatrix in="SourceAlpha" type="matrix" values="0 0 0 0 0 0 0 0 0 0 0 0 0 0 0 0 0 0 127 0" result="hardAlpha"/>
<feOffset dx="-21" dy="15"/>
<feGaussianBlur stdDeviation="25"/>
<feComposite in2="hardAlpha" operator="out"/>
<feColorMatrix type="matrix" values="0 0 0 0 0.113438 0 0 0 0 0.148981 0 0 0 0 0.275 0 0 0 0.25 0"/>
<feBlend mode="normal" in2="effect1_backgroundBlur_3_1611" result="effect2_dropShadow_3_1611"/>
<feColorMatrix in="SourceAlpha" type="matrix" values="0 0 0 0 0 0 0 0 0 0 0 0 0 0 0 0 0 0 127 0" result="hardAlpha"/>
<feOffset/>
<feGaussianBlur stdDeviation="9"/>
<feComposite in2="hardAlpha" operator="out"/>
<feColorMatrix type="matrix" values="0 0 0 0 0.607843 0 0 0 0 0.392157 0 0 0 0 1 0 0 0 0.56 0"/>
<feBlend mode="normal" in2="effect2_dropShadow_3_1611" result="effect3_dropShadow_3_1611"/>
<feBlend mode="normal" in="SourceGraphic" in2="effect3_dropShadow_3_1611" result="shape"/>
</filter>
<filter id="filter2_bdd_3_1611" x="42.8945" y="26.2104" width="109.356" height="109.356" filterUnits="userSpaceOnUse" color-interpolation-filters="sRGB">
<feFlood flood-opacity="0" result="BackgroundImageFix"/>
<feGaussianBlur in="BackgroundImageFix" stdDeviation="7"/>
<feComposite in2="SourceAlpha" operator="in" result="effect1_backgroundBlur_3_1611"/>
<feColorMatrix in="SourceAlpha" type="matrix" values="0 0 0 0 0 0 0 0 0 0 0 0 0 0 0 0 0 0 127 0" result="hardAlpha"/>
<feOffset dx="-21" dy="15"/>
<feGaussianBlur stdDeviation="25"/>
<feComposite in2="hardAlpha" operator="out"/>
<feColorMatrix type="matrix" values="0 0 0 0 0.113438 0 0 0 0 0.148981 0 0 0 0 0.275 0 0 0 0.25 0"/>
<feBlend mode="normal" in2="effect1_backgroundBlur_3_1611" result="effect2_dropShadow_3_1611"/>
<feColorMatrix in="SourceAlpha" type="matrix" values="0 0 0 0 0 0 0 0 0 0 0 0 0 0 0 0 0 0 127 0" result="hardAlpha"/>
<feOffset/>
<feGaussianBlur stdDeviation="9"/>
<feComposite in2="hardAlpha" operator="out"/>
<feColorMatrix type="matrix" values="0 0 0 0 0.996078 0 0 0 0 0.764706 0 0 0 0 0.0117647 0 0 0 0.47 0"/>
<feBlend mode="normal" in2="effect2_dropShadow_3_1611" result="effect3_dropShadow_3_1611"/>
<feBlend mode="normal" in="SourceGraphic" in2="effect3_dropShadow_3_1611" result="shape"/>
</filter>
<filter id="filter3_bdd_3_1611" x="64.7993" y="20.1177" width="105.988" height="105.988" filterUnits="userSpaceOnUse" color-interpolation-filters="sRGB">
<feFlood flood-opacity="0" result="BackgroundImageFix"/>
<feGaussianBlur in="BackgroundImageFix" stdDeviation="7"/>
<feComposite in2="SourceAlpha" operator="in" result="effect1_backgroundBlur_3_1611"/>
<feColorMatrix in="SourceAlpha" type="matrix" values="0 0 0 0 0 0 0 0 0 0 0 0 0 0 0 0 0 0 127 0" result="hardAlpha"/>
<feOffset dx="-21" dy="15"/>
<feGaussianBlur stdDeviation="25"/>
<feComposite in2="hardAlpha" operator="out"/>
<feColorMatrix type="matrix" values="0 0 0 0 0.113438 0 0 0 0 0.148981 0 0 0 0 0.275 0 0 0 0.25 0"/>
<feBlend mode="normal" in2="effect1_backgroundBlur_3_1611" result="effect2_dropShadow_3_1611"/>
<feColorMatrix in="SourceAlpha" type="matrix" values="0 0 0 0 0 0 0 0 0 0 0 0 0 0 0 0 0 0 127 0" result="hardAlpha"/>
<feOffset/>
<feGaussianBlur stdDeviation="9"/>
<feComposite in2="hardAlpha" operator="out"/>
<feColorMatrix type="matrix" values="0 0 0 0 0.607843 0 0 0 0 0.392157 0 0 0 0 1 0 0 0 0.56 0"/>
<feBlend mode="normal" in2="effect2_dropShadow_3_1611" result="effect3_dropShadow_3_1611"/>
<feBlend mode="normal" in="SourceGraphic" in2="effect3_dropShadow_3_1611" result="shape"/>
</filter>
<filter id="filter4_bdd_3_1611" x="57.7998" y="1.8418" width="105.988" height="105.988" filterUnits="userSpaceOnUse" color-interpolation-filters="sRGB">
<feFlood flood-opacity="0" result="BackgroundImageFix"/>
<feGaussianBlur in="BackgroundImageFix" stdDeviation="7"/>
<feComposite in2="SourceAlpha" operator="in" result="effect1_backgroundBlur_3_1611"/>
<feColorMatrix in="SourceAlpha" type="matrix" values="0 0 0 0 0 0 0 0 0 0 0 0 0 0 0 0 0 0 127 0" result="hardAlpha"/>
<feOffset dx="-21" dy="15"/>
<feGaussianBlur stdDeviation="25"/>
<feComposite in2="hardAlpha" operator="out"/>
<feColorMatrix type="matrix" values="0 0 0 0 0.113438 0 0 0 0 0.148981 0 0 0 0 0.275 0 0 0 0.25 0"/>
<feBlend mode="normal" in2="effect1_backgroundBlur_3_1611" result="effect2_dropShadow_3_1611"/>
<feColorMatrix in="SourceAlpha" type="matrix" values="0 0 0 0 0 0 0 0 0 0 0 0 0 0 0 0 0 0 127 0" result="hardAlpha"/>
<feOffset/>
<feGaussianBlur stdDeviation="9"/>
<feComposite in2="hardAlpha" operator="out"/>
<feColorMatrix type="matrix" values="0 0 0 0 0.996078 0 0 0 0 0.764706 0 0 0 0 0.0117647 0 0 0 0.47 0"/>
<feBlend mode="normal" in2="effect2_dropShadow_3_1611" result="effect3_dropShadow_3_1611"/>
<feBlend mode="normal" in="SourceGraphic" in2="effect3_dropShadow_3_1611" result="shape"/>
</filter>
<linearGradient id="paint0_linear_3_1611" x1="83.1105" y1="44.8423" x2="111.96" y2="100.93" gradientUnits="userSpaceOnUse">
<stop offset="0.0001" stop-color="#D6C2FF"/>
<stop offset="1" stop-color="#7E2FFF"/>
</linearGradient>
<linearGradient id="paint1_linear_3_1611" x1="86.476" y1="13.886" x2="104.681" y2="87.4954" gradientUnits="userSpaceOnUse">
<stop stop-color="white"/>
<stop offset="1" stop-color="white" stop-opacity="0"/>
</linearGradient>
<linearGradient id="paint2_linear_3_1611" x1="112.016" y1="36.8553" x2="112.016" y2="51.6317" gradientUnits="userSpaceOnUse">
<stop offset="0.0001" stop-color="#D6C2FF"/>
<stop offset="1" stop-color="#7E2FFF"/>
</linearGradient>
<linearGradient id="paint3_linear_3_1611" x1="112.352" y1="36.7251" x2="112.352" y2="45.8632" gradientUnits="userSpaceOnUse">
<stop stop-color="white"/>
<stop offset="1" stop-color="white" stop-opacity="0"/>
</linearGradient>
<linearGradient id="paint4_linear_3_1611" x1="118.573" y1="56.1675" x2="118.573" y2="75.6102" gradientUnits="userSpaceOnUse">
<stop stop-color="#FFE600"/>
<stop offset="1" stop-color="#FF7A00"/>
</linearGradient>
<linearGradient id="paint5_linear_3_1611" x1="118.573" y1="56.1675" x2="118.573" y2="68.1913" gradientUnits="userSpaceOnUse">
<stop stop-color="white"/>
<stop offset="1" stop-color="white" stop-opacity="0"/>
</linearGradient>
<linearGradient id="paint6_linear_3_1611" x1="138.511" y1="51.9997" x2="138.511" y2="64.4431" gradientUnits="userSpaceOnUse">
<stop offset="0.0001" stop-color="#D6C2FF"/>
<stop offset="1" stop-color="#7E2FFF"/>
</linearGradient>
<linearGradient id="paint7_linear_3_1611" x1="138.793" y1="51.8901" x2="138.793" y2="59.5854" gradientUnits="userSpaceOnUse">
<stop stop-color="white"/>
<stop offset="1" stop-color="white" stop-opacity="0"/>
</linearGradient>
<linearGradient id="paint8_linear_3_1611" x1="131.794" y1="33.6143" x2="131.794" y2="46.0576" gradientUnits="userSpaceOnUse">
<stop stop-color="#FFE600"/>
<stop offset="1" stop-color="#FF7A00"/>
</linearGradient>
<linearGradient id="paint9_linear_3_1611" x1="131.794" y1="33.6143" x2="131.794" y2="41.3095" gradientUnits="userSpaceOnUse">
<stop stop-color="white"/>
<stop offset="1" stop-color="white" stop-opacity="0"/>
</linearGradient>
</defs>
</svg>
