<svg width="168" height="178" viewBox="0 0 168 178" fill="none" xmlns="http://www.w3.org/2000/svg">
<g filter="url(#filter0_bdd_3_1613)">
<mask id="path-1-inside-1_3_1613" fill="white">
<path fill-rule="evenodd" clip-rule="evenodd" d="M79.9755 39.1625C83.1933 37.8083 85.5075 41.8454 84.5387 45.1994C83.0949 50.1974 83.4826 55.7353 86.05 60.7267C89.7886 67.9949 97.1577 72.1771 104.803 72.1975C108.297 72.2068 111.542 75.5542 109.347 78.2725C107.206 80.9233 104.491 83.1809 101.266 84.8396C88.8819 91.2097 73.6785 86.3342 67.3084 73.95C60.9384 61.5658 65.8138 46.3624 78.198 39.9923C78.7846 39.6906 79.3775 39.4141 79.9755 39.1625Z"/>
</mask>
<path fill-rule="evenodd" clip-rule="evenodd" d="M79.9755 39.1625C83.1933 37.8083 85.5075 41.8454 84.5387 45.1994C83.0949 50.1974 83.4826 55.7353 86.05 60.7267C89.7886 67.9949 97.1577 72.1771 104.803 72.1975C108.297 72.2068 111.542 75.5542 109.347 78.2725C107.206 80.9233 104.491 83.1809 101.266 84.8396C88.8819 91.2097 73.6785 86.3342 67.3084 73.95C60.9384 61.5658 65.8138 46.3624 78.198 39.9923C78.7846 39.6906 79.3775 39.4141 79.9755 39.1625Z" fill="url(#paint0_linear_3_1613)"/>
<path d="M104.803 72.1975L104.798 74.1975L104.803 72.1975ZM84.5387 45.1994L82.6173 44.6444L84.5387 45.1994ZM87.8285 59.8119C85.5037 55.292 85.1524 50.2818 86.4601 45.7544L82.6173 44.6444C81.0375 50.1131 81.4615 56.1785 84.2715 61.6415L87.8285 59.8119ZM104.809 70.1975C97.881 70.179 91.212 66.3897 87.8285 59.8119L84.2715 61.6415C88.3652 69.6002 96.4344 74.1751 104.798 74.1975L104.809 70.1975ZM107.791 77.016C105.822 79.4542 103.323 81.5323 100.351 83.0611L102.181 86.6181C105.658 84.8295 108.591 82.3924 110.903 79.529L107.791 77.016ZM100.351 83.0611C88.9493 88.9259 74.9518 84.4372 69.087 73.0352L65.5299 74.8648C72.4052 88.2313 88.8144 93.4934 102.181 86.6181L100.351 83.0611ZM69.087 73.0352C63.2221 61.6332 67.7109 47.6357 79.1129 41.7709L77.2832 38.2138C63.9168 45.0891 58.6546 61.4983 65.5299 74.8648L69.087 73.0352ZM79.1129 41.7709C79.6539 41.4926 80.2004 41.2377 80.7513 41.0059L79.1997 37.3191C78.5546 37.5905 77.9154 37.8887 77.2832 38.2138L79.1129 41.7709ZM104.798 74.1975C105.957 74.2006 107.076 74.7787 107.667 75.4933C107.949 75.8345 108.045 76.1252 108.059 76.3214C108.071 76.4809 108.042 76.7056 107.791 77.016L110.903 79.529C111.75 78.4803 112.138 77.2672 112.049 76.0343C111.963 74.838 111.442 73.7816 110.75 72.945C109.394 71.304 107.144 70.2038 104.809 70.1975L104.798 74.1975ZM86.4601 45.7544C87.1083 43.5106 86.6785 41.0449 85.4789 39.2877C84.8673 38.3919 83.9972 37.599 82.8721 37.1855C81.713 36.7596 80.4409 36.7967 79.1997 37.3191L80.7513 41.0059C81.119 40.8511 81.3429 40.8851 81.4924 40.9401C81.676 41.0075 81.9272 41.1796 82.1753 41.543C82.6951 42.3044 82.9379 43.5342 82.6173 44.6444L86.4601 45.7544Z" fill="url(#paint1_linear_3_1613)" mask="url(#path-1-inside-1_3_1613)"/>
</g>
<g filter="url(#filter1_bd_3_1613)">
<mask id="path-3-inside-2_3_1613" fill="white">
<path fill-rule="evenodd" clip-rule="evenodd" d="M95.6321 128.905C95.6968 128.906 95.7616 128.906 95.8265 128.906C105.061 128.906 112.547 121.42 112.547 112.186C112.547 102.951 105.061 95.4648 95.8265 95.4648C95.7616 95.4648 95.6968 95.4652 95.6321 95.4659V95.4648H91.3125C91.4685 94.3205 91.5491 93.1523 91.5491 91.9652C91.5491 77.7911 80.0588 66.3008 65.8848 66.3008C51.7107 66.3008 40.2204 77.7911 40.2204 91.9652C40.2204 93.3026 40.3227 94.6161 40.5199 95.8983C39.2993 95.6147 38.0275 95.4648 36.7207 95.4648C27.4861 95.4648 20 102.951 20 112.186C20 121.42 27.4861 128.906 36.7207 128.906C36.7859 128.906 36.851 128.906 36.916 128.905L36.9151 128.906H95.6321V128.905Z"/>
</mask>
<path fill-rule="evenodd" clip-rule="evenodd" d="M95.6321 128.905C95.6968 128.906 95.7616 128.906 95.8265 128.906C105.061 128.906 112.547 121.42 112.547 112.186C112.547 102.951 105.061 95.4648 95.8265 95.4648C95.7616 95.4648 95.6968 95.4652 95.6321 95.4659V95.4648H91.3125C91.4685 94.3205 91.5491 93.1523 91.5491 91.9652C91.5491 77.7911 80.0588 66.3008 65.8848 66.3008C51.7107 66.3008 40.2204 77.7911 40.2204 91.9652C40.2204 93.3026 40.3227 94.6161 40.5199 95.8983C39.2993 95.6147 38.0275 95.4648 36.7207 95.4648C27.4861 95.4648 20 102.951 20 112.186C20 121.42 27.4861 128.906 36.7207 128.906C36.7859 128.906 36.851 128.906 36.916 128.905L36.9151 128.906H95.6321V128.905Z" fill="url(#paint2_linear_3_1613)" shape-rendering="crispEdges"/>
<path d="M95.6321 128.905L95.6549 126.905C95.1205 126.899 94.606 127.107 94.226 127.483C93.846 127.859 93.6321 128.371 93.6321 128.905H95.6321ZM95.6321 95.4659H93.6321C93.6321 96.0003 93.846 96.5125 94.226 96.8882C94.606 97.2639 95.1205 97.4719 95.6549 97.4658L95.6321 95.4659ZM95.6321 95.4648H97.6321C97.6321 94.3602 96.7367 93.4648 95.6321 93.4648V95.4648ZM91.3125 95.4648L89.3309 95.1946C89.2528 95.7669 89.426 96.3449 89.8058 96.78C90.1856 97.2151 90.735 97.4648 91.3125 97.4648V95.4648ZM40.5199 95.8983L40.0672 97.8464C40.7138 97.9966 41.3928 97.8163 41.8795 97.365C42.3663 96.9137 42.5975 96.2504 42.4966 95.5943L40.5199 95.8983ZM36.916 128.905L38.4866 130.143C38.9635 129.538 39.0506 128.713 38.7105 128.022C38.3703 127.331 37.6634 126.896 36.8931 126.905L36.916 128.905ZM36.9151 128.906L35.3445 127.668C34.8701 128.27 34.7812 129.09 35.1156 129.779C35.45 130.469 36.1489 130.906 36.9151 130.906V128.906ZM95.6321 128.906V130.906C96.7367 130.906 97.6321 130.011 97.6321 128.906H95.6321ZM95.6094 130.905C95.6816 130.906 95.754 130.906 95.8265 130.906V126.906C95.7692 126.906 95.712 126.906 95.6549 126.905L95.6094 130.905ZM95.8265 130.906C106.166 130.906 114.547 122.525 114.547 112.186H110.547C110.547 120.316 103.957 126.906 95.8265 126.906V130.906ZM114.547 112.186C114.547 101.846 106.166 93.4648 95.8265 93.4648V97.4648C103.957 97.4648 110.547 104.056 110.547 112.186H114.547ZM95.8265 93.4648C95.754 93.4648 95.6816 93.4652 95.6094 93.4661L95.6549 97.4658C95.712 97.4651 95.7692 97.4648 95.8265 97.4648V93.4648ZM93.6321 95.4648V95.4659H97.6321V95.4648H93.6321ZM91.3125 97.4648H95.6321V93.4648H91.3125V97.4648ZM93.2942 95.735C93.4624 94.5015 93.5491 93.2429 93.5491 91.9652H89.5491C89.5491 93.0616 89.4747 94.1396 89.3309 95.1946L93.2942 95.735ZM93.5491 91.9652C93.5491 76.6866 81.1634 64.3008 65.8848 64.3008V68.3008C78.9542 68.3008 89.5491 78.8957 89.5491 91.9652H93.5491ZM65.8848 64.3008C50.6061 64.3008 38.2204 76.6866 38.2204 91.9652H42.2204C42.2204 78.8957 52.8153 68.3008 65.8848 68.3008V64.3008ZM38.2204 91.9652C38.2204 93.4047 38.3305 94.8199 38.5431 96.2023L42.4966 95.5943C42.3148 94.4123 42.2204 93.2005 42.2204 91.9652H38.2204ZM40.9725 93.9502C39.6046 93.6324 38.181 93.4648 36.7207 93.4648V97.4648C37.8741 97.4648 38.9941 97.5971 40.0672 97.8464L40.9725 93.9502ZM36.7207 93.4648C26.3815 93.4648 18 101.846 18 112.186H22C22 104.056 28.5907 97.4648 36.7207 97.4648V93.4648ZM18 112.186C18 122.525 26.3815 130.906 36.7207 130.906V126.906C28.5907 126.906 22 120.316 22 112.186H18ZM36.7207 130.906C36.7935 130.906 36.8663 130.906 36.9389 130.905L36.8931 126.905C36.8357 126.906 36.7782 126.906 36.7207 126.906V130.906ZM38.4857 130.145L38.4866 130.143L35.3454 127.667L35.3445 127.668L38.4857 130.145ZM95.6321 126.906H36.9151V130.906H95.6321V126.906ZM93.6321 128.905V128.906H97.6321V128.905H93.6321Z" fill="url(#paint3_linear_3_1613)" mask="url(#path-3-inside-2_3_1613)"/>
</g>
<g filter="url(#filter2_bd_3_1613)">
<mask id="path-5-inside-3_3_1613" fill="white">
<path fill-rule="evenodd" clip-rule="evenodd" d="M125.987 111.544C126.034 111.545 126.081 111.545 126.128 111.545C132.801 111.545 138.212 106.135 138.212 99.4613C138.212 92.7875 132.801 87.3774 126.128 87.3774C126.081 87.3774 126.034 87.3777 125.987 87.3782V87.3774H122.865C122.978 86.5504 123.036 85.7061 123.036 84.8482C123.036 74.6047 114.733 66.3008 104.489 66.3008C94.2457 66.3008 85.9417 74.6047 85.9417 84.8482C85.9417 85.8147 86.0157 86.764 86.1582 87.6907C85.2761 87.4857 84.3569 87.3774 83.4125 87.3774C76.7387 87.3774 71.3286 92.7875 71.3286 99.4613C71.3286 106.135 76.7387 111.545 83.4125 111.545C83.4596 111.545 83.5066 111.545 83.5536 111.544L83.553 111.545H125.987V111.544Z"/>
</mask>
<path fill-rule="evenodd" clip-rule="evenodd" d="M125.987 111.544C126.034 111.545 126.081 111.545 126.128 111.545C132.801 111.545 138.212 106.135 138.212 99.4613C138.212 92.7875 132.801 87.3774 126.128 87.3774C126.081 87.3774 126.034 87.3777 125.987 87.3782V87.3774H122.865C122.978 86.5504 123.036 85.7061 123.036 84.8482C123.036 74.6047 114.733 66.3008 104.489 66.3008C94.2457 66.3008 85.9417 74.6047 85.9417 84.8482C85.9417 85.8147 86.0157 86.764 86.1582 87.6907C85.2761 87.4857 84.3569 87.3774 83.4125 87.3774C76.7387 87.3774 71.3286 92.7875 71.3286 99.4613C71.3286 106.135 76.7387 111.545 83.4125 111.545C83.4596 111.545 83.5066 111.545 83.5536 111.544L83.553 111.545H125.987V111.544Z" fill="url(#paint4_linear_3_1613)" shape-rendering="crispEdges"/>
<path d="M125.987 111.544L126.01 109.545C125.476 109.538 124.961 109.746 124.581 110.122C124.201 110.498 123.987 111.01 123.987 111.544H125.987ZM125.987 87.3782H123.987C123.987 87.9126 124.201 88.4247 124.581 88.8005C124.961 89.1762 125.476 89.3842 126.01 89.3781L125.987 87.3782ZM125.987 87.3774H127.987C127.987 86.2728 127.092 85.3774 125.987 85.3774V87.3774ZM122.865 87.3774L120.884 87.1072C120.806 87.6794 120.979 88.2575 121.359 88.6926C121.739 89.1277 122.288 89.3774 122.865 89.3774V87.3774ZM86.1582 87.6907L85.7056 89.6388C86.3521 89.789 87.0311 89.6087 87.5179 89.1574C88.0047 88.7061 88.2358 88.0427 88.1349 87.3867L86.1582 87.6907ZM83.5536 111.544L85.1256 112.781C85.6016 112.176 85.688 111.351 85.3476 110.66C85.0072 109.97 84.3006 109.536 83.5307 109.545L83.5536 111.544ZM83.553 111.545L81.981 110.309C81.5075 110.911 81.4194 111.73 81.754 112.419C82.0885 113.108 82.7871 113.545 83.553 113.545V111.545ZM125.987 111.545V113.545C127.092 113.545 127.987 112.65 127.987 111.545H125.987ZM125.964 113.544C126.019 113.545 126.073 113.545 126.128 113.545V109.545C126.088 109.545 126.049 109.545 126.01 109.545L125.964 113.544ZM126.128 113.545C133.906 113.545 140.212 107.24 140.212 99.4613H136.212C136.212 105.03 131.697 109.545 126.128 109.545V113.545ZM140.212 99.4613C140.212 91.683 133.906 85.3774 126.128 85.3774V89.3774C131.697 89.3774 136.212 93.8921 136.212 99.4613H140.212ZM126.128 85.3774C126.073 85.3774 126.019 85.3777 125.964 85.3783L126.01 89.3781C126.049 89.3776 126.088 89.3774 126.128 89.3774V85.3774ZM123.987 87.3774V87.3782H127.987V87.3774H123.987ZM122.865 89.3774H125.987V85.3774H122.865V89.3774ZM124.847 87.6476C124.972 86.7313 125.036 85.7967 125.036 84.8482H121.036C121.036 85.6155 120.984 86.3695 120.884 87.1072L124.847 87.6476ZM125.036 84.8482C125.036 73.5002 115.837 64.3008 104.489 64.3008V68.3008C113.628 68.3008 121.036 75.7093 121.036 84.8482H125.036ZM104.489 64.3008C93.1411 64.3008 83.9417 73.5002 83.9417 84.8482H87.9417C87.9417 75.7093 95.3502 68.3008 104.489 68.3008V64.3008ZM83.9417 84.8482C83.9417 85.9169 84.0235 86.9678 84.1814 87.9947L88.1349 87.3867C88.0078 86.5602 87.9417 85.7126 87.9417 84.8482H83.9417ZM86.6108 85.7426C85.5814 85.5034 84.5104 85.3774 83.4125 85.3774V89.3774C84.2035 89.3774 84.9708 89.4681 85.7056 89.6388L86.6108 85.7426ZM83.4125 85.3774C75.6342 85.3774 69.3286 91.683 69.3286 99.4613H73.3286C73.3286 93.8921 77.8433 89.3774 83.4125 89.3774V85.3774ZM69.3286 99.4613C69.3286 107.24 75.6342 113.545 83.4125 113.545V109.545C77.8433 109.545 73.3286 105.03 73.3286 99.4613H69.3286ZM83.4125 113.545C83.4673 113.545 83.5219 113.545 83.5765 113.544L83.5307 109.545C83.4913 109.545 83.4519 109.545 83.4125 109.545V113.545ZM85.125 112.782L85.1256 112.781L81.9816 110.308L81.981 110.309L85.125 112.782ZM125.987 109.545H83.553V113.545H125.987V109.545ZM123.987 111.544V111.545H127.987V111.544H123.987Z" fill="url(#paint5_linear_3_1613)" mask="url(#path-5-inside-3_3_1613)"/>
</g>
<g filter="url(#filter3_bdd_3_1613)">
<path d="M43.3113 125.121C44.251 123.915 46.1831 124.503 46.292 126.028L46.7483 132.418C46.9546 135.306 44.1999 137.504 41.4292 136.661C38.6585 135.819 37.5941 132.459 39.374 130.175L43.3113 125.121Z" fill="url(#paint6_linear_3_1613)" stroke="url(#paint7_linear_3_1613)" stroke-width="2"/>
<path d="M65.6731 125.121C66.6128 123.915 68.5449 124.503 68.6538 126.028L69.1101 132.418C69.3164 135.306 66.5617 137.504 63.791 136.661C61.0203 135.819 59.9559 132.459 61.7358 130.175L65.6731 125.121Z" fill="url(#paint8_linear_3_1613)" stroke="url(#paint9_linear_3_1613)" stroke-width="2"/>
<path d="M88.0354 125.121C88.9751 123.915 90.9072 124.503 91.0161 126.028L91.4724 132.418C91.6787 135.306 88.924 137.504 86.1533 136.661C83.3826 135.819 82.3182 132.459 84.0981 130.175L88.0354 125.121Z" fill="url(#paint10_linear_3_1613)" stroke="url(#paint11_linear_3_1613)" stroke-width="2"/>
</g>
<g filter="url(#filter4_bdd_3_1613)">
<path d="M49.2112 142.822C50.1509 141.616 52.083 142.204 52.1919 143.729L52.6482 150.119C52.8545 153.008 50.0998 155.205 47.3291 154.363C44.5584 153.52 43.494 150.16 45.2739 147.876L49.2112 142.822Z" fill="url(#paint12_linear_3_1613)" stroke="url(#paint13_linear_3_1613)" stroke-width="2"/>
<path d="M68.1042 142.822C69.044 141.616 70.9761 142.204 71.085 143.729L71.5413 150.119C71.7476 153.008 68.9929 155.205 66.2221 154.363C63.4514 153.52 62.3871 150.16 64.167 147.876L68.1042 142.822Z" fill="url(#paint14_linear_3_1613)" stroke="url(#paint15_linear_3_1613)" stroke-width="2"/>
</g>
<defs>
<filter id="filter0_bdd_3_1613" x="-6.48926" y="0.893555" width="154.551" height="151.744" filterUnits="userSpaceOnUse" color-interpolation-filters="sRGB">
<feFlood flood-opacity="0" result="BackgroundImageFix"/>
<feGaussianBlur in="BackgroundImageFix" stdDeviation="7"/>
<feComposite in2="SourceAlpha" operator="in" result="effect1_backgroundBlur_3_1613"/>
<feColorMatrix in="SourceAlpha" type="matrix" values="0 0 0 0 0 0 0 0 0 0 0 0 0 0 0 0 0 0 127 0" result="hardAlpha"/>
<feOffset dx="-21" dy="15"/>
<feGaussianBlur stdDeviation="25"/>
<feComposite in2="hardAlpha" operator="out"/>
<feColorMatrix type="matrix" values="0 0 0 0 0.113438 0 0 0 0 0.148981 0 0 0 0 0.275 0 0 0 0.25 0"/>
<feBlend mode="normal" in2="effect1_backgroundBlur_3_1613" result="effect2_dropShadow_3_1613"/>
<feColorMatrix in="SourceAlpha" type="matrix" values="0 0 0 0 0 0 0 0 0 0 0 0 0 0 0 0 0 0 127 0" result="hardAlpha"/>
<feOffset/>
<feGaussianBlur stdDeviation="19"/>
<feComposite in2="hardAlpha" operator="out"/>
<feColorMatrix type="matrix" values="0 0 0 0 0.619608 0 0 0 0 0.423529 0 0 0 0 1 0 0 0 0.4 0"/>
<feBlend mode="normal" in2="effect2_dropShadow_3_1613" result="effect3_dropShadow_3_1613"/>
<feBlend mode="normal" in="SourceGraphic" in2="effect3_dropShadow_3_1613" result="shape"/>
</filter>
<filter id="filter1_bd_3_1613" x="-51" y="31.3008" width="192.547" height="162.605" filterUnits="userSpaceOnUse" color-interpolation-filters="sRGB">
<feFlood flood-opacity="0" result="BackgroundImageFix"/>
<feGaussianBlur in="BackgroundImageFix" stdDeviation="7"/>
<feComposite in2="SourceAlpha" operator="in" result="effect1_backgroundBlur_3_1613"/>
<feColorMatrix in="SourceAlpha" type="matrix" values="0 0 0 0 0 0 0 0 0 0 0 0 0 0 0 0 0 0 127 0" result="hardAlpha"/>
<feOffset dx="-21" dy="15"/>
<feGaussianBlur stdDeviation="25"/>
<feComposite in2="hardAlpha" operator="out"/>
<feColorMatrix type="matrix" values="0 0 0 0 0.113725 0 0 0 0 0.14902 0 0 0 0 0.27451 0 0 0 0.25 0"/>
<feBlend mode="normal" in2="effect1_backgroundBlur_3_1613" result="effect2_dropShadow_3_1613"/>
<feBlend mode="normal" in="SourceGraphic" in2="effect2_dropShadow_3_1613" result="shape"/>
</filter>
<filter id="filter2_bd_3_1613" x="0.328613" y="31.3008" width="166.883" height="145.244" filterUnits="userSpaceOnUse" color-interpolation-filters="sRGB">
<feFlood flood-opacity="0" result="BackgroundImageFix"/>
<feGaussianBlur in="BackgroundImageFix" stdDeviation="7"/>
<feComposite in2="SourceAlpha" operator="in" result="effect1_backgroundBlur_3_1613"/>
<feColorMatrix in="SourceAlpha" type="matrix" values="0 0 0 0 0 0 0 0 0 0 0 0 0 0 0 0 0 0 127 0" result="hardAlpha"/>
<feOffset dx="-21" dy="15"/>
<feGaussianBlur stdDeviation="25"/>
<feComposite in2="hardAlpha" operator="out"/>
<feColorMatrix type="matrix" values="0 0 0 0 0.113438 0 0 0 0 0.148981 0 0 0 0 0.275 0 0 0 0.25 0"/>
<feBlend mode="normal" in2="effect1_backgroundBlur_3_1613" result="effect2_dropShadow_3_1613"/>
<feBlend mode="normal" in="SourceGraphic" in2="effect2_dropShadow_3_1613" result="shape"/>
</filter>
<filter id="filter3_bdd_3_1613" x="-33.5005" y="75.4736" width="166.984" height="127.37" filterUnits="userSpaceOnUse" color-interpolation-filters="sRGB">
<feFlood flood-opacity="0" result="BackgroundImageFix"/>
<feGaussianBlur in="BackgroundImageFix" stdDeviation="7"/>
<feComposite in2="SourceAlpha" operator="in" result="effect1_backgroundBlur_3_1613"/>
<feColorMatrix in="SourceAlpha" type="matrix" values="0 0 0 0 0 0 0 0 0 0 0 0 0 0 0 0 0 0 127 0" result="hardAlpha"/>
<feOffset dx="-21" dy="15"/>
<feGaussianBlur stdDeviation="25"/>
<feComposite in2="hardAlpha" operator="out"/>
<feColorMatrix type="matrix" values="0 0 0 0 0.113438 0 0 0 0 0.148981 0 0 0 0 0.275 0 0 0 0.25 0"/>
<feBlend mode="normal" in2="effect1_backgroundBlur_3_1613" result="effect2_dropShadow_3_1613"/>
<feColorMatrix in="SourceAlpha" type="matrix" values="0 0 0 0 0 0 0 0 0 0 0 0 0 0 0 0 0 0 127 0" result="hardAlpha"/>
<feOffset dy="-7"/>
<feGaussianBlur stdDeviation="20.5"/>
<feComposite in2="hardAlpha" operator="out"/>
<feColorMatrix type="matrix" values="0 0 0 0 0.1375 0 0 0 0 0.74125 0 0 0 0 1 0 0 0 0.3 0"/>
<feBlend mode="normal" in2="effect2_dropShadow_3_1613" result="effect3_dropShadow_3_1613"/>
<feBlend mode="normal" in="SourceGraphic" in2="effect3_dropShadow_3_1613" result="shape"/>
</filter>
<filter id="filter4_bdd_3_1613" x="-27.6006" y="93.1748" width="141.153" height="127.37" filterUnits="userSpaceOnUse" color-interpolation-filters="sRGB">
<feFlood flood-opacity="0" result="BackgroundImageFix"/>
<feGaussianBlur in="BackgroundImageFix" stdDeviation="7"/>
<feComposite in2="SourceAlpha" operator="in" result="effect1_backgroundBlur_3_1613"/>
<feColorMatrix in="SourceAlpha" type="matrix" values="0 0 0 0 0 0 0 0 0 0 0 0 0 0 0 0 0 0 127 0" result="hardAlpha"/>
<feOffset dx="-21" dy="15"/>
<feGaussianBlur stdDeviation="25"/>
<feComposite in2="hardAlpha" operator="out"/>
<feColorMatrix type="matrix" values="0 0 0 0 0.113438 0 0 0 0 0.148981 0 0 0 0 0.275 0 0 0 0.25 0"/>
<feBlend mode="normal" in2="effect1_backgroundBlur_3_1613" result="effect2_dropShadow_3_1613"/>
<feColorMatrix in="SourceAlpha" type="matrix" values="0 0 0 0 0 0 0 0 0 0 0 0 0 0 0 0 0 0 127 0" result="hardAlpha"/>
<feOffset dy="-7"/>
<feGaussianBlur stdDeviation="20.5"/>
<feComposite in2="hardAlpha" operator="out"/>
<feColorMatrix type="matrix" values="0 0 0 0 0.1375 0 0 0 0 0.74125 0 0 0 0 1 0 0 0 0.3 0"/>
<feBlend mode="normal" in2="effect2_dropShadow_3_1613" result="effect3_dropShadow_3_1613"/>
<feBlend mode="normal" in="SourceGraphic" in2="effect3_dropShadow_3_1613" result="shape"/>
</filter>
<linearGradient id="paint0_linear_3_1613" x1="71.7819" y1="43.7922" x2="94.8499" y2="88.6394" gradientUnits="userSpaceOnUse">
<stop offset="0.0001" stop-color="#D4C0FF"/>
<stop offset="1" stop-color="#7E2FFF"/>
</linearGradient>
<linearGradient id="paint1_linear_3_1613" x1="73.1245" y1="19.7335" x2="85.9554" y2="78.56" gradientUnits="userSpaceOnUse">
<stop stop-color="white"/>
<stop offset="1" stop-color="white" stop-opacity="0"/>
</linearGradient>
<linearGradient id="paint2_linear_3_1613" x1="66.2737" y1="46.2748" x2="66.2737" y2="137.656" gradientUnits="userSpaceOnUse">
<stop stop-color="white"/>
<stop offset="1" stop-color="white" stop-opacity="0"/>
</linearGradient>
<linearGradient id="paint3_linear_3_1613" x1="66.2737" y1="66.3008" x2="66.2737" y2="128.906" gradientUnits="userSpaceOnUse">
<stop stop-color="white"/>
<stop offset="1" stop-color="white" stop-opacity="0"/>
</linearGradient>
<linearGradient id="paint4_linear_3_1613" x1="107.881" y1="67.6618" x2="107.881" y2="116.657" gradientUnits="userSpaceOnUse">
<stop stop-color="white"/>
<stop offset="1" stop-color="white" stop-opacity="0"/>
</linearGradient>
<linearGradient id="paint5_linear_3_1613" x1="104.77" y1="66.3008" x2="104.77" y2="111.545" gradientUnits="userSpaceOnUse">
<stop stop-color="white"/>
<stop offset="1" stop-color="white" stop-opacity="0"/>
</linearGradient>
<linearGradient id="paint6_linear_3_1613" x1="46.7944" y1="119.023" x2="41.1382" y2="137.618" gradientUnits="userSpaceOnUse">
<stop stop-color="#138EFF"/>
<stop offset="1" stop-color="#00E0FF"/>
</linearGradient>
<linearGradient id="paint7_linear_3_1613" x1="46.7944" y1="119.023" x2="41.1382" y2="137.618" gradientUnits="userSpaceOnUse">
<stop stop-color="white"/>
<stop offset="1" stop-color="white" stop-opacity="0"/>
</linearGradient>
<linearGradient id="paint8_linear_3_1613" x1="69.1562" y1="119.023" x2="63.5" y2="137.618" gradientUnits="userSpaceOnUse">
<stop stop-color="#138EFF"/>
<stop offset="1" stop-color="#00E0FF"/>
</linearGradient>
<linearGradient id="paint9_linear_3_1613" x1="69.1562" y1="119.023" x2="63.5" y2="137.618" gradientUnits="userSpaceOnUse">
<stop stop-color="white"/>
<stop offset="1" stop-color="white" stop-opacity="0"/>
</linearGradient>
<linearGradient id="paint10_linear_3_1613" x1="91.5185" y1="119.023" x2="85.8623" y2="137.618" gradientUnits="userSpaceOnUse">
<stop stop-color="#138EFF"/>
<stop offset="1" stop-color="#00E0FF"/>
</linearGradient>
<linearGradient id="paint11_linear_3_1613" x1="91.5185" y1="119.023" x2="85.8623" y2="137.618" gradientUnits="userSpaceOnUse">
<stop stop-color="white"/>
<stop offset="1" stop-color="white" stop-opacity="0"/>
</linearGradient>
<linearGradient id="paint12_linear_3_1613" x1="52.6943" y1="136.724" x2="47.0381" y2="155.319" gradientUnits="userSpaceOnUse">
<stop stop-color="#138EFF"/>
<stop offset="1" stop-color="#00E0FF"/>
</linearGradient>
<linearGradient id="paint13_linear_3_1613" x1="52.6943" y1="136.724" x2="47.0381" y2="155.319" gradientUnits="userSpaceOnUse">
<stop stop-color="white"/>
<stop offset="1" stop-color="white" stop-opacity="0"/>
</linearGradient>
<linearGradient id="paint14_linear_3_1613" x1="71.5874" y1="136.724" x2="65.9311" y2="155.319" gradientUnits="userSpaceOnUse">
<stop stop-color="#138EFF"/>
<stop offset="1" stop-color="#00E0FF"/>
</linearGradient>
<linearGradient id="paint15_linear_3_1613" x1="71.5874" y1="136.724" x2="65.9311" y2="155.319" gradientUnits="userSpaceOnUse">
<stop stop-color="white"/>
<stop offset="1" stop-color="white" stop-opacity="0"/>
</linearGradient>
</defs>
</svg>
