<svg width="225" height="214" viewBox="0 0 225 214" fill="none" xmlns="http://www.w3.org/2000/svg">
<g filter="url(#filter0_bd_3_1617)">
<mask id="path-1-inside-1_3_1617" fill="white">
<path fill-rule="evenodd" clip-rule="evenodd" d="M125.749 80.9755C125.796 80.976 125.843 80.9763 125.89 80.9763C132.564 80.9763 137.974 75.5661 137.974 68.8924C137.974 62.2186 132.564 56.8085 125.89 56.8085C125.843 56.8085 125.796 56.8088 125.749 56.8093V56.8085H122.628C122.74 55.9815 122.799 55.1372 122.799 54.2793C122.799 44.0359 114.495 35.7319 104.251 35.7319C94.0078 35.7319 85.7039 44.0359 85.7039 54.2793C85.7039 55.2459 85.7778 56.1951 85.9204 57.1218C85.0383 56.9168 84.1192 56.8085 83.1747 56.8085C76.501 56.8085 71.0908 62.2186 71.0908 68.8924C71.0908 75.5661 76.501 80.9763 83.1747 80.9763C83.2218 80.9763 83.2689 80.976 83.3158 80.9755L83.3152 80.9763H125.749V80.9755Z"/>
</mask>
<path fill-rule="evenodd" clip-rule="evenodd" d="M125.749 80.9755C125.796 80.976 125.843 80.9763 125.89 80.9763C132.564 80.9763 137.974 75.5661 137.974 68.8924C137.974 62.2186 132.564 56.8085 125.89 56.8085C125.843 56.8085 125.796 56.8088 125.749 56.8093V56.8085H122.628C122.74 55.9815 122.799 55.1372 122.799 54.2793C122.799 44.0359 114.495 35.7319 104.251 35.7319C94.0078 35.7319 85.7039 44.0359 85.7039 54.2793C85.7039 55.2459 85.7778 56.1951 85.9204 57.1218C85.0383 56.9168 84.1192 56.8085 83.1747 56.8085C76.501 56.8085 71.0908 62.2186 71.0908 68.8924C71.0908 75.5661 76.501 80.9763 83.1747 80.9763C83.2218 80.9763 83.2689 80.976 83.3158 80.9755L83.3152 80.9763H125.749V80.9755Z" fill="url(#paint0_linear_3_1617)" shape-rendering="crispEdges"/>
<path d="M125.749 80.9755L125.772 78.9756C125.238 78.9695 124.723 79.1775 124.343 79.5532C123.963 79.9289 123.749 80.4411 123.749 80.9755H125.749ZM125.749 56.8093H123.749C123.749 57.3437 123.963 57.8558 124.343 58.2315C124.723 58.6072 125.238 58.8152 125.772 58.8092L125.749 56.8093ZM125.749 56.8085H127.749C127.749 55.7039 126.854 54.8085 125.749 54.8085V56.8085ZM122.628 56.8085L120.646 56.5383C120.568 57.1106 120.741 57.6886 121.121 58.1237C121.501 58.5588 122.05 58.8085 122.628 58.8085V56.8085ZM85.9204 57.1218L85.4677 59.0699C86.1143 59.2201 86.7933 59.0398 87.28 58.5885C87.7668 58.1372 87.998 57.4738 87.8971 56.8178L85.9204 57.1218ZM83.3158 80.9755L84.8878 82.2119C85.3638 81.6068 85.4502 80.782 85.1098 80.0914C84.7695 79.4007 84.0628 78.9668 83.2929 78.9756L83.3158 80.9755ZM83.3152 80.9763L81.7432 79.7398C81.2697 80.3418 81.1816 81.1612 81.5162 81.8501C81.8508 82.539 82.5494 82.9763 83.3152 82.9763V80.9763ZM125.749 80.9763V82.9763C126.854 82.9763 127.749 82.0809 127.749 80.9763H125.749ZM125.727 82.9754C125.781 82.976 125.835 82.9763 125.89 82.9763V78.9763C125.851 78.9763 125.811 78.9761 125.772 78.9756L125.727 82.9754ZM125.89 82.9763C133.668 82.9763 139.974 76.6707 139.974 68.8924H135.974C135.974 74.4616 131.459 78.9763 125.89 78.9763V82.9763ZM139.974 68.8924C139.974 61.1141 133.668 54.8085 125.89 54.8085V58.8085C131.459 58.8085 135.974 63.3232 135.974 68.8924H139.974ZM125.89 54.8085C125.835 54.8085 125.781 54.8088 125.727 54.8094L125.772 58.8092C125.811 58.8087 125.851 58.8085 125.89 58.8085V54.8085ZM123.749 56.8085V56.8093H127.749V56.8085H123.749ZM122.628 58.8085H125.749V54.8085H122.628V58.8085ZM124.609 57.0787C124.734 56.1624 124.799 55.2279 124.799 54.2793H120.799C120.799 55.0466 120.747 55.8006 120.646 56.5383L124.609 57.0787ZM124.799 54.2793C124.799 42.9313 115.599 33.7319 104.251 33.7319V37.7319C113.39 37.7319 120.799 45.1404 120.799 54.2793H124.799ZM104.251 33.7319C92.9033 33.7319 83.7039 42.9313 83.7039 54.2793H87.7039C87.7039 45.1404 95.1124 37.7319 104.251 37.7319V33.7319ZM83.7039 54.2793C83.7039 55.348 83.7857 56.3989 83.9436 57.4258L87.8971 56.8178C87.77 55.9914 87.7039 55.1437 87.7039 54.2793H83.7039ZM86.373 55.1737C85.3436 54.9345 84.2726 54.8085 83.1747 54.8085V58.8085C83.9657 58.8085 84.733 58.8992 85.4677 59.0699L86.373 55.1737ZM83.1747 54.8085C75.3964 54.8085 69.0908 61.1141 69.0908 68.8924H73.0908C73.0908 63.3232 77.6055 58.8085 83.1747 58.8085V54.8085ZM69.0908 68.8924C69.0908 76.6707 75.3964 82.9763 83.1747 82.9763V78.9763C77.6055 78.9763 73.0908 74.4616 73.0908 68.8924H69.0908ZM83.1747 82.9763C83.2295 82.9763 83.2842 82.976 83.3387 82.9754L83.2929 78.9756C83.2536 78.9761 83.2142 78.9763 83.1747 78.9763V82.9763ZM84.8872 82.2128L84.8878 82.2119L81.7438 79.739L81.7432 79.7398L84.8872 82.2128ZM125.749 78.9763H83.3152V82.9763H125.749V78.9763ZM123.749 80.9755V80.9763H127.749V80.9755H123.749Z" fill="url(#paint1_linear_3_1617)" mask="url(#path-1-inside-1_3_1617)"/>
</g>
<g filter="url(#filter1_bd_3_1617)">
<mask id="path-3-inside-2_3_1617" fill="white">
<path fill-rule="evenodd" clip-rule="evenodd" d="M162.277 111.946C162.342 111.947 162.407 111.947 162.472 111.947C171.706 111.947 179.192 104.461 179.192 95.2266C179.192 85.992 171.706 78.5059 162.472 78.5059C162.407 78.5059 162.342 78.5062 162.277 78.507V78.5059H157.958C158.114 77.3616 158.194 76.1933 158.194 75.0062C158.194 60.8321 146.704 49.3418 132.53 49.3418C118.356 49.3418 106.865 60.8321 106.865 75.0062C106.865 76.3436 106.968 77.6571 107.165 78.9394C105.944 78.6558 104.673 78.5059 103.366 78.5059C94.1312 78.5059 86.645 85.992 86.645 95.2266C86.645 104.461 94.1312 111.947 103.366 111.947C103.431 111.947 103.496 111.947 103.561 111.946L103.56 111.947H162.277V111.946Z"/>
</mask>
<path fill-rule="evenodd" clip-rule="evenodd" d="M162.277 111.946C162.342 111.947 162.407 111.947 162.472 111.947C171.706 111.947 179.192 104.461 179.192 95.2266C179.192 85.992 171.706 78.5059 162.472 78.5059C162.407 78.5059 162.342 78.5062 162.277 78.507V78.5059H157.958C158.114 77.3616 158.194 76.1933 158.194 75.0062C158.194 60.8321 146.704 49.3418 132.53 49.3418C118.356 49.3418 106.865 60.8321 106.865 75.0062C106.865 76.3436 106.968 77.6571 107.165 78.9394C105.944 78.6558 104.673 78.5059 103.366 78.5059C94.1312 78.5059 86.645 85.992 86.645 95.2266C86.645 104.461 94.1312 111.947 103.366 111.947C103.431 111.947 103.496 111.947 103.561 111.946L103.56 111.947H162.277V111.946Z" fill="url(#paint2_linear_3_1617)" shape-rendering="crispEdges"/>
<path d="M162.277 111.946L162.3 109.946C161.766 109.94 161.251 110.148 160.871 110.524C160.491 110.9 160.277 111.412 160.277 111.946H162.277ZM162.277 78.507H160.277C160.277 79.0413 160.491 79.5535 160.871 79.9292C161.251 80.3049 161.766 80.5129 162.3 80.5068L162.277 78.507ZM162.277 78.5059H164.277C164.277 77.4013 163.382 76.5059 162.277 76.5059V78.5059ZM157.958 78.5059L155.976 78.2357C155.898 78.8079 156.071 79.386 156.451 79.8211C156.831 80.2562 157.38 80.5059 157.958 80.5059V78.5059ZM107.165 78.9394L106.712 80.8875C107.359 81.0377 108.038 80.8573 108.525 80.4061C109.011 79.9548 109.243 79.2914 109.142 78.6353L107.165 78.9394ZM103.561 111.946L105.132 113.184C105.609 112.58 105.696 111.754 105.356 111.063C105.015 110.372 104.309 109.938 103.538 109.946L103.561 111.946ZM103.56 111.947L101.99 110.709C101.515 111.311 101.426 112.131 101.761 112.82C102.095 113.51 102.794 113.947 103.56 113.947V111.947ZM162.277 111.947V113.947C163.382 113.947 164.277 113.052 164.277 111.947H162.277ZM162.254 113.946C162.327 113.947 162.399 113.947 162.472 113.947V109.947C162.414 109.947 162.357 109.947 162.3 109.946L162.254 113.946ZM162.472 113.947C172.811 113.947 181.192 105.566 181.192 95.2266H177.192C177.192 103.357 170.602 109.947 162.472 109.947V113.947ZM181.192 95.2266C181.192 84.8874 172.811 76.5059 162.472 76.5059V80.5059C170.602 80.5059 177.192 87.0966 177.192 95.2266H181.192ZM162.472 76.5059C162.399 76.5059 162.327 76.5063 162.254 76.5071L162.3 80.5068C162.357 80.5062 162.414 80.5059 162.472 80.5059V76.5059ZM160.277 78.5059V78.507H164.277V78.5059H160.277ZM157.958 80.5059H162.277V76.5059H157.958V80.5059ZM159.939 78.7761C160.108 77.5425 160.194 76.2839 160.194 75.0062H156.194C156.194 76.1027 156.12 77.1807 155.976 78.2357L159.939 78.7761ZM160.194 75.0062C160.194 59.7276 147.809 47.3418 132.53 47.3418V51.3418C145.599 51.3418 156.194 61.9367 156.194 75.0062H160.194ZM132.53 47.3418C117.251 47.3418 104.865 59.7276 104.865 75.0062H108.865C108.865 61.9367 119.46 51.3418 132.53 51.3418V47.3418ZM104.865 75.0062C104.865 76.4458 104.976 77.8609 105.188 79.2434L109.142 78.6353C108.96 77.4534 108.865 76.2415 108.865 75.0062H104.865ZM107.618 76.9913C106.25 76.6734 104.826 76.5059 103.366 76.5059V80.5059C104.519 80.5059 105.639 80.6381 106.712 80.8875L107.618 76.9913ZM103.366 76.5059C93.0266 76.5059 84.645 84.8874 84.645 95.2266H88.645C88.645 87.0966 95.2357 80.5059 103.366 80.5059V76.5059ZM84.645 95.2266C84.645 105.566 93.0266 113.947 103.366 113.947V109.947C95.2357 109.947 88.645 103.357 88.645 95.2266H84.645ZM103.366 113.947C103.439 113.947 103.511 113.947 103.584 113.946L103.538 109.946C103.481 109.947 103.423 109.947 103.366 109.947V113.947ZM105.131 113.186L105.132 113.184L101.99 110.708L101.99 110.709L105.131 113.186ZM162.277 109.947H103.56V113.947H162.277V109.947ZM160.277 111.946V111.947H164.277V111.946H160.277Z" fill="url(#paint3_linear_3_1617)" mask="url(#path-3-inside-2_3_1617)"/>
</g>
<g filter="url(#filter2_bdd_3_1617)">
<path d="M150.867 116.182L168.124 84.602C168.475 83.9602 169.148 83.561 169.879 83.561H185.414C186.917 83.561 187.883 85.1574 187.185 86.489L177.421 105.131C176.723 106.463 177.689 108.059 179.192 108.059H188.718C190.447 108.059 191.361 110.104 190.208 111.392L157.304 148.168C155.83 149.816 153.166 148.206 153.94 146.134L163.018 121.841C163.506 120.534 162.54 119.141 161.145 119.141H152.623C151.104 119.141 150.139 117.515 150.867 116.182Z" fill="url(#paint4_linear_3_1617)"/>
<path d="M151.745 116.662L169.002 85.0815C169.177 84.7606 169.514 84.561 169.879 84.561H185.414C186.165 84.561 186.648 85.3592 186.3 86.025L176.535 104.667C175.489 106.664 176.937 109.059 179.192 109.059H188.718C189.582 109.059 190.039 110.081 189.463 110.726L156.559 147.501C155.822 148.325 154.49 147.52 154.877 146.484L163.955 122.191C164.687 120.231 163.238 118.141 161.145 118.141H152.623C151.863 118.141 151.381 117.328 151.745 116.662Z" stroke="url(#paint5_linear_3_1617)" stroke-width="2"/>
</g>
<g filter="url(#filter3_bd_3_1617)">
<mask id="path-7-inside-3_3_1617" fill="white">
<path fill-rule="evenodd" clip-rule="evenodd" d="M192.632 94.5853C192.679 94.5859 192.726 94.5861 192.773 94.5861C199.446 94.5861 204.857 89.176 204.857 82.5022C204.857 75.8285 199.446 70.4183 192.773 70.4183C192.726 70.4183 192.679 70.4186 192.632 70.4191V70.4183H189.51C189.623 69.5914 189.681 68.7471 189.681 67.8892C189.681 57.6457 181.378 49.3418 171.134 49.3418C160.891 49.3418 152.587 57.6457 152.587 67.8892C152.587 68.8557 152.661 69.805 152.803 70.7316C151.921 70.5267 151.002 70.4183 150.058 70.4183C143.384 70.4183 137.974 75.8285 137.974 82.5022C137.974 89.176 143.384 94.5861 150.058 94.5861C150.105 94.5861 150.152 94.5859 150.199 94.5853L150.198 94.5861H192.632V94.5853Z"/>
</mask>
<path fill-rule="evenodd" clip-rule="evenodd" d="M192.632 94.5853C192.679 94.5859 192.726 94.5861 192.773 94.5861C199.446 94.5861 204.857 89.176 204.857 82.5022C204.857 75.8285 199.446 70.4183 192.773 70.4183C192.726 70.4183 192.679 70.4186 192.632 70.4191V70.4183H189.51C189.623 69.5914 189.681 68.7471 189.681 67.8892C189.681 57.6457 181.378 49.3418 171.134 49.3418C160.891 49.3418 152.587 57.6457 152.587 67.8892C152.587 68.8557 152.661 69.805 152.803 70.7316C151.921 70.5267 151.002 70.4183 150.058 70.4183C143.384 70.4183 137.974 75.8285 137.974 82.5022C137.974 89.176 143.384 94.5861 150.058 94.5861C150.105 94.5861 150.152 94.5859 150.199 94.5853L150.198 94.5861H192.632V94.5853Z" fill="url(#paint6_linear_3_1617)" shape-rendering="crispEdges"/>
<path d="M192.632 94.5853L192.655 92.5855C192.121 92.5794 191.606 92.7874 191.226 93.1631C190.846 93.5388 190.632 94.0509 190.632 94.5853H192.632ZM192.632 70.4191H190.632C190.632 70.9535 190.846 71.4657 191.226 71.8414C191.606 72.2171 192.121 72.4251 192.655 72.419L192.632 70.4191ZM192.632 70.4183H194.632C194.632 69.3138 193.737 68.4183 192.632 68.4183V70.4183ZM189.51 70.4183L187.529 70.1481C187.451 70.7204 187.624 71.2985 188.004 71.7336C188.384 72.1687 188.933 72.4183 189.51 72.4183V70.4183ZM152.803 70.7316L152.351 72.6797C152.997 72.83 153.676 72.6496 154.163 72.1983C154.65 71.7471 154.881 71.0837 154.78 70.4276L152.803 70.7316ZM150.199 94.5853L151.77 95.8229C152.246 95.2179 152.333 94.3929 151.993 93.7019C151.653 93.0109 150.946 92.5766 150.176 92.5855L150.199 94.5853ZM150.198 94.5861L148.627 93.3485C148.153 93.9503 148.064 94.7701 148.399 95.4593C148.733 96.1485 149.432 96.5861 150.198 96.5861V94.5861ZM192.632 94.5861V96.5861C193.737 96.5861 194.632 95.6907 194.632 94.5861H192.632ZM192.609 96.5852C192.664 96.5858 192.718 96.5861 192.773 96.5861V92.5861C192.733 92.5861 192.694 92.5859 192.655 92.5855L192.609 96.5852ZM192.773 96.5861C200.551 96.5861 206.857 90.2806 206.857 82.5022H202.857C202.857 88.0714 198.342 92.5861 192.773 92.5861V96.5861ZM206.857 82.5022C206.857 74.7239 200.551 68.4183 192.773 68.4183V72.4183C198.342 72.4183 202.857 76.9331 202.857 82.5022H206.857ZM192.773 68.4183C192.718 68.4183 192.664 68.4186 192.609 68.4193L192.655 72.419C192.694 72.4186 192.733 72.4183 192.773 72.4183V68.4183ZM190.632 70.4183V70.4191H194.632V70.4183H190.632ZM189.51 72.4183H192.632V68.4183H189.51V72.4183ZM191.492 70.6885C191.617 69.7723 191.681 68.8377 191.681 67.8892H187.681C187.681 68.6564 187.629 69.4105 187.529 70.1481L191.492 70.6885ZM191.681 67.8892C191.681 56.5412 182.482 47.3418 171.134 47.3418V51.3418C180.273 51.3418 187.681 58.7503 187.681 67.8892H191.681ZM171.134 47.3418C159.786 47.3418 150.587 56.5412 150.587 67.8892H154.587C154.587 58.7503 161.995 51.3418 171.134 51.3418V47.3418ZM150.587 67.8892C150.587 68.9578 150.668 70.0087 150.826 71.0356L154.78 70.4276C154.653 69.6012 154.587 68.7536 154.587 67.8892H150.587ZM153.256 68.7835C152.226 68.5443 151.155 68.4183 150.058 68.4183V72.4183C150.849 72.4183 151.616 72.509 152.351 72.6797L153.256 68.7835ZM150.058 68.4183C142.279 68.4183 135.974 74.7239 135.974 82.5022H139.974C139.974 76.9331 144.488 72.4183 150.058 72.4183V68.4183ZM135.974 82.5022C135.974 90.2806 142.279 96.5861 150.058 96.5861V92.5861C144.488 92.5861 139.974 88.0714 139.974 82.5022H135.974ZM150.058 96.5861C150.112 96.5861 150.167 96.5858 150.222 96.5852L150.176 92.5855C150.136 92.5859 150.097 92.5861 150.058 92.5861V96.5861ZM151.769 95.8237L151.77 95.8229L148.628 93.3477L148.627 93.3485L151.769 95.8237ZM192.632 92.5861H150.198V96.5861H192.632V92.5861ZM190.632 94.5853V94.5861H194.632V94.5853H190.632Z" fill="url(#paint7_linear_3_1617)" mask="url(#path-7-inside-3_3_1617)"/>
</g>
<g filter="url(#filter4_bdd_3_1617)">
<path d="M89.3469 117.495C90.2866 116.289 92.2188 116.877 92.3277 118.402L92.784 124.792C92.9902 127.68 90.2355 129.878 87.4648 129.035C84.6941 128.193 83.6298 124.833 85.4097 122.549L89.3469 117.495Z" fill="url(#paint8_linear_3_1617)" stroke="url(#paint9_linear_3_1617)" stroke-width="2"/>
<path d="M111.709 117.495C112.648 116.289 114.581 116.877 114.689 118.402L115.146 124.792C115.352 127.68 112.597 129.878 109.827 129.035C107.056 128.193 105.992 124.833 107.771 122.549L111.709 117.495Z" fill="url(#paint10_linear_3_1617)" stroke="url(#paint11_linear_3_1617)" stroke-width="2"/>
<path d="M134.071 117.495C135.011 116.289 136.943 116.877 137.052 118.402L137.508 124.792C137.714 127.68 134.96 129.878 132.189 129.035C129.418 128.193 128.354 124.833 130.134 122.549L134.071 117.495Z" fill="url(#paint12_linear_3_1617)" stroke="url(#paint13_linear_3_1617)" stroke-width="2"/>
</g>
<g filter="url(#filter5_bdd_3_1617)">
<path d="M97.9016 135.196C98.8413 133.99 100.773 134.577 100.882 136.102L101.339 142.492C101.545 145.381 98.7902 147.579 96.0195 146.736C93.2488 145.893 92.1845 142.534 93.9643 140.249L97.9016 135.196Z" fill="url(#paint14_linear_3_1617)" stroke="url(#paint15_linear_3_1617)" stroke-width="2"/>
<path d="M120.455 135.196C121.395 133.99 123.327 134.577 123.436 136.102L123.892 142.492C124.099 145.381 121.344 147.579 118.573 146.736C115.803 145.893 114.738 142.534 116.518 140.249L120.455 135.196Z" fill="url(#paint16_linear_3_1617)" stroke="url(#paint17_linear_3_1617)" stroke-width="2"/>
</g>
<defs>
<filter id="filter0_bd_3_1617" x="0.0908203" y="0.731934" width="166.883" height="145.244" filterUnits="userSpaceOnUse" color-interpolation-filters="sRGB">
<feFlood flood-opacity="0" result="BackgroundImageFix"/>
<feGaussianBlur in="BackgroundImageFix" stdDeviation="7"/>
<feComposite in2="SourceAlpha" operator="in" result="effect1_backgroundBlur_3_1617"/>
<feColorMatrix in="SourceAlpha" type="matrix" values="0 0 0 0 0 0 0 0 0 0 0 0 0 0 0 0 0 0 127 0" result="hardAlpha"/>
<feOffset dx="-21" dy="15"/>
<feGaussianBlur stdDeviation="25"/>
<feComposite in2="hardAlpha" operator="out"/>
<feColorMatrix type="matrix" values="0 0 0 0 0.113438 0 0 0 0 0.148981 0 0 0 0 0.275 0 0 0 0.25 0"/>
<feBlend mode="normal" in2="effect1_backgroundBlur_3_1617" result="effect2_dropShadow_3_1617"/>
<feBlend mode="normal" in="SourceGraphic" in2="effect2_dropShadow_3_1617" result="shape"/>
</filter>
<filter id="filter1_bd_3_1617" x="15.645" y="14.3418" width="192.547" height="162.605" filterUnits="userSpaceOnUse" color-interpolation-filters="sRGB">
<feFlood flood-opacity="0" result="BackgroundImageFix"/>
<feGaussianBlur in="BackgroundImageFix" stdDeviation="7"/>
<feComposite in2="SourceAlpha" operator="in" result="effect1_backgroundBlur_3_1617"/>
<feColorMatrix in="SourceAlpha" type="matrix" values="0 0 0 0 0 0 0 0 0 0 0 0 0 0 0 0 0 0 127 0" result="hardAlpha"/>
<feOffset dx="-21" dy="15"/>
<feGaussianBlur stdDeviation="25"/>
<feComposite in2="hardAlpha" operator="out"/>
<feColorMatrix type="matrix" values="0 0 0 0 0.113725 0 0 0 0 0.14902 0 0 0 0 0.27451 0 0 0 0.25 0"/>
<feBlend mode="normal" in2="effect1_backgroundBlur_3_1617" result="effect2_dropShadow_3_1617"/>
<feBlend mode="normal" in="SourceGraphic" in2="effect2_dropShadow_3_1617" result="shape"/>
</filter>
<filter id="filter2_bdd_3_1617" x="79.6196" y="22.561" width="172.102" height="191.287" filterUnits="userSpaceOnUse" color-interpolation-filters="sRGB">
<feFlood flood-opacity="0" result="BackgroundImageFix"/>
<feGaussianBlur in="BackgroundImageFix" stdDeviation="7"/>
<feComposite in2="SourceAlpha" operator="in" result="effect1_backgroundBlur_3_1617"/>
<feColorMatrix in="SourceAlpha" type="matrix" values="0 0 0 0 0 0 0 0 0 0 0 0 0 0 0 0 0 0 127 0" result="hardAlpha"/>
<feOffset dx="-21" dy="15"/>
<feGaussianBlur stdDeviation="25"/>
<feComposite in2="hardAlpha" operator="out"/>
<feColorMatrix type="matrix" values="0 0 0 0 0.113438 0 0 0 0 0.148981 0 0 0 0 0.275 0 0 0 0.25 0"/>
<feBlend mode="normal" in2="effect1_backgroundBlur_3_1617" result="effect2_dropShadow_3_1617"/>
<feColorMatrix in="SourceAlpha" type="matrix" values="0 0 0 0 0 0 0 0 0 0 0 0 0 0 0 0 0 0 127 0" result="hardAlpha"/>
<feOffset/>
<feGaussianBlur stdDeviation="30.5"/>
<feComposite in2="hardAlpha" operator="out"/>
<feColorMatrix type="matrix" values="0 0 0 0 1 0 0 0 0 0.721569 0 0 0 0 0.00392157 0 0 0 0.49 0"/>
<feBlend mode="normal" in2="effect2_dropShadow_3_1617" result="effect3_dropShadow_3_1617"/>
<feBlend mode="normal" in="SourceGraphic" in2="effect3_dropShadow_3_1617" result="shape"/>
</filter>
<filter id="filter3_bd_3_1617" x="66.9736" y="14.3418" width="166.883" height="145.244" filterUnits="userSpaceOnUse" color-interpolation-filters="sRGB">
<feFlood flood-opacity="0" result="BackgroundImageFix"/>
<feGaussianBlur in="BackgroundImageFix" stdDeviation="7"/>
<feComposite in2="SourceAlpha" operator="in" result="effect1_backgroundBlur_3_1617"/>
<feColorMatrix in="SourceAlpha" type="matrix" values="0 0 0 0 0 0 0 0 0 0 0 0 0 0 0 0 0 0 127 0" result="hardAlpha"/>
<feOffset dx="-21" dy="15"/>
<feGaussianBlur stdDeviation="25"/>
<feComposite in2="hardAlpha" operator="out"/>
<feColorMatrix type="matrix" values="0 0 0 0 0.113438 0 0 0 0 0.148981 0 0 0 0 0.275 0 0 0 0.25 0"/>
<feBlend mode="normal" in2="effect1_backgroundBlur_3_1617" result="effect2_dropShadow_3_1617"/>
<feBlend mode="normal" in="SourceGraphic" in2="effect2_dropShadow_3_1617" result="shape"/>
</filter>
<filter id="filter4_bdd_3_1617" x="12.5352" y="67.8481" width="166.984" height="127.37" filterUnits="userSpaceOnUse" color-interpolation-filters="sRGB">
<feFlood flood-opacity="0" result="BackgroundImageFix"/>
<feGaussianBlur in="BackgroundImageFix" stdDeviation="7"/>
<feComposite in2="SourceAlpha" operator="in" result="effect1_backgroundBlur_3_1617"/>
<feColorMatrix in="SourceAlpha" type="matrix" values="0 0 0 0 0 0 0 0 0 0 0 0 0 0 0 0 0 0 127 0" result="hardAlpha"/>
<feOffset dx="-21" dy="15"/>
<feGaussianBlur stdDeviation="25"/>
<feComposite in2="hardAlpha" operator="out"/>
<feColorMatrix type="matrix" values="0 0 0 0 0.113438 0 0 0 0 0.148981 0 0 0 0 0.275 0 0 0 0.25 0"/>
<feBlend mode="normal" in2="effect1_backgroundBlur_3_1617" result="effect2_dropShadow_3_1617"/>
<feColorMatrix in="SourceAlpha" type="matrix" values="0 0 0 0 0 0 0 0 0 0 0 0 0 0 0 0 0 0 127 0" result="hardAlpha"/>
<feOffset dy="-7"/>
<feGaussianBlur stdDeviation="20.5"/>
<feComposite in2="hardAlpha" operator="out"/>
<feColorMatrix type="matrix" values="0 0 0 0 0.1375 0 0 0 0 0.74125 0 0 0 0 1 0 0 0 0.3 0"/>
<feBlend mode="normal" in2="effect2_dropShadow_3_1617" result="effect3_dropShadow_3_1617"/>
<feBlend mode="normal" in="SourceGraphic" in2="effect3_dropShadow_3_1617" result="shape"/>
</filter>
<filter id="filter5_bdd_3_1617" x="21.0898" y="85.5488" width="144.813" height="127.37" filterUnits="userSpaceOnUse" color-interpolation-filters="sRGB">
<feFlood flood-opacity="0" result="BackgroundImageFix"/>
<feGaussianBlur in="BackgroundImageFix" stdDeviation="7"/>
<feComposite in2="SourceAlpha" operator="in" result="effect1_backgroundBlur_3_1617"/>
<feColorMatrix in="SourceAlpha" type="matrix" values="0 0 0 0 0 0 0 0 0 0 0 0 0 0 0 0 0 0 127 0" result="hardAlpha"/>
<feOffset dx="-21" dy="15"/>
<feGaussianBlur stdDeviation="25"/>
<feComposite in2="hardAlpha" operator="out"/>
<feColorMatrix type="matrix" values="0 0 0 0 0.113438 0 0 0 0 0.148981 0 0 0 0 0.275 0 0 0 0.25 0"/>
<feBlend mode="normal" in2="effect1_backgroundBlur_3_1617" result="effect2_dropShadow_3_1617"/>
<feColorMatrix in="SourceAlpha" type="matrix" values="0 0 0 0 0 0 0 0 0 0 0 0 0 0 0 0 0 0 127 0" result="hardAlpha"/>
<feOffset dy="-7"/>
<feGaussianBlur stdDeviation="20.5"/>
<feComposite in2="hardAlpha" operator="out"/>
<feColorMatrix type="matrix" values="0 0 0 0 0.1375 0 0 0 0 0.74125 0 0 0 0 1 0 0 0 0.3 0"/>
<feBlend mode="normal" in2="effect2_dropShadow_3_1617" result="effect3_dropShadow_3_1617"/>
<feBlend mode="normal" in="SourceGraphic" in2="effect3_dropShadow_3_1617" result="shape"/>
</filter>
<linearGradient id="paint0_linear_3_1617" x1="107.643" y1="37.0929" x2="107.643" y2="86.0886" gradientUnits="userSpaceOnUse">
<stop stop-color="white"/>
<stop offset="1" stop-color="white" stop-opacity="0"/>
</linearGradient>
<linearGradient id="paint1_linear_3_1617" x1="104.532" y1="35.7319" x2="104.532" y2="80.9763" gradientUnits="userSpaceOnUse">
<stop stop-color="white"/>
<stop offset="1" stop-color="white" stop-opacity="0"/>
</linearGradient>
<linearGradient id="paint2_linear_3_1617" x1="132.919" y1="29.3158" x2="132.919" y2="120.697" gradientUnits="userSpaceOnUse">
<stop stop-color="white"/>
<stop offset="1" stop-color="white" stop-opacity="0"/>
</linearGradient>
<linearGradient id="paint3_linear_3_1617" x1="132.919" y1="49.3418" x2="132.919" y2="111.947" gradientUnits="userSpaceOnUse">
<stop stop-color="white"/>
<stop offset="1" stop-color="white" stop-opacity="0"/>
</linearGradient>
<linearGradient id="paint4_linear_3_1617" x1="175.498" y1="87.8384" x2="165.777" y2="130.029" gradientUnits="userSpaceOnUse">
<stop stop-color="#FF4D00"/>
<stop offset="1" stop-color="#FFB800"/>
</linearGradient>
<linearGradient id="paint5_linear_3_1617" x1="162.472" y1="129.446" x2="180.164" y2="91.5326" gradientUnits="userSpaceOnUse">
<stop stop-color="white"/>
<stop offset="1" stop-color="white" stop-opacity="0"/>
</linearGradient>
<linearGradient id="paint6_linear_3_1617" x1="174.526" y1="50.7028" x2="174.526" y2="99.6985" gradientUnits="userSpaceOnUse">
<stop stop-color="white"/>
<stop offset="1" stop-color="white" stop-opacity="0"/>
</linearGradient>
<linearGradient id="paint7_linear_3_1617" x1="171.415" y1="49.3418" x2="171.415" y2="94.5862" gradientUnits="userSpaceOnUse">
<stop stop-color="white"/>
<stop offset="1" stop-color="white" stop-opacity="0"/>
</linearGradient>
<linearGradient id="paint8_linear_3_1617" x1="92.83" y1="111.397" x2="87.1738" y2="129.992" gradientUnits="userSpaceOnUse">
<stop stop-color="#138EFF"/>
<stop offset="1" stop-color="#00E0FF"/>
</linearGradient>
<linearGradient id="paint9_linear_3_1617" x1="92.83" y1="111.397" x2="87.1738" y2="129.992" gradientUnits="userSpaceOnUse">
<stop stop-color="white"/>
<stop offset="1" stop-color="white" stop-opacity="0"/>
</linearGradient>
<linearGradient id="paint10_linear_3_1617" x1="115.192" y1="111.397" x2="109.536" y2="129.992" gradientUnits="userSpaceOnUse">
<stop stop-color="#138EFF"/>
<stop offset="1" stop-color="#00E0FF"/>
</linearGradient>
<linearGradient id="paint11_linear_3_1617" x1="115.192" y1="111.397" x2="109.536" y2="129.992" gradientUnits="userSpaceOnUse">
<stop stop-color="white"/>
<stop offset="1" stop-color="white" stop-opacity="0"/>
</linearGradient>
<linearGradient id="paint12_linear_3_1617" x1="137.554" y1="111.397" x2="131.898" y2="129.992" gradientUnits="userSpaceOnUse">
<stop stop-color="#138EFF"/>
<stop offset="1" stop-color="#00E0FF"/>
</linearGradient>
<linearGradient id="paint13_linear_3_1617" x1="137.554" y1="111.397" x2="131.898" y2="129.992" gradientUnits="userSpaceOnUse">
<stop stop-color="white"/>
<stop offset="1" stop-color="white" stop-opacity="0"/>
</linearGradient>
<linearGradient id="paint14_linear_3_1617" x1="101.385" y1="129.098" x2="95.7285" y2="147.693" gradientUnits="userSpaceOnUse">
<stop stop-color="#138EFF"/>
<stop offset="1" stop-color="#00E0FF"/>
</linearGradient>
<linearGradient id="paint15_linear_3_1617" x1="101.385" y1="129.098" x2="95.7285" y2="147.693" gradientUnits="userSpaceOnUse">
<stop stop-color="white"/>
<stop offset="1" stop-color="white" stop-opacity="0"/>
</linearGradient>
<linearGradient id="paint16_linear_3_1617" x1="123.938" y1="129.098" x2="118.282" y2="147.693" gradientUnits="userSpaceOnUse">
<stop stop-color="#138EFF"/>
<stop offset="1" stop-color="#00E0FF"/>
</linearGradient>
<linearGradient id="paint17_linear_3_1617" x1="123.938" y1="129.098" x2="118.282" y2="147.693" gradientUnits="userSpaceOnUse">
<stop stop-color="white"/>
<stop offset="1" stop-color="white" stop-opacity="0"/>
</linearGradient>
</defs>
</svg>
