<svg width="219" height="209" viewBox="0 0 219 209" fill="none" xmlns="http://www.w3.org/2000/svg">
<g filter="url(#filter0_bdd_3_1615)">
<path d="M102.125 110.46L119.382 78.8798C119.733 78.238 120.406 77.8389 121.137 77.8389H136.672C138.175 77.8389 139.141 79.4352 138.443 80.7669L128.679 99.4087C127.981 100.74 128.947 102.337 130.45 102.337H139.976C141.704 102.337 142.619 104.382 141.466 105.67L108.562 142.446C107.087 144.094 104.424 142.483 105.198 140.412L114.276 116.119C114.764 114.812 113.798 113.419 112.402 113.419H103.88C102.362 113.419 101.397 111.793 102.125 110.46Z" fill="url(#paint0_linear_3_1615)"/>
<path d="M103.003 110.94L120.26 79.3593C120.435 79.0385 120.772 78.8389 121.137 78.8389H136.672C137.423 78.8389 137.906 79.637 137.557 80.3029L127.793 98.9447C126.746 100.942 128.195 103.337 130.45 103.337H139.976C140.84 103.337 141.297 104.359 140.721 105.003L107.817 141.779C107.079 142.603 105.748 141.798 106.135 140.762L115.213 116.469C115.945 114.508 114.495 112.419 112.402 112.419H103.88C103.121 112.419 102.639 111.606 103.003 110.94Z" stroke="url(#paint1_linear_3_1615)" stroke-width="2"/>
</g>
<g filter="url(#filter1_bd_3_1615)">
<mask id="path-3-inside-1_3_1615" fill="white">
<path fill-rule="evenodd" clip-rule="evenodd" d="M146.976 97.6694C147.041 97.6701 147.106 97.6705 147.171 97.6705C156.406 97.6705 163.892 90.1844 163.892 80.9498C163.892 71.7152 156.406 64.229 147.171 64.229C147.106 64.229 147.041 64.2294 146.976 64.2301V64.229H142.657C142.813 63.0847 142.894 61.9164 142.894 60.7293C142.894 46.5553 131.403 35.0649 117.229 35.0649C103.055 35.0649 91.5647 46.5553 91.5647 60.7293C91.5647 62.0668 91.667 63.3803 91.8642 64.6625C90.6437 64.3789 89.3718 64.229 88.065 64.229C78.8304 64.229 71.3442 71.7152 71.3442 80.9498C71.3442 90.1844 78.8304 97.6705 88.065 97.6705C88.1302 97.6705 88.1953 97.6701 88.2603 97.6694L88.2595 97.6705H146.976V97.6694Z"/>
</mask>
<path fill-rule="evenodd" clip-rule="evenodd" d="M146.976 97.6694C147.041 97.6701 147.106 97.6705 147.171 97.6705C156.406 97.6705 163.892 90.1844 163.892 80.9498C163.892 71.7152 156.406 64.229 147.171 64.229C147.106 64.229 147.041 64.2294 146.976 64.2301V64.229H142.657C142.813 63.0847 142.894 61.9164 142.894 60.7293C142.894 46.5553 131.403 35.0649 117.229 35.0649C103.055 35.0649 91.5647 46.5553 91.5647 60.7293C91.5647 62.0668 91.667 63.3803 91.8642 64.6625C90.6437 64.3789 89.3718 64.229 88.065 64.229C78.8304 64.229 71.3442 71.7152 71.3442 80.9498C71.3442 90.1844 78.8304 97.6705 88.065 97.6705C88.1302 97.6705 88.1953 97.6701 88.2603 97.6694L88.2595 97.6705H146.976V97.6694Z" fill="url(#paint2_linear_3_1615)" shape-rendering="crispEdges"/>
<path d="M146.976 97.6694L146.999 95.6695C146.465 95.6635 145.95 95.8715 145.57 96.2472C145.19 96.6229 144.976 97.135 144.976 97.6694H146.976ZM146.976 64.2301H144.976C144.976 64.7645 145.19 65.2767 145.57 65.6524C145.95 66.0281 146.465 66.2361 146.999 66.23L146.976 64.2301ZM146.976 64.229H148.976C148.976 63.1245 148.081 62.229 146.976 62.229V64.229ZM142.657 64.229L140.675 63.9588C140.597 64.5311 140.77 65.1091 141.15 65.5442C141.53 65.9793 142.079 66.229 142.657 66.229V64.229ZM91.8642 64.6625L91.4116 66.6106C92.0582 66.7609 92.7371 66.5805 93.2239 66.1292C93.7107 65.678 93.9419 65.0146 93.841 64.3585L91.8642 64.6625ZM88.2603 97.6694L89.8309 98.9076C90.3079 98.3027 90.395 97.4775 90.0548 96.7863C89.7147 96.0951 89.0078 95.6607 88.2375 95.6695L88.2603 97.6694ZM88.2595 97.6705L86.6889 96.4323C86.2145 97.034 86.1256 97.8539 86.46 98.5433C86.7943 99.2327 87.4932 99.6705 88.2595 99.6705V97.6705ZM146.976 97.6705V99.6705C148.081 99.6705 148.976 98.7751 148.976 97.6705H146.976ZM146.954 99.6693C147.026 99.6701 147.098 99.6705 147.171 99.6705V95.6705C147.114 95.6705 147.056 95.6702 146.999 95.6695L146.954 99.6693ZM147.171 99.6705C157.51 99.6705 165.892 91.2889 165.892 80.9498H161.892C161.892 89.0798 155.301 95.6705 147.171 95.6705V99.6705ZM165.892 80.9498C165.892 70.6106 157.51 62.229 147.171 62.229V66.229C155.301 66.229 161.892 72.8197 161.892 80.9498H165.892ZM147.171 62.229C147.098 62.229 147.026 62.2294 146.954 62.2303L146.999 66.23C147.056 66.2293 147.114 66.229 147.171 66.229V62.229ZM144.976 64.229V64.2301H148.976V64.229H144.976ZM142.657 66.229H146.976V62.229H142.657V66.229ZM144.639 64.4992C144.807 63.2656 144.894 62.0071 144.894 60.7293H140.894C140.894 61.8258 140.819 62.9038 140.675 63.9588L144.639 64.4992ZM144.894 60.7293C144.894 45.4507 132.508 33.0649 117.229 33.0649V37.0649C130.299 37.0649 140.894 47.6599 140.894 60.7293H144.894ZM117.229 33.0649C101.95 33.0649 89.5647 45.4507 89.5647 60.7293H93.5647C93.5647 47.6599 104.16 37.0649 117.229 37.0649V33.0649ZM89.5647 60.7293C89.5647 62.1689 89.6748 63.5841 89.8875 64.9666L93.841 64.3585C93.6592 63.1765 93.5647 61.9646 93.5647 60.7293H89.5647ZM92.3169 62.7144C90.9489 62.3966 89.5253 62.229 88.065 62.229V66.229C89.2184 66.229 90.3384 66.3613 91.4116 66.6106L92.3169 62.7144ZM88.065 62.229C77.7258 62.229 69.3442 70.6106 69.3442 80.9498H73.3442C73.3442 72.8197 79.9349 66.229 88.065 66.229V62.229ZM69.3442 80.9498C69.3442 91.2889 77.7258 99.6705 88.065 99.6705V95.6705C79.9349 95.6705 73.3442 89.0798 73.3442 80.9498H69.3442ZM88.065 99.6705C88.1378 99.6705 88.2106 99.6701 88.2832 99.6693L88.2375 95.6695C88.18 95.6702 88.1225 95.6705 88.065 95.6705V99.6705ZM89.8301 98.9088L89.8309 98.9076L86.6898 96.4311L86.6889 96.4323L89.8301 98.9088ZM146.976 95.6705H88.2595V99.6705H146.976V95.6705ZM144.976 97.6694V97.6705H148.976V97.6694H144.976Z" fill="url(#paint3_linear_3_1615)" mask="url(#path-3-inside-1_3_1615)"/>
</g>
<g filter="url(#filter2_bd_3_1615)">
<mask id="path-5-inside-2_3_1615" fill="white">
<path fill-rule="evenodd" clip-rule="evenodd" d="M177.331 80.3085C177.378 80.309 177.425 80.3093 177.472 80.3093C184.146 80.3093 189.556 74.8992 189.556 68.2254C189.556 61.5516 184.146 56.1415 177.472 56.1415C177.425 56.1415 177.378 56.1418 177.331 56.1423V56.1415H174.21C174.322 55.3145 174.381 54.4702 174.381 53.6123C174.381 43.3689 166.077 35.0649 155.833 35.0649C145.59 35.0649 137.286 43.3689 137.286 53.6123C137.286 54.5789 137.36 55.5281 137.502 56.4548C136.62 56.2499 135.701 56.1415 134.757 56.1415C128.083 56.1415 122.673 61.5516 122.673 68.2254C122.673 74.8992 128.083 80.3093 134.757 80.3093C134.804 80.3093 134.851 80.309 134.898 80.3085L134.897 80.3093H177.331V80.3085Z"/>
</mask>
<path fill-rule="evenodd" clip-rule="evenodd" d="M177.331 80.3085C177.378 80.309 177.425 80.3093 177.472 80.3093C184.146 80.3093 189.556 74.8992 189.556 68.2254C189.556 61.5516 184.146 56.1415 177.472 56.1415C177.425 56.1415 177.378 56.1418 177.331 56.1423V56.1415H174.21C174.322 55.3145 174.381 54.4702 174.381 53.6123C174.381 43.3689 166.077 35.0649 155.833 35.0649C145.59 35.0649 137.286 43.3689 137.286 53.6123C137.286 54.5789 137.36 55.5281 137.502 56.4548C136.62 56.2499 135.701 56.1415 134.757 56.1415C128.083 56.1415 122.673 61.5516 122.673 68.2254C122.673 74.8992 128.083 80.3093 134.757 80.3093C134.804 80.3093 134.851 80.309 134.898 80.3085L134.897 80.3093H177.331V80.3085Z" fill="url(#paint4_linear_3_1615)" shape-rendering="crispEdges"/>
<path d="M177.331 80.3085L177.354 78.3086C176.82 78.3025 176.305 78.5105 175.925 78.8862C175.545 79.2619 175.331 79.7741 175.331 80.3085H177.331ZM177.331 56.1423H175.331C175.331 56.6767 175.545 57.1889 175.925 57.5646C176.305 57.9403 176.82 58.1483 177.354 58.1422L177.331 56.1423ZM177.331 56.1415H179.331C179.331 55.0369 178.436 54.1415 177.331 54.1415V56.1415ZM174.21 56.1415L172.228 55.8713C172.15 56.4436 172.323 57.0216 172.703 57.4567C173.083 57.8918 173.632 58.1415 174.21 58.1415V56.1415ZM137.502 56.4548L137.05 58.4029C137.696 58.5531 138.375 58.3728 138.862 57.9215C139.349 57.4702 139.58 56.8069 139.479 56.1508L137.502 56.4548ZM134.898 80.3085L136.469 81.5459C136.946 80.9409 137.032 80.1159 136.692 79.425C136.352 78.734 135.645 78.2998 134.875 78.3086L134.898 80.3085ZM134.897 80.3093L133.326 79.0719C132.852 79.6737 132.764 80.4934 133.098 81.1826C133.432 81.8717 134.131 82.3093 134.897 82.3093V80.3093ZM177.331 80.3093V82.3093C178.436 82.3093 179.331 81.4139 179.331 80.3093H177.331ZM177.309 82.3084C177.363 82.309 177.417 82.3093 177.472 82.3093V78.3093C177.433 78.3093 177.393 78.3091 177.354 78.3086L177.309 82.3084ZM177.472 82.3093C185.25 82.3093 191.556 76.0037 191.556 68.2254H187.556C187.556 73.7946 183.041 78.3093 177.472 78.3093V82.3093ZM191.556 68.2254C191.556 60.4471 185.25 54.1415 177.472 54.1415V58.1415C183.041 58.1415 187.556 62.6562 187.556 68.2254H191.556ZM177.472 54.1415C177.417 54.1415 177.363 54.1418 177.309 54.1424L177.354 58.1422C177.393 58.1417 177.433 58.1415 177.472 58.1415V54.1415ZM175.331 56.1415V56.1423H179.331V56.1415H175.331ZM174.21 58.1415H177.331V54.1415H174.21V58.1415ZM176.191 56.4117C176.316 55.4954 176.381 54.5609 176.381 53.6123H172.381C172.381 54.3796 172.329 55.1336 172.228 55.8713L176.191 56.4117ZM176.381 53.6123C176.381 42.2643 167.181 33.0649 155.833 33.0649V37.0649C164.972 37.0649 172.381 44.4735 172.381 53.6123H176.381ZM155.833 33.0649C144.485 33.0649 135.286 42.2643 135.286 53.6123H139.286C139.286 44.4735 146.694 37.0649 155.833 37.0649V33.0649ZM135.286 53.6123C135.286 54.681 135.368 55.7319 135.526 56.7588L139.479 56.1508C139.352 55.3244 139.286 54.4767 139.286 53.6123H135.286ZM137.955 54.5067C136.926 54.2675 135.855 54.1415 134.757 54.1415V58.1415C135.548 58.1415 136.315 58.2322 137.05 58.4029L137.955 54.5067ZM134.757 54.1415C126.978 54.1415 120.673 60.4471 120.673 68.2254H124.673C124.673 62.6562 129.188 58.1415 134.757 58.1415V54.1415ZM120.673 68.2254C120.673 76.0037 126.978 82.3093 134.757 82.3093V78.3093C129.188 78.3093 124.673 73.7946 124.673 68.2254H120.673ZM134.757 82.3093C134.812 82.3093 134.866 82.309 134.921 82.3084L134.875 78.3086C134.836 78.3091 134.796 78.3093 134.757 78.3093V82.3093ZM136.468 81.5467L136.469 81.5459L133.327 79.0711L133.326 79.0719L136.468 81.5467ZM177.331 78.3093H134.897V82.3093H177.331V78.3093ZM175.331 80.3085V80.3093H179.331V80.3085H175.331Z" fill="url(#paint5_linear_3_1615)" mask="url(#path-5-inside-2_3_1615)"/>
</g>
<defs>
<filter id="filter0_bdd_3_1615" x="30.8774" y="16.8389" width="172.102" height="191.287" filterUnits="userSpaceOnUse" color-interpolation-filters="sRGB">
<feFlood flood-opacity="0" result="BackgroundImageFix"/>
<feGaussianBlur in="BackgroundImageFix" stdDeviation="7"/>
<feComposite in2="SourceAlpha" operator="in" result="effect1_backgroundBlur_3_1615"/>
<feColorMatrix in="SourceAlpha" type="matrix" values="0 0 0 0 0 0 0 0 0 0 0 0 0 0 0 0 0 0 127 0" result="hardAlpha"/>
<feOffset dx="-21" dy="15"/>
<feGaussianBlur stdDeviation="25"/>
<feComposite in2="hardAlpha" operator="out"/>
<feColorMatrix type="matrix" values="0 0 0 0 0.113438 0 0 0 0 0.148981 0 0 0 0 0.275 0 0 0 0.25 0"/>
<feBlend mode="normal" in2="effect1_backgroundBlur_3_1615" result="effect2_dropShadow_3_1615"/>
<feColorMatrix in="SourceAlpha" type="matrix" values="0 0 0 0 0 0 0 0 0 0 0 0 0 0 0 0 0 0 127 0" result="hardAlpha"/>
<feOffset/>
<feGaussianBlur stdDeviation="30.5"/>
<feComposite in2="hardAlpha" operator="out"/>
<feColorMatrix type="matrix" values="0 0 0 0 1 0 0 0 0 0.721569 0 0 0 0 0.00392157 0 0 0 0.49 0"/>
<feBlend mode="normal" in2="effect2_dropShadow_3_1615" result="effect3_dropShadow_3_1615"/>
<feBlend mode="normal" in="SourceGraphic" in2="effect3_dropShadow_3_1615" result="shape"/>
</filter>
<filter id="filter1_bd_3_1615" x="0.344238" y="0.0649414" width="192.547" height="162.605" filterUnits="userSpaceOnUse" color-interpolation-filters="sRGB">
<feFlood flood-opacity="0" result="BackgroundImageFix"/>
<feGaussianBlur in="BackgroundImageFix" stdDeviation="7"/>
<feComposite in2="SourceAlpha" operator="in" result="effect1_backgroundBlur_3_1615"/>
<feColorMatrix in="SourceAlpha" type="matrix" values="0 0 0 0 0 0 0 0 0 0 0 0 0 0 0 0 0 0 127 0" result="hardAlpha"/>
<feOffset dx="-21" dy="15"/>
<feGaussianBlur stdDeviation="25"/>
<feComposite in2="hardAlpha" operator="out"/>
<feColorMatrix type="matrix" values="0 0 0 0 0.113725 0 0 0 0 0.14902 0 0 0 0 0.27451 0 0 0 0.25 0"/>
<feBlend mode="normal" in2="effect1_backgroundBlur_3_1615" result="effect2_dropShadow_3_1615"/>
<feBlend mode="normal" in="SourceGraphic" in2="effect2_dropShadow_3_1615" result="shape"/>
</filter>
<filter id="filter2_bd_3_1615" x="51.6729" y="0.0649414" width="166.883" height="145.244" filterUnits="userSpaceOnUse" color-interpolation-filters="sRGB">
<feFlood flood-opacity="0" result="BackgroundImageFix"/>
<feGaussianBlur in="BackgroundImageFix" stdDeviation="7"/>
<feComposite in2="SourceAlpha" operator="in" result="effect1_backgroundBlur_3_1615"/>
<feColorMatrix in="SourceAlpha" type="matrix" values="0 0 0 0 0 0 0 0 0 0 0 0 0 0 0 0 0 0 127 0" result="hardAlpha"/>
<feOffset dx="-21" dy="15"/>
<feGaussianBlur stdDeviation="25"/>
<feComposite in2="hardAlpha" operator="out"/>
<feColorMatrix type="matrix" values="0 0 0 0 0.113438 0 0 0 0 0.148981 0 0 0 0 0.275 0 0 0 0.25 0"/>
<feBlend mode="normal" in2="effect1_backgroundBlur_3_1615" result="effect2_dropShadow_3_1615"/>
<feBlend mode="normal" in="SourceGraphic" in2="effect2_dropShadow_3_1615" result="shape"/>
</filter>
<linearGradient id="paint0_linear_3_1615" x1="126.756" y1="82.1163" x2="117.035" y2="124.307" gradientUnits="userSpaceOnUse">
<stop stop-color="#FF4D00"/>
<stop offset="1" stop-color="#FFB800"/>
</linearGradient>
<linearGradient id="paint1_linear_3_1615" x1="113.729" y1="123.724" x2="131.422" y2="85.8104" gradientUnits="userSpaceOnUse">
<stop stop-color="white"/>
<stop offset="1" stop-color="white" stop-opacity="0"/>
</linearGradient>
<linearGradient id="paint2_linear_3_1615" x1="117.618" y1="15.0389" x2="117.618" y2="106.42" gradientUnits="userSpaceOnUse">
<stop stop-color="white"/>
<stop offset="1" stop-color="white" stop-opacity="0"/>
</linearGradient>
<linearGradient id="paint3_linear_3_1615" x1="117.618" y1="35.0649" x2="117.618" y2="97.6705" gradientUnits="userSpaceOnUse">
<stop stop-color="white"/>
<stop offset="1" stop-color="white" stop-opacity="0"/>
</linearGradient>
<linearGradient id="paint4_linear_3_1615" x1="159.225" y1="36.4259" x2="159.225" y2="85.4216" gradientUnits="userSpaceOnUse">
<stop stop-color="white"/>
<stop offset="1" stop-color="white" stop-opacity="0"/>
</linearGradient>
<linearGradient id="paint5_linear_3_1615" x1="156.114" y1="35.0649" x2="156.114" y2="80.3093" gradientUnits="userSpaceOnUse">
<stop stop-color="white"/>
<stop offset="1" stop-color="white" stop-opacity="0"/>
</linearGradient>
</defs>
</svg>
